<svg width="775" height="600" viewBox="0 0 775 600" fill="none" xmlns="http://www.w3.org/2000/svg">
<path d="M201.189 114.494L200.771 113.445L200.955 113.183L201.168 113.044L201.438 113.076L202.504 114.199L202.967 114.506L203.647 115.321L205.183 115.419L207.027 114.543L207.888 114.899L208.297 114.834L209.649 114.002L210.53 113.765L211.12 113.15L211.718 113.814L213.054 114.584L213.476 115.391L214.041 115.772L214.23 116.026L213.415 116.874L213.312 117.787L212.439 117.726L211.395 119.225L207.474 121.74L203.954 119.594L202.426 118.143L201.402 116.136L201.189 114.494ZM276.851 166.447L276.982 167.04L277.605 167.618L278.097 167.069L277.839 166.594L277.761 165.701L277.13 164.894L276.86 165.578L276.602 165.738L276.36 166.283L276.851 166.447ZM302.774 178.26L303.278 178.268L304.098 177.998L304.524 177.425L304.97 177.572L305.86 176.523L306.458 176.007L308.048 175.835L306.974 174.504L306.781 174.41L305.298 174.926L303.389 175.266L302.651 175.983L301.889 177.158L301.717 178.207L301.852 178.539L302.774 178.26ZM336.445 101.111L336.724 100.312L336.228 99.9233L335.638 100.738L336.146 101.427L336.445 101.111ZM272.41 115.35L274.053 113.207L274.5 111.086L273.938 111.229L273.885 112.163L273.693 112.79L273.434 113.015L272.988 113.412L271.964 115.116L271.525 115.538L271.582 116.063L272.41 115.35ZM225.21 112.847L226.128 114.645L226.358 114.465L226.771 112.908L226.398 112.179L226.358 110.914L226.19 110.578L225.719 111.27L225.1 111.372L225.473 112.29L225.21 112.847ZM269.886 117.734L270.935 116.874L271.037 116.37L270.689 116.615L268.596 117.656L267.596 118.828L269.886 117.734ZM275.262 165.275L275.446 165.189L275.762 164.82L275.61 163.796L275.249 164.288L275.262 165.275ZM336.023 106.764L335.962 107.088L336.093 107.825L336.716 108.173L337.674 107.505L336.789 106.195L336.023 106.764ZM271.308 164.751L271.439 165.275L271.632 165.336L272.32 165.287L272.57 164.288L272.267 164.165L271.537 164.276L271.308 164.751ZM275.708 148.37L274.578 147.907L274.151 147.403L274.098 146.903L274.59 145.408L274.897 144.958L275.221 144.831L275.942 144.011L275.77 143.536L275.536 143.266L275.245 143.114L274.778 144.191L274.241 144.224L273.746 143.737L273.529 142.823L273.598 142.299L273.066 142.234L272.23 142.766L271.664 143.618L270.407 144.458L270.255 146.178L270.443 147.534L270.034 148.116L269.382 148.542L269.702 148.743L270.816 148.808L272.992 149.349L274.295 149.263L275.803 149.496L276.229 148.943L276.454 148.214L276.262 148.153L275.708 148.37ZM440.743 264.29L441.009 264.122L441.407 263.598L441.157 262.95L440.633 262.033L440.764 261.222L440.44 261.017L440.079 261.054L439.686 260.738L438.691 260.362L438.383 261.23L440.12 263.856L440.743 264.29ZM461.602 289.51L461.893 289.162L461.967 288.294L462.631 286.143L465.032 280.458L465.134 279.381L464.429 278.594L464.245 276.366L463.958 276.247L463.569 276.382L463.081 276.702L462.655 277.332L463.147 277.558L463.786 278.688L463.618 279.737L463.179 280.556L461.442 282.1L461.701 283.481L461.594 284.14L460.996 285.332L460.737 286.635L461.086 288.888L461.602 289.51ZM465.843 309.357L466.093 309.164L465.908 307.69L466.371 305.588L465.974 305.486L465.372 305.736L465.2 306.883L465.331 308.124L465.843 309.357ZM465.613 311.61L465.556 313.666L465.908 314.199L466.207 314.268L467.199 310.717L467.002 310.537L466.011 310.315L465.613 311.61ZM432.451 246.238L432.819 246.045L432.508 245.074L432.123 244.857L432.082 245.562L431.824 246.057L432.119 246.266L432.451 246.238ZM425.686 244.64L425.682 244.099L425.502 242.858L425.076 243.169L425.006 244.112L425.28 245.013L425.686 244.64ZM381.846 197.115L382.711 197.963L383.223 199.02L383.948 199.43L384.272 198.995L384.444 198.41L383.948 197.521L383.71 196.378L383.374 196.312L383.165 196.497L382.657 196.665L381.645 196.624L381.846 197.115ZM337.732 102.274L338.416 101.554L337.957 100.951L337.035 101.058L336.765 101.636L337.006 102.057L337.732 102.274ZM414.271 219.595L414.509 219.411L414.644 218.309L414.222 218.608L413.935 219.01L413.71 219.518L414.013 219.649L414.271 219.595ZM414.865 221.443L415.238 221.451L415.513 221.316L415.529 221.144L415.062 220.46L414.792 219.632L414.308 221.218L414.865 221.443ZM305.302 182.205L304.717 182.7L304.868 183.192L305.298 182.987L306.581 182.746L306.458 182.119L305.688 181.504L305.302 182.205ZM374.61 459.915L373.918 459.321L372.41 459.391L372.304 459.714L372.238 460.439L372.877 460.882L374.61 459.915ZM406.933 484.005L406.618 483.723L405.561 483.301L403.516 480.601L402.746 480.13L401.664 481.703L400.837 482.281L401.357 482.879L402.094 482.805L402.435 483.788L402.258 484.431L403.799 486.786L404.057 487.397L404.364 487.819L404.733 488.138L405.938 487.712L406.962 486.795L407.122 486.811L407.232 486.377L406.401 485.701L406.847 485.189L406.933 484.005ZM406.237 491.948L406.024 491.796L405.733 491.768L404.86 492.042L404.971 492.382L405.671 493.115L406.237 491.948ZM370.493 462.442L372.128 462.328L373.094 462.872L373.025 462.598L372.623 461.906L372.32 461.635L371.517 461.439L370.493 462.442ZM366.535 491.821L366.609 490.821L366.523 490.739L366.154 491.272L365.683 491.497L366.113 493.066L366.535 491.821ZM267.362 142.946L267.071 143.139L266.932 143.462L266.94 143.888L267.985 144.114L268.255 143.983L268.69 143.589L268.485 142.594L268.002 142.103L267.362 142.946ZM407.265 488.814L405.79 489.58L404.188 489.568L403.631 489.924L403.742 490.276L404.688 490.989L405.97 491.079L407.183 490.735L407.568 491.677L408.158 491.518L408.965 490.703L408.351 489.719L407.265 488.814ZM407.433 516.284L407.286 515.706L406.982 515.186V514.633L407.142 513.453L406.823 511.733L406.925 509.132L406.815 507.735L406.847 506.358L407.105 504.597L407.036 502.819L406.868 501.93L406.794 501.029L406.88 498.473L405.987 497.076L403.889 495.958L403.147 495.938L402.045 497.347L401.41 497.334L399.157 496.925L398.669 497.392L397.764 498.735L397.235 499.305L396.465 499.059L395.691 498.621L395.096 498.67L394.519 499.03L393.22 499.194L391.888 499.165L391.081 499.55L390.356 500.165L390.118 500.939L390.258 501.832L389.541 501.005L388.824 500.464L387.984 501.046L387.107 501.443L384.153 501.762L381.78 501.074L378.45 499.653L377.921 499.235L377.442 498.703L376.893 498.354L375.631 497.826L375.139 497.22L374.582 497.048L373.943 497.134L373.021 496.65L372.255 495.798L371.579 495.725L370.825 496.11L369.493 496.052L366.912 495.069L365.765 494.323L365.662 495.995L364.929 498.993L365.117 500.48L365.527 502.18L366.293 504.478L366.314 505.22L366.453 505.658L368.035 509.103L369.645 511.909L371.747 514.879L371.988 516.23L371.714 517.615L372.398 517.525L372.82 516.845L372.918 517.521L373.156 518.09L374.951 520.056L375.074 520.577L374.393 522.203L374.008 520.859L373.295 519.806L371.296 518.139L371.734 521.621L372.091 523.002L374.615 528.962L374.959 529.347L375.532 529.609L376.02 530.084L376.844 531.301L378.236 533.939L379.048 534.701L380.22 534.459L381.945 534.995L382.534 534.848L382.899 535.073L383.112 535.688L381.76 535.675L380.445 536.015L380.302 536.527L380.662 537.105L381.006 538.723L382.657 538.178L385.263 538.285L386.82 538.113L388.553 539.583L390.106 539.858L390.561 539.751L391.491 538.01L392.069 535.917L392.425 535.118L392.905 534.438L391.872 533.541L391.839 533.086L391.974 532.562L393.998 534.127L394.826 533.496L394.998 532.091V531.223L395.24 530.604L395.748 530.318L395.953 529.547L396.01 528.953L395.486 527.61L395.436 526.836L396.707 528.445L397.215 530.629L398.186 530.051L398.325 529.707L398.174 528.196L398.608 527.692L399.984 528.101L401.209 528.978L401.295 529.383L401.214 529.793L400.91 530.154L399.915 529.785L399.46 530.424L400.05 532.021L401.05 533.554L401.652 533.16L402.881 532.951L403.291 532.562L403.029 529.482L402.537 527.229L402.504 524.767L402.644 523.428L403.209 522.395L403.623 521.306L403.569 519.901L403.774 518.574L404.278 517.197L404.983 516.169L405.311 515.931L405.139 515.645L405.438 514.756L405.97 514.104L406.294 514.903L405.868 515.215L405.618 515.563L406.454 516.148L406.704 516.669L406.79 517.242L406.704 517.955L406.855 518.504L407.327 518.606L407.458 517.889L407.322 517.021L407.433 516.284ZM467.625 321.113L466.236 318.623L465.929 316.669L465.441 314.998L463.282 310.303L462.348 307.596L462.868 304.876L461.971 296.187L462.901 291.862L462.45 291.333L461.332 290.666L460.836 289.982L460.094 288.36L460.012 285.111L458.578 283.112L457.03 282.199L455.981 280.56L455.276 279.196L455.178 278.438L454.752 277.156L453.563 276.276L452.748 275.858L450.999 274.575L450.142 273.281L448.385 269.599L447.569 268.62L445.947 267.563L444.619 267.501L443.763 267.239L440.723 264.896L439.776 264.384L439.014 263.286L437.875 262.107L437.216 261.238L436.204 260.317L435.511 256.814V253.414L435.29 249.363L434.237 247.409L433.667 246.778L433.045 246.987L432.995 248.249L433.167 249.109L432.729 249.15L431.164 248.036L429.206 246.848L428.149 245.521L427.378 244.276L426.739 244.325L426.288 244.521L425.838 246.053L426.571 248.695L426.21 249.056L425.592 248.446L424.465 247.065L423.879 247.516L423.105 247.692L422.429 246.307L421.859 245.435L421.036 242.547L420.298 239.368L420.229 237.07L418.791 235.808L418.229 233.642L417.783 233.04L417.361 231.503L415.701 229.496L413.997 228.079L412.583 226.739L411.366 224.843L411.899 223.471L412.764 223.761L413.681 223.63L412.948 222.234L412.235 221.296L410.412 219.538L409.564 219.096L407.728 218.838L405.688 217.236L404.438 216.544L403.557 216.433L402.537 216.183L401.816 215.278L400.542 214.979L398.747 213.189L397.866 211.387L397.424 210.723L396.821 210.223L395.936 210.522L395.207 210.657L393.601 210.404L393.073 209.67L392.036 208.741L390.04 208.495L388.463 207.909L387.259 207.331L386.038 206.594L384.915 205.365L383.919 203.722L384.091 201.617L384.341 200.253L383.071 199.725L380.879 196.87L380.773 195.702L381.363 193.318L381.961 189.214L381.088 186.166L379.388 182.451L379.503 180.566L378.646 180.542L377.696 180.173L376.356 178.342L375.34 177.138L374.656 176.028L373.914 174.524L374.033 173.32L374.209 172.509L374.283 170.363L373.336 168.278L373.037 166.143L372.14 163.477L372.39 161.707L372.193 160.249L371.915 158.987L372.205 158.184L372.324 157.164L371.087 156.144L369.76 155.366L368.047 153.99L364.97 151.843L364.261 150.221L362.958 148.771L361.217 149.332L359.934 149.599L358.738 150.692L357.083 151.499L355.477 150.77L354.715 150.156L354.149 147.985L353.416 145.617L352.793 144.429L352.326 142.995L352.764 139.501L352.109 137.859L351.904 135.405L351.281 132.603L350.589 131.202L350.638 130.076L349.351 128.425L348.942 127.241L348.212 126.815L347.286 126.139L347.155 125.234L347.225 124.575L347.778 123.481L348.077 122.064L346.787 121.711L345.889 121.65L345.262 121.203L344.558 120.511L344.304 118.307L344.328 115.972L344.144 114.514L343.759 113.429L343.488 112.282L342.837 111.061L340.878 109.476L341.022 108.837L341.477 108.009L340.784 107.534H339.768L339.194 108.64L338.268 109.59L336.453 110.315L336.113 114.117L334.987 118.295L333.962 121.379L334.151 122.313L334.069 123.227L333.516 122.817L333.028 122.305L332.282 123.526L330.934 126.692L330.811 128.335L331.602 128.777L332.155 129.212L332.815 129.355L333.114 129.76L333.282 130.555L333.708 131.239L333.602 131.981L333.09 131.69L332.012 131.694L331.463 132.337L330.074 133.623L330.439 137.326L329.787 139.276L329.16 140.788L328.451 143.655L328.546 145.175L329.173 146.256L329.849 147.837L329.439 150.016L329.025 151.577L329.951 156.099L330.209 158.508L329.701 160.151L328.21 165.009L327.538 168.564L327.755 170.526L327.108 172.329L326.37 175.212L325.538 177.392L322.625 181.791L322.048 183.921L321.068 186.576L318.975 188.124L317.393 189.091L313.927 190.049L311.927 190.029L310.895 189.443L310.301 188.935L307.945 188.087L305.081 186.17L302.877 185.547L301.787 183.622L301.68 182.823L301.287 181.783L300.132 180.415L297.952 179.952L295.715 178.965L294.334 179.104L291.339 178.256L289.344 177.048L287.521 175.372L285.116 172.472L283.075 171.69L280.465 170.49L278.966 169.49L278.056 169.007L277.048 168.257L276.13 168.425L274.545 168.446L273.549 167.741L273.422 167.188L273.574 166.754L273.631 165.963L273.283 165.844H272.931L272.639 166.057L272.234 166.213L270.833 165.607L268.87 164.595L268.501 163.706L267.883 162.621L265.17 161.044L263.597 159.741L260.123 157.853L259.234 156.939L258.943 156.14L258.684 154.989L259.463 153.793L260.221 152.945L262.585 149.427L263.294 148.812L264.183 147.858L264.998 145.289L265.404 143.823L264.711 141.603L264.687 137.875L267.432 136.429L268.198 136.241L268.907 135.921L269.718 136.372L270.263 137.072L270.829 136.945L272.361 134.348L272.115 133.267L271.48 132.345L271.701 131.776L276.421 126.692L275.844 125.447L275.143 125.16L273.799 125.246L272.533 124.161L271.738 122.109L270.624 122.035L268.633 124.14L268.399 124.624L268.882 124.898L269.304 126.176L268.526 127.675L267.748 127.688L266.469 127.54L265.887 126.471L265.625 124.841L264.814 124.382L263.888 124.689L263.122 125.263L262.581 125.427L262.13 125.054L262.106 124.374L263.273 123.243L264.253 122.518L264.331 122.248L263.618 122.027L263.724 121.502L264.634 120.573L264.207 120.523L263.097 121.519L261.913 122.092L260.34 123.313L258.082 124.112L256.534 125.193L254.374 124.865L252.363 123.8L251.924 123.239L250.933 122.416L248.724 123.309L247.335 123.215L246.569 122.899L245.262 122.686L244.139 121.896L241.435 120.634L238.563 120.392L237.17 120.45L236.134 119.798L235.134 119.426L233.171 119.163L232.356 118.184L231.327 116.214L230.59 115.686L229.398 115.497L228.132 116.402L227.39 116.829L225.944 115.211L223.375 113.539L222.555 113.31L222.125 113.715L221.814 114.485L221.326 114.559L220.757 114.211L219.753 113.224L219.097 113.044L217.377 114.096L217.495 114.457L218.901 114.993L220.376 116.464L221.076 116.767L222.732 116.382L225.002 116.661L227.292 118.496L226.956 119.409L226.784 120.679L226.845 122.064L226.792 123.002L227.734 124.034L227.312 124.112L226.247 123.878L225.407 124.165L224.616 124.652L224.264 126.041L223.817 125.386L222.449 124.763L221.638 125.242L220.277 125.873L219.04 125.619L218.253 125.3L216.393 125.84L213.079 125.824L211.972 125.046L211.649 123.71L211.391 123.383L211.087 123.981L210.567 124.669L208.564 124.808L208.264 125.091L208.383 125.758L208.305 126.598L207.535 126.66L206.584 126.881L206.687 127.909L206.863 128.712L206.511 129.113L205.466 128.38L204.999 127.589L204.266 127.344L203.692 127.626L203.545 128.331L203.631 130.15L203.11 130.354L201.754 130.285L201.131 130.629L200.193 132.915L198.468 133.787L198.206 134.979L198.091 135.995L199.525 137.834L198.833 138.776L198.103 139.546L197.374 139.874L195.825 140.173L194.686 141.013L194.207 141.898L194.117 142.741L193.801 143.823L193.306 145.105L193.207 145.797L192.171 146.485L190.327 148.546L189.397 150.655L190.61 151.802L192.035 152.626L193.072 152.601L193.08 152.81L191.998 153.658L192.67 154.526L193.707 155.337L194.338 155.456L194.801 155.8L193.822 155.993L192.371 156.063L192.093 156.947L192.269 157.967L192.527 158.852L192.347 159.479L191.806 159.049L191.568 158.385L190.323 157.033L189.43 156.62L188.123 156.3L187.729 156.71L187.782 158.77L187.524 159.716L187.062 159.18L186.947 157.672L185.713 156.452L180.854 155.231L180.166 155.153L179.035 155.313L178.261 155.796L178.183 156.271L177.667 156.656L176.827 157.095L176.056 157.767L175.556 158.328L175.532 159.028L176.155 160.343L176.519 160.724L176.47 161.351L175.864 160.699L175.331 160.491L174.827 161.515L174.344 161.72L174.471 158.86L174.975 156.923L175.384 155.78L175.835 154.887L175.618 154.416L172.25 151.741L170.824 149.549L169.779 148.321L168.153 147.137L167.305 146.391L165.416 145.252L163.187 144.462L162.114 143.393L160.93 143.012L159.463 143.532L159.34 144.527L159.524 145.494L158.356 147.075L157.099 147.919L156.095 146.952L155.181 146.248L154.259 146.756L153.981 147.628L153.518 147.952L153.169 147.358L152.665 146.047L151.916 145.527L151.166 145.756L151.391 146.797L151.821 147.37L151.703 148.198L151.162 148.579L151.059 149.361L150.736 150.402L150.785 151.856L149.929 152.163L149.29 153.314L148.826 153.068L148.708 152.319L148.474 151.552L147.54 151.262L147.196 151.975L146.987 152.216L146.655 152.265L146.88 151.684V150.594L147.151 149.455L146.266 149.046L145.913 149.3L145.926 150.283L145.712 151.716L144.836 151.942L144.057 152.585L142.906 152.597L142.32 152.908L142.111 153.666L141.099 154.449L141.12 155.387L141.8 156.337L141.845 157.164L143.463 158.004L143.369 158.848L143.139 159.241L142.529 159.086L141.222 158.356L139.891 158.201L139.489 157.865L139.329 158.107L139.321 158.668L138.805 159.077L138.063 159.118L137.198 159.72L137.813 160.663L137.703 161.035L138.006 161.486L139.325 161.568L139.886 161.449L139.944 162.252L139.776 163.055L139.239 163.342L138.727 162.604L136.182 161.191L135.515 161.056L135.375 161.498L135.494 162.076L134.957 162.776L134.011 163.694L133.368 163.444L132.606 163.661L132.114 165.23L131.942 166.799L132.786 167.897L133.351 169.343L134.527 167.565L135.007 167.36L135.011 168.13L134.552 168.929L134.281 169.912L134.191 171.022L133.421 171.051L132.556 170.903L132.348 171.256L132.024 172.083L132.212 173.226L132.786 173.656L134.118 173.615L135.252 173.697L136.264 174.111L136.433 174.459L135.519 174.262L133.65 174.369L132.761 174.213L130.995 174.32L129.684 173.668L129.037 173.017L128.058 172.849L127.103 173.111L126.57 174.025L125.927 174.246L124.432 171.985L123.493 171.833L123.031 172.362L123.481 173.779L123.244 174.651L122.732 175.303L122.084 175.262L121.682 175.536L122.002 176.134L123.026 177.654L123.866 178.318L124.612 179.239L124.993 180.034L125.894 179.997L126.103 180.64L125.587 181.574L125.604 183.057L125.235 183.135L124.714 182.807L123.682 181.894L123.149 181.717L122.875 181.98L122.789 182.606L123.039 184.245L122.51 186.584L122.617 187.268L122.522 187.849L122.088 187.428L121.555 186.522L120.453 185.117L119.105 182.057L117.68 179.985L116.905 178.219L115.713 174.897L115.094 174.848L114.304 176.278L113.431 178.158L112.837 179.083L111.427 180.005L110.559 180.939L109.518 181.267L108.375 182.332L107.551 183.245L106.396 185.375L106.199 186.748L106.248 188.194L106.752 190.246L107.285 193.228L108.067 193.547L108.698 194.051L108.522 194.952L107.564 195.522L104.622 198.344L102.643 199.352L102.077 200.06L101.352 201.556L100.303 203.444L99.8281 204.636L98.726 206.946L96.9312 209.527L95.1162 211.444L93.0226 212.98L91.65 213.713L86.5367 215.86L83.8082 216.679L78.8792 217.277L76.7896 218.248L74.1756 217.932L71.2503 217.724L67.1898 220.968L63.8218 221.758L60.8392 222.352L59.5569 222.885L56.6232 224.757L54.9148 225.613L51.7271 226.571L50.4199 226.473L48.6542 225.593L47.0029 225.797L45.1757 225.67L43.6842 225.752L42.5246 226.481L35.6864 230.356L34.3345 231.413L32.9291 232.949L30.9133 234.371L29.303 236.009L25.9188 237.717L22.4363 239.012L20.7153 240.089L19.4902 241.552L17.3556 245.484L16.9049 246.479L16.0527 247.516L14.9218 247.893L14.1886 248.229L14.4467 246.254L13.6312 244.501L14.2049 241.154L13.9918 240.155L12.8282 240.806L12.0868 241.519L10.206 246.369L8.9196 250.15L9.89463 252.321L10.2102 253.582L10.206 254.938L9.86187 256.888L9.88638 258.158L9.77185 259.85L7.42816 263.774L6.69895 265.482L5.91222 268.767L5.81795 270.291L5.87521 272.573L6.86275 274.571L7.61672 275.809L8.78431 279.389L10.1855 281.769L12.4924 286.565L15.0366 290.457L15.2004 291.948L14.9138 293.955L15.0531 296.032L14.5983 296.642L13.615 297.359L12.4881 296.437L11.9145 295.639L11.1935 292.697L10.8984 292.529L10.415 293.816L9.88238 294.377L9.39899 293.996L9.03013 293.508L8.94011 293.001L9.1039 292.394L9.2802 290.19L8.2229 288.933L7.28487 287.581L6.27283 287.249L5.6499 287.86L5.62939 288.699L6.98579 291.051L7.85829 293.599L9.20643 295.192L10.0012 295.602L10.8902 296.572L10.6976 298.723L10.0544 299.526L9.51777 299.936L7.76826 299.46L7.36265 297.912L5.99425 294.868L5.55162 293.689L5.17476 293.369L5.02321 293.951L5.05172 295L4.79765 295.45L4.53157 295.405L3.99066 294.856L3.50302 294.561L3.20793 294.664L3.74059 295.422L4.91243 297.666L9.23919 303.172L12.906 309.586L13.7132 312.126L14.1189 317.713L14.4835 319.065L16.6469 321.846L18.7652 325.07L19.3879 326.676L19.3756 328.052L19.8058 329.359L22.4363 332.906L23.6079 336.716L23.7514 338.108L23.4153 340.501L23.7227 344.732L24.0177 347.034L24.9723 351.598L26.1114 354.891L27.4593 356.939L29.303 361.494L32.1056 366.754L32.5602 369.355L32.4169 376.29L32.2161 378.551L31.6017 378.94L31.1878 379.894L31.786 384.458L31.9253 387.063L31.0198 389.521L29.9955 391.704L28.1967 393.195L26.1606 393.244L25.2141 392.376L24.0055 391.487L23.7924 395.456L23.7677 398.864L24.1365 400.163L24.1775 401.695L25.5459 402.887L26.3162 402.424L27.2667 402.358L30.5732 404.046L32.4292 405.439L35.4201 409.183L38.0671 410.17L41.5168 411.874L45.5238 412.415L48.728 412.513L53.7634 413.41L54.841 413.091L56.9961 412.812L58.6431 412.23L60.1263 411.858L64.5513 408.38L68.8656 404.8L71.0002 404.517L72.9135 404.476L75.2489 403.255L77.3713 399.557L78.4531 398.733L79.891 397.812L83.976 397.271L86.3812 397.652L87.6675 397.054L90.933 396.386L97.7262 395.772L101.455 396.267L103.946 396.185L105.265 396.431L106.297 398.049L113.505 396.656L115.553 396.558L116.836 396.792L118.45 398L120.261 396.857L121.887 397.009L123.535 395.907L126.038 392.605L127.177 390.545L129 386.207L130.352 384.65L131.839 383.876L133.585 383.626L136.277 382.844L142.115 379.194L144.381 378.408L145.577 377.72L149.597 374.889L152.117 374.344L159.508 375.077L163.011 374.889L165.723 374.447L169.841 372.923L174.323 371.776L179.826 369.367L184.423 366.877L187.205 366.303L198.034 365.218L205.544 365.553L207.445 365.041L208.379 364.587L209.694 364.099L211.317 364.439L212.562 364.808L216.332 366.795L222.01 370.977L223.264 371.153L227.001 370.199L228.251 370.293L233.479 373.365L235.646 373.431L237.379 373.353L238.69 373.685L240.083 374.52L241.734 376.454L245.229 378.309L245.406 379.808L245.147 380.783L244.361 380.82L243.693 381.029L244.533 384.171L246 386.711L249.523 387.055L250.806 387.944L251.629 388.947L252.272 390.541L252.752 393.035L254.518 395.116L256.165 396.894L256.55 397.627L257.324 400.146L257.619 400.884L258.263 403.378L259.201 406.229L258.943 406.52L258.385 406.459L257.394 405.734L256.521 404.927L256.054 405.054L255.521 405.607L255.444 406.291L256.222 406.111L256.677 406.209L257.754 407.081L258.758 408.097L259.553 408.691L261.471 411.223L262.22 410.657L263.138 410.154L264.597 411.53L265.179 411.804L265.51 411.276L264.957 408.806L264.404 408.208L264.273 407.331L264.957 406.705L265.289 405.955L266.916 404.107L270.476 398.59L271.57 397.959L272.832 396.751L274.536 395.829L276.298 394.735L277.421 394.309L278.523 394.084L279.756 393.072L281.1 390.336L282.112 387.096L283.194 385.67L284.849 384.15L286.123 382.041L286.021 380.39L286.037 378.707L286.955 380.005L287.533 381.324L288.447 385.736L287.664 386.707L286.836 387.194L286.996 388.743L287.549 390.762L287.754 392.38L286.017 394.088L284.517 396.234L282.719 400.405L282.604 401.666L282.321 403.419L282.428 404.964L282.706 406.459L282.264 408.777L281.539 410.85L280.588 410.903L279.941 410.825L278.519 411.01L277.208 410.887L275.704 415.417L276.659 415.63L277.388 415.372H278.703L280.174 414.561L282.325 413.898L283.554 414.131L284.997 414.057L287.094 408.257L287.615 404.484L288.684 402.793L289.016 401.625L289.569 400.519L290.683 402.42L291.581 404.267L293.556 407.266L294.174 408.761L294.42 412.398L293.138 416.618L292.367 417.826L291.437 418.879L290.659 420.652L293.015 421.103L294.543 421.07L296.932 419.78L297.403 419.608L298.604 419.587L299.062 418.911L300.238 418.268L301.115 417.515L302.25 416.921L303.282 417.314L303.516 417.654L303.774 418.035L303.393 418.87L303.36 420.636L302.684 420.444L302.082 419.395L301.328 419.665L300.804 420.456L299.677 420.206L299.865 420.722L300.468 421.734L302.848 423.684L305.392 426.268L306.339 427.489L308.412 431.384L309.887 435.526L309.768 436.751L309.043 438.963L308.523 441.212L308.568 442.391L309.047 443.886L310.092 445.418L313.968 449.601L316.017 453.287L318.741 455.2L323.154 455.905L325.485 457.289L327.907 460.083L328.677 460.321L329.853 460.435L331.361 458.735L333.659 458.915L336.683 460.603L338.481 460.202L339.764 460.411L341.559 461.365L344.185 463.254L346.971 464.204L348.626 465.633L349.913 465.846L352.219 466.776L353.916 465.982L355.358 464.982L358.689 461.521L361.299 459.854L362.671 459.206L363.773 458.92L365.171 457.838L364.302 457.076L363.478 457.203L362.069 456.773L362.872 456.273L363.712 455.901L367.768 453.328L368.846 454.09L369.591 454.942L370.399 456.11L369.792 457.76L369.251 458.539L368.002 459.788L366.494 459.837L365.777 459.735L367.264 461.136L368.551 462.078L371.214 460.366L371.878 459.018L372.382 458.235L373.226 458.063L374.488 458.326L374.975 459.313L375.25 460.517L374.336 460.845L373.893 461.738L373.582 462.586L375.172 463.675L375.987 464.368L376.97 464.351L378.105 464.519L378.966 466.121L379.769 467.968L380.719 467.456L381.314 466.973L382.33 467.436L383.436 468.89L384.333 470.541L384.423 471.237L385.111 471.557L385.763 471.065L386.075 470.369L386.05 469.087L385.874 467.063L385.419 466.756L384.382 467.854L383.792 467.059L382.997 466.215L383.01 465.4L383.874 464.994L384.608 465.171H385.525L390.368 464.462L396.563 457.969L399.276 455.589L402.094 453.824L405.012 452.689L406.532 452.325L414.366 451.714L418.442 451.911L420.54 451.464L421.511 450.866L423.158 449.232L424.314 448.233L425.731 447.954L426.075 446.733L426.079 445.427L426.35 444.063L425.936 441.502L426.047 438.139L426.366 436.386L427.223 433.924L427.6 431.397L427.985 427.817L428.325 425.695L428.751 423.757L429.861 421.623L430.804 420.243L433.028 415.049L433.799 414.537H434.442L434.72 414.221L434.806 413.934L434.618 413.726L434.335 413.123L434.524 412.636L435.2 412.152L435.413 412.337L435.757 412.234L435.81 411.968L435.491 410.547L435.958 408.556L436.527 405.078L437.171 403.518L437.551 402.277L439.039 400.413L440.665 398.578L440.203 398.381L439.44 398.242L439.932 397.803L440.321 397.672L440.817 397.963L441.227 397.156L441.317 395.89L441.714 394.023L441.362 392.396L442.116 391.888L442.972 391.581L443.333 389.877L443.57 389.193L444.103 388.558L444.996 387.202L445.697 385.789L447.356 383.094L448.979 381.992L451.396 381.14L451.666 380.652L451.052 380.353L451.076 380.058H451.986L452.355 379.116L453.314 378.42L454.916 376.814L455.448 375.339L455.78 374.16L455.94 371.493L458.546 367.995L460.361 363.272L460.799 360.245L461.25 358.61L461.553 356.218L461.278 353.728L461.356 351.643L463.167 346.35L463.581 344.167L464.138 342.766L464.995 337.551L465.011 334.848L466.322 331.702L467.957 329.142L468.096 326.774L467.547 324.955L467.625 321.113ZM198.042 120.552L200.181 119.933L202.311 120.679L203.504 120.458L203.463 119.954L203.2 119.532L202.766 119.135L201.82 118.86L201.516 117.84L200.971 116.882L200.873 115.833L200.443 114.866H199.935L199.431 115.141L198.3 116.505L198.697 117.25L198.816 118.615L198.144 119.065L197.374 118.877L197.042 120.122L197.427 120.564L198.042 120.552ZM2.573 291.718L2.569 290.833L2.15913 289.977L0.852248 286.238L0.442379 286.381L0 286.868L0.643187 289.572L2.85158 293.533L3.15467 293.009L2.7573 292.001L2.573 291.718ZM28.5163 228.333L29.1843 227.378L29.3113 226.506L29.049 225.916L28.1272 226.87L27.5985 227.661L27.7051 228.145L28.5163 228.333ZM133.568 162.838L133.978 162.94L134.408 162.604L134.498 162.068L134.032 161.527L133.876 161.048L133.511 161.015L133.335 161.31L133.089 161.879L133.56 162.379L133.568 162.838ZM141.324 152.88L141.263 152.56L141.316 151.643L140.878 151.421L140.39 151.847L140.091 153.027L140.591 153.617L141.324 152.88ZM396.067 531.366L395.777 531.903L395.682 532.386L395.42 532.644L395.9 532.984L396.026 533.754L396.289 533.885H397.01L396.584 531.96L396.067 531.366ZM395.605 534.508L395.277 534.488L394.703 535.299L394.539 535.942L394.293 536.064L394.134 536.515L393.884 536.867L393.212 536.593L393.216 536.88L393.777 537.969L394.67 537.703L395.564 537.982L396.104 536.343L395.949 535.544L395.605 534.508ZM405.155 524.112L404.348 523.755L403.77 524.493L403.864 524.849L403.848 525.652L404.065 525.721L404.708 525.582L404.663 525.119L405.454 524.669L405.155 524.112ZM287.705 422.209L286.636 422.717L283.882 422.385L283.903 422.152L284.329 421.226L283.747 420.714L283.12 420.501L280.863 420.325L278.077 421.328L272.869 422.528L272.181 423.372L271.742 424.523L272.304 425.162L274.209 426.547L276.02 426.735L277.319 426.412L278.72 426.629L279.433 425.826L281.416 426.371L282.178 427.137L283.808 426.461L284.177 425.203L284.738 424.634L286.632 424.208L288.66 424.769L289.287 424.671L289.942 423.987L289.057 422.614L287.705 422.209ZM358.906 481.011L358.566 478.819L357.525 477.959L356.927 478.012L356.816 479.118L356.128 479.741L355.927 480.306L355.964 481.588L355.661 482.78L356.226 483.968L356.091 485.168L356.353 486.012L356.689 485.951L357.919 485.386L358.808 484.546L359.139 483.522L358.738 482.33L358.906 481.011ZM122.887 127.692L122.879 127.573L122.621 127.553L122.629 127.671L122.887 127.692Z" fill="#EDCCFF"/>
<path d="M738.4 128.508L737.949 128.627L737.224 128.529L737.077 128.34L737.306 128.3L737.781 128.177L738.363 128.238L738.465 128.361L738.4 128.508ZM772.001 171.478L771.497 171.708V171.523L771.849 171.204H772.132L772.001 171.478ZM772.308 175.685L771.497 176.127V175.517L772.145 174.952L772.636 174.833L772.333 175.402L772.308 175.685ZM773.8 204.928L773.828 205.285L773.656 205.264L773.451 205.113L773.349 205.186L773.275 205.297L773.238 205.547L773.21 205.686L773.05 205.637L773.021 205.391L773.075 205.219L773.152 204.965L773.439 204.736L773.8 204.928ZM771.489 171.708L769.752 173.293L769.129 174.112L768.6 175.017L767.121 175.988L766.49 177.291L766.535 178.606L768.019 177.229L769.67 176.107L770.178 175.878L770.698 175.89L770.653 176.275L770.416 176.656L770.231 177.651L770.665 178.577L769.432 178.487L768.211 178.565L766.765 179.081L765.343 179.31L764.81 179.314L764.302 179.142L763.971 178.876L763.712 178.262L763.45 178.171L762.323 178.2L760.635 179.404L760.074 180.437L759.427 180.482L758.656 180.269L757.726 181.059L756.616 181.342L756.141 180.67L755.83 179.851L755.432 179.249L754.211 179.097L754.399 178.36L754.723 178.057L755.018 177.618L755.198 177.119L755.784 177.434L756.382 177.639L757.05 177.266L757.747 177.233L758.444 176.144L759.537 175.46L761.041 174.919L762.573 174.534L763.364 174.456L764.122 174.235L765.454 173.211L766.335 172.687L767.293 172.371L768.211 172.187L769.059 172.351L769.744 172.265L771.489 171.536V171.708ZM771.497 176.131L771.35 176.144L771.321 175.914L771.497 175.517V176.131ZM773.099 177.897L772.722 178.044L771.497 179.06L770.706 180.138L770.313 181.186L770.645 181.621L771.497 181.174L771.784 180.719L773.017 179.83L773.542 178.814L773.099 177.897ZM739.695 183.378L739.101 183.579L739.416 182.628L739.748 182.329L739.961 182.268L740.301 182.202L740.17 182.874L739.695 183.378ZM764.855 186.008L764.47 186.331L764.29 184.685L764.688 184.697L764.974 184.869L765.138 185.287L764.855 186.008ZM751.724 186.069V186.597L752.06 186.827L752.396 186.864L753.224 187.88L754.514 188.752L755.301 189.42L755.346 189.989L755.104 190.591L755.44 191.673L755.6 192.791L756.174 194.569L755.366 194.909L754.092 194.95L753.797 195.269L753.367 195.093L752.31 195.228L751.302 195.814L750.343 196.609H749.233L747.983 196.773L746.738 196.662L745.861 196.236L744.316 195.773L742.255 195.38L741.403 195.048L740.69 194.532L740.026 193.225L739.928 192.578L740.031 191.96L740.633 191.751L741.137 191.439L741.206 191.03L741.432 190.743L741.719 190.641L741.862 190.444L741.657 189.78L741.6 189.178L742.796 188.072L744.095 187.13L746.398 186.262L747.803 186.343L749.958 185.676L750.651 185.36L751.335 185.553L751.724 186.069ZM758.017 190.345L757.423 190.559L757.095 189.825L757.546 189.088L758.054 189.022L758.304 189.772L758.017 190.345ZM764.016 194.831L763.913 194.929L762.918 193.971L762.95 193.59L763.126 193.25L763.528 192.93L763.889 193.475L764.171 194.384L764.016 194.831ZM754.113 205.338L754.109 205.858L752.63 206.202L752.134 205.776L751.814 205.698L750.933 206.46L750.675 206.772L750.589 207.005L750.36 207.124L748.737 207.488L748.024 207.124L748.504 206.878L749.098 206.383L749.696 206.456L750.294 205.993L750.892 205.289L751.74 205.137L752.339 204.867L753.326 205.063L754.113 205.338ZM709.744 238.501L709.658 238.636L709.326 238.591L709.261 238.317L709.453 238.161L709.724 238.264L709.744 238.501Z" fill="#EDCCFF"/>
<path d="M540.953 209.42L540.773 209.678L540.683 207.757L541.047 207.036L541.224 208.531L540.953 209.42ZM589.825 220.767L591.119 221.533L592.512 221.205L594.262 222.409L598.72 226.071L600.285 226.846L601.207 227.141L601.903 227.739L602.526 228.586L603.374 229.184L603.743 229.742L603.833 230.495L604.14 230.958L605.693 232.175L606.619 233.244L607.905 233.789L608.458 234.428L609.18 234.739L609.917 235.394L611.163 235.906L613.986 237.791L616.165 239.581L617.255 240.691L618.427 241.678L619.927 242.469L621.336 243.37L622.045 245.483L621.656 246.241L620.849 246.618L620.099 246.647L619.398 246.901L617.058 245.537L616.501 245.336L615.879 245.422L615.53 245.119L615.284 244.685L613.854 244.177L612.527 243.366L612.142 242.813L611.916 242.125L611.597 241.731L609.725 241.133L608.463 240.466L607.545 239.528L606.123 238.872L603.907 237.529L602.772 237.098L601.776 236.427L599.113 233.99L598.162 233.535L597.335 232.453L595.036 229.885L593.926 228.832L592.721 227.894L591.799 226.796L591.091 225.494L589.443 223.63L589.243 222.835L589.312 222.02L588.915 221.496L588.243 221.176L587.923 220.627L587.96 219.886L588.182 219.505L589.825 220.767ZM616.784 226.288L616.173 226.407L616.911 225.289L616.936 224.605L617.23 223.253L617.194 222.803L617.681 222.86L618.21 223.249L617.603 223.585L617.399 224.171L617.423 224.9L617.657 225.035L617.267 225.834L616.784 226.288ZM626.605 231.941L625.978 232.04L625.138 231.155L623.536 230.713L622.831 229.938L622.372 229.025L623.282 228.799L624.175 227.571L623.569 227.116L622.52 227.034L622.639 226.555L624.343 225.985L625.093 226.317L625.425 226.706L625.376 228.652L626.146 229.27L626.945 230.655V231.044L626.605 231.941ZM633.624 235.243L634.16 235.472L635.098 235.431L634.885 237.529L633.57 237.865L633.12 237.848L632.825 237.406L632.071 237.115L632.108 236.398L631.378 234.788L632.648 234.543L633.369 234.112L633.328 234.506L633.439 234.96L633.624 235.243ZM628.256 249.957L627.892 250.424L627.441 250.33L627.097 250.153L626.847 249.899L627.097 248.945L628.084 249.412L628.256 249.957Z" fill="#EDCCFF"/>
<path d="M694.085 411.108L694.257 411.746L694.892 411.292L695.368 410.575L696.134 409.846L696.031 411.021L696.425 411.28L698.965 412.099L699.489 412.783L700.03 412.979L700.334 412.594L700.694 412.385L701.612 412.816L703.685 414.012L703.857 414.426L703.75 415.04L703.853 415.691L704.136 416.211L704.824 416.33L705.742 415.56L706.172 415.466L706.778 416.56L707.008 417.178L706.913 417.158L707.311 417.772L707.835 418.378L708.741 420.177L708.606 420.807L708.339 421.377L709.171 423.044L708.626 423.159L706.991 422.876L707.045 423.212L707.999 424.437L708.802 426.169L709.446 427.214L711.715 430.462L711.375 431.617L711.429 432.383L711.138 433.043L711.912 434.772L711.429 435.308L711.109 437.082L710.757 437.393L710.802 438.04L711.72 438.212L712.273 438.487L712.748 439.015L713.043 438.38L713.444 438.208L714.538 439.056L716.816 439.904L717.443 440.22L717.751 440.904L717.984 442.559L718.427 443.288L719.299 443.427L720.238 443.206L720.533 442.604L720.344 440.981L719.668 438.393L719.664 437.553L719.758 436.709L719.602 435.873L719.263 435.087L718.898 434.485L718.431 433.977L718.595 433.186L719.295 432.83L719.721 433.498L720.07 434.305L721.836 436.697L722.88 436.529L722.975 437.52L723.683 438.528L724.077 439.712L724.593 443.255L725.384 446.602L726.818 448.06L726.986 448.76L726.113 448.4L725.847 448.609L725.937 448.961L726.744 449.604L727.695 449.92L728.293 449.875L728.854 450.108L732.57 452.295L734.356 453.147L738.864 454.544L740.15 454.655L740.863 454.618L742.211 454.135L743.42 453.266L744.464 451.968L745.366 450.489L746.345 449.772L747.455 449.207L748.017 448.682L748.607 448.31L751.626 448.482L752.646 449.227L753.97 449.825L754.662 450.292L754.429 451.243L753.638 452.644L753.032 454.18L752.491 457.678L752.126 461.225L751.577 462.794L750.577 464.003L749.471 464.887L748.221 465.305L747.713 467.333L747.464 469.713L747.537 470.311L747.939 470.786L748.103 471.494L747.447 472.928L747.066 472.719L746.525 471.523L746.038 471.023L744.538 470.651L743.01 470.479L741.686 470.585L740.408 471.097L738.478 472.133L737.88 472.658L737.356 473.326L736.471 474.817L736.258 476.644L736.299 477.602L736.614 478.343L738.257 479.355L736.626 482.894L735.18 486.589L734.361 487.646L733.418 488.625L732.529 490.858L730.976 492.783L729.927 494.257L729.108 495.79L728.391 497.42L726.863 499.726L726.187 501.254L725.302 502.528L723.655 504.154L721.901 505.551L719.14 507.484L718.369 508.123L717.558 508.594L716.55 508.041L716.349 507.439L716.108 506.116L715.886 505.633L714.604 505.231L712.904 505.87L712.621 505.735L712.547 505.432V503.511L712.834 502.97L712.437 502.671L712.043 502.79L711.908 503.281L712.158 503.707L711.191 504.236L710.183 504.248L709.88 504.039L709.794 503.687L710.04 503.105L710.363 502.593L712.236 500.177L714.182 496.977L715.858 493.561L716.292 491.808L716.907 488.564L716.403 487.212L715.78 485.946L714.096 483.513L711.847 482.141L710.392 481.948L709.015 481.436L707.721 480.277L706.541 478.913L704.201 477.795L701.735 476.918L700.329 475.681L699.993 474.948L699.772 474.096L699.805 473.305L699.981 472.502L700.26 471.888L700.698 471.441L703.308 469.848L706.074 468.963L706.582 468.98L707.069 468.836L707.762 468.296L708.999 467.058L709.359 466.227L709.605 463.589L710.003 461L710.72 458.038L711.801 456.207L712.154 455.085L711.715 453.238L712.121 452.562L712.613 452.152L713.17 451.914L712.227 450.186L711.117 447.576L710.884 446.77L711.052 445.971L711.322 445.188L710.63 444.992L710.228 444.242L709.233 441.723L709.503 441.322L710.081 441.592L710.937 443.406L711.076 442.473L711.732 441.895L712.428 441.596L713.174 441.53L711.486 439.507L710.921 439.589L710.175 439.912L709.409 440.109L708.659 439.933L707.958 439.486L707.598 438.634L707.159 437L706.885 436.398L704.664 433.068L705.315 432.961L707.11 434.628L707.458 434.096L707.717 433.33L707.63 432.478L707.205 431.83L706.569 431.413L706.557 430.655L707.04 429.963L707.012 429.479L705.983 428.492L705.574 428.385L705.389 428.844L705.684 429.528L705.41 429.606L702.914 427.812L702.144 426.37L701.513 424.789L701.448 425.432L701.542 426.337L702.529 428.152L704.132 430.184L704.406 430.724L704.168 431.425L703.611 431.626L703.12 431.183L702.386 429.442L701.857 428.574L695.732 419.628L696.515 418.452L697.727 417.461L698.006 417.022L698.191 416.486L697.678 416.396L697.22 416.641L696.695 417.096L696.216 417.612L695.609 418.763L695.323 419.03L694.606 418.231L694.331 417.739L694.343 417.149L694.151 416.777L693.618 416.658L692.836 415.486L692.34 414.888L693.167 413.746L693.188 412.242L692.344 410.669L691.336 409.223L689.394 406.892L687.612 404.431L689.541 404.119L691.5 404.066L690.578 405.541L690.996 406.393L691.619 407.114L692.963 409.325L693.077 409.965L693.757 410.612L694.085 411.108ZM720.225 430.036L720.315 430.811L719.435 430.536L719.09 429.95L718.103 429.344L717.96 429.164L717.849 427.988L718.369 427.419L718.455 427.177L718.685 427.083L719.09 427.701L719.873 428.582L720.225 430.036ZM692.311 503.523L693.635 503.597L694.868 502.483L696.13 501.578L697.453 500.828L699.469 499.111L699.997 498.858L701.305 498.53L701.874 498.124L702.509 498.03L701.936 499.046L701.214 499.386L701.099 499.751L701.505 500.341L700.878 501.164L700.903 502.192L700.157 503.409L701.296 502.909L701.718 502.118L701.501 501.672L701.993 500.787L702.759 500.365L702.456 499.697L702.476 499.169L703.414 499.365L703.878 499.345L704.246 499.136L704.922 499.054L705.057 499.644L705.967 499.57L705.635 500.316L704.943 501.18L704.779 501.704L703.668 502.577L702.927 502.95L704.07 503.044L705.742 501.877L706.733 500.848L706.705 502.135L705.897 503.29L705.209 504.019L704.431 504.248L703.656 504.842L703.279 505.813L703.324 506.46L703.546 506.972L704.336 507.837L703.447 509.508L704.439 509.299L704.98 509.614L705.742 510.577L705.283 511.691L704.963 512.261L703.029 514.616L702.185 515.812L701.198 516.578L701.21 517.836L700.645 518.753L697.76 521.903L697.256 522.587L694.982 527.622L693.532 529.743L692.7 530.468L691.82 531.054L689.709 532.058L688.775 533.213L687.747 534.171L686.661 534.388L686.694 534.815L687.39 535.052L687.935 535.683L687.53 536.392L686.755 536.834L685.952 536.961L685.542 537.416L687.46 537.092L688.001 537.461L688.099 538.243L688.304 538.948L688.767 539.882L690.381 540.48L691.832 540.758L692.114 541.192L692.332 542.688L692.069 543.421L691.746 543.904L691.258 544.076L690.078 544.17L688.894 543.83L688.111 542.925L685.87 543.216L685.272 543.409L684.965 543.245L686.206 542.294L685.559 541.754L685.018 541.553L684.432 541.868L684.039 542.368L683.924 543.187L683.519 543.663L682.904 543.798L682.031 543.114L681.167 542.139L679.897 541.156L680.093 541.762L681.068 543.249L681.556 544.236L680.421 545.027L679.233 545.641L678.233 546.001L677.291 546.567L676.18 547.448L675.57 547.759L673.948 547.779L673.079 548.058L672.792 549.221L672.186 549.962L670.76 550.11L671.276 550.344L671.592 550.716L670.649 554.231L670.444 555.693L670.268 558.2L669.674 560.535L667.982 560.523L668.252 560.936L669.535 561.596L669.293 562.591L667.884 564.414L667.294 565.467L666.72 568.031L665.86 570.403L664.544 573.106L664.532 573.594L664.995 574.286L665.556 574.884L665.589 575.728L665.417 576.175L664.79 576.289L664.241 576.58L661.308 577.326L660.349 578.161L659.558 579.66L658.632 580.955L655.551 583.83L653.74 586.247L653.376 586.94L652.888 587.443L648.926 588.59L646.123 588.762L644.599 588.467L643.128 587.886L642.313 587.689L640.756 588.045L640.076 588.435L638.855 588.05L637.888 588.34L637.601 588.058L637.241 587.349L637.441 586.407L637.175 585.711L636.561 585.239L636.147 584.691L635.676 584.301L634.389 584.15L632.357 584.396L631.685 584.371L630.304 582.065L629.849 581.5L628.206 580.766L627.645 580.869L626.764 582.098L626.244 582.307L623.155 582.438L620.057 582.04L618.918 581.581L618.693 580.521L621.044 577.608L620.348 577.997L618.898 579.181L617.971 579.001L618.861 577.711L618.939 577.133L618.754 576.494L617.545 577.579L616.169 577.723L615.993 576.715L616.115 575.548L616.394 575.216L620.11 574.606L621.45 574.208L622.036 573.581L619.811 573.369L619.672 572.492L619.992 571.792L621.893 570.628L620.492 570.923L618.939 570.821L619.041 569.592L619.447 568.633L621.073 568.605L620.565 567.945L620.487 567.028L620.938 566.966L622.589 568.203L623.781 568.654L623.278 567.724L623.347 567.138L623.663 566.876L624.638 566.692L624.367 566.528L623.454 566.29L622.364 565.586L622.249 564.84L622.29 563.98L623.462 562.796L624.154 563.501L624.974 563.308L624.347 562.755L623.966 561.928L624.224 561.383L626.711 559.191L627.346 561.301L627.494 560.601L627.53 559.937L627.231 559.359L627.276 558.778L627.563 558.278L628.628 557.782L630.013 556.177L631.038 555.431L631.869 555.91L632.439 556.553L632.353 555.914L631.947 555.386L631.837 553.915L633.697 551.638L635.741 549.475L637.704 547.214L638.749 546.395L640.973 545.465L642.399 545.854L642.764 545.78L644.878 544.158L645.755 543.736L646.554 544.314L647.045 544.523L646.55 543.04L646.939 542.36L648.705 541.164L650.917 539.931L652.597 539.419L653.834 538.583L654.58 538.563L654.469 537.932L654.596 537.33L655.236 537.371L655.432 537.133L654.867 536.805L656.69 535.601L657.682 534.27L658.198 533.995L658.669 533.594L659.251 532.676L659.939 532.373L660.578 532.517L661.041 532.967L660.787 532.218L659.968 531.792L660.849 531.144L661.763 530.694L662.652 531.017L663.524 531.542L662.652 530.739L662.508 530.243L663.569 529.67L664.143 529.493L664.946 530.567L664.831 529.715L665.02 528.961L666.155 527.728L667.642 525.696L668.117 526.405L668.195 527.261L668.121 528.297L668.428 527.941L668.531 527.003L668.301 525.352L670.162 522.309L670.53 521.969L670.94 521.764L671.587 521.682L671.387 521.223L670.883 520.781L671.391 519.24L671.694 517.483L672.124 515.796L672.817 514.149L673.575 511.404L674.152 510.831L675.713 510.634L676.398 510.249L677.537 509.262L678.885 507.476L679.606 506.038L680.552 502.331L681.085 498.468L682.617 495.613L684.867 493.553L686.845 491.988L687.657 491.66L689.025 491.562L690.328 491.992L687.902 492.369L687.653 493.299L687.575 494.241L687.853 495.085L688.288 495.839L689.464 496.547L690.84 496.969L691.455 498.567L691.565 500.463L691.754 502.094L692.311 503.523ZM701.501 497.211L699.961 498.092L700.026 497.481L700.325 496.15L701.026 495.478L701.37 495.433L702.075 494.929L701.997 496.044L701.501 497.211ZM621.753 564.877L622.249 566.831L621.196 566.458L620.758 565.864L621.561 564.885L621.753 564.877ZM619.074 572.652L619.012 573.459L618.877 573.864L618.476 573.868L617.878 573.778L617.292 573.405L616.914 573.512L616.603 573.377L617.009 572.467L618.373 571.984L618.898 572.373L619.074 572.652ZM635.155 592.646L635.164 593.313L633.963 593.076L633.987 593.825L634.934 594.223L635.282 594.763L636.266 594.608L636.487 595.415L636.257 596.14L635.602 596.668L633.66 596.934L632.398 597.987L631.308 597.827L631.013 597.922L629.763 599.052L628.366 599.4L627.985 599.314L628.178 598.307L629.218 597.352L629.239 596.435L629.505 595.701L630.501 595.185L630.517 594.235L631.189 593.387L630.78 591.564L630.997 589.93L632.971 589.84L635.155 592.646Z" fill="#EDCCFF"/>
<path d="M467.197 116.485L469.119 117.096L469.77 117.772L469.078 118.079L467.398 118.288L467.005 117.874L465.391 117.456L465.133 116.702L464.329 116.961L464.739 116.432L463.727 115.834L463.412 115.035L463.371 114.712L464.559 115.084L467.197 116.485ZM475.761 115.15L475.593 115.785L475.171 115.572L473.921 115.9L473.265 115.826L472.889 115.256L472.798 114.994L473.884 115.199L473.704 114.568L475.269 114.892L475.761 115.15ZM436.87 105.888L436.706 106.798L435.764 106.527L435.571 106.331L435.727 105.757L436.563 105.733L436.87 105.888ZM438.964 99.5596H439.451L440.267 98.6953L440.976 98.4332L441.438 98.8264L440.684 101.587L440.05 101.169L437.563 100.399L437.485 99.3057L436.837 98.9534L436.436 97.8884L435.612 96.7087L435.456 95.9509L435.924 96.2622L436.448 97.0322L438.624 98.6134L438.538 99.1255L438.964 99.5596ZM432.609 91.7562L434.232 92.7026L435.121 92.428L435.604 92.5837L436.645 93.6815L436.702 94.4844L436.87 95.1726L436.817 95.4757L436.239 95.8853L436.292 95.4184L435.85 95.3282L434.338 95.3487L433.166 95.0578L431.552 94.9801L432.232 94.2509L432.384 93.9519L431.536 92.7803L431.499 92.2233L431.568 91.916L432.277 91.7481L432.609 91.7562ZM430.507 93.4604L430.347 93.747L429.676 93.5381L427.799 91.9365L428.09 90.7486L428.934 90.1341L430.216 90.8059L430.642 91.789L430.769 92.3379L430.507 93.4604ZM456.791 87.2749L457.458 87.447L458.848 87.361L459.306 88.0246L459.941 88.254L460.49 88.553L460.978 88.9872L460.974 89.2535L460.859 89.4828L460.564 89.6917L460.65 90.1588L460.142 90.0891L459.511 90.3349L458.266 89.7901L457.815 89.6672L457.68 89.2002L456.873 88.4178L455.459 87.8566L456.172 87.3978L456.791 87.2749ZM352.833 83.5105L353.041 84.0184L351.37 83.3262L349.772 82.1669L348.965 81.8515L348.424 81.0856L349.415 81.6548L351.144 82.1874L352.833 83.5105ZM439.263 84.6657L439.46 85.4931L438.562 84.6083L438.964 83.6088L439.033 83.0681L438.988 82.7649L438.091 82.2489L438.566 81.405L439.07 81.1183L439.386 81.0363L439.369 82.2284L439.627 82.7609L439.263 84.6657ZM352.792 81.7573L352.292 81.7941L350.264 81.0118L349.747 80.4424L352.12 80.5694L352.73 80.7128L352.857 81.5115L352.792 81.7573ZM403.834 51.191L403.371 51.277L403.171 50.7567L402.093 50.3062L401.02 48.9053L401.036 47.705L401.175 47.361L401.774 47.3447L404.166 48.7291L404.416 49.1715L404.236 50.4865L403.834 51.191ZM495.042 61.0753L494.763 62.1526L494.55 62.3369L494.288 61.9313L493.289 62.3246L492.813 62.7711L492.305 63.0988L491.133 63.0169L490.023 62.722L488.946 62.1771L487.991 61.4767L487.032 60.3749L486.434 59.236L486.729 57.913L486.356 56.7169L484.545 55.8689L484.148 55.5944L483.345 54.4066L482.546 53.8904L481.525 52.85L481.267 52.3993L480.833 51.0804L480.694 50.2857L481.062 47.9713L480.927 46.8161L481.423 46.9268L481.952 47.3814L482.55 47.6969L484.004 47.9099L485.114 48.8315L486.184 50.6297L486.311 51.2196L486.651 51.6457L487.749 52.4117L488.323 52.9033L489.408 54.8654L490.007 55.2832L490.72 55.451L491.379 55.7337L492.481 56.594L493.497 57.5688L494.182 58.5929L494.706 59.6907L495.042 61.0753ZM394.067 46.6646L393.423 46.7301L392.375 45.6405L392.108 45.235L392.211 44.6656L393.546 43.9037L394.411 44.6001L394.591 46.0912L394.067 46.6646ZM479.973 46.6729L479.743 46.7629L479.243 45.3129L479.157 44.2396L479.006 43.449L478.743 42.978L479.497 42.1096L479.809 41.8679L480.378 42.3267L480.464 43.3466L480.898 44.2109L480.567 46.0993L479.973 46.6729ZM380.763 38.5745L379.993 38.9145L379.44 38.6565L379.202 37.9027L379.391 37.1776L380.067 36.6042L380.493 36.4322L380.972 36.8214L381.156 37.5914L380.763 38.5745ZM448.564 33.6549L449.162 33.8843L450.882 32.6882L451.804 33.5238L452.98 33.9293L454.201 34.1587L453.718 35.8792L453.861 36.6738L454.177 37.4644L454.136 38.6318L453.574 39.6723L452.497 41.192L452.013 41.4705L451.448 41.6344L449.686 41.7573L449.346 42.5642L449.461 43.4204L450.411 44.5427L451.173 45.8044L450.415 46.9636L449.166 47.7747L447.982 48.1885L446.019 47.9427L443.95 48.0451L443.561 48.4875L443.553 49.2206L443.262 49.7778L442.885 50.2857L441.836 51.3384L440.66 52.2683L439.058 53.149L438.521 53.3579L437.099 53.4972L435.825 54.0051L435.256 54.5007L434.637 54.9021L433.285 55.3405L431.97 56.2088L431.449 56.3563L428.717 56.508L424.808 56.5489L423.652 56.639L422.53 56.5202L421.911 56.1802L420.584 54.6196L419.428 54.083L418.166 54.0993L416.486 54.6524L416.171 54.5295L412.82 52.2232L411.804 51.6579L410.718 51.2401L409.394 50.9453L408.145 50.4824L407.407 49.3845L407.493 47.9549L408.497 47.1153L410.025 47.5289L410.611 47.5248L411.185 47.2873L411.861 47.365L412.541 47.574L415.02 47.2626L416.454 47.6969L417.851 48.2786L419.154 48.4015L420.494 48.2786L422.288 47.6232L422.858 47.7092L424.587 47.7133L426.098 46.8366L426.664 43.3016L427.049 42.0973L427.565 41.8352L427.934 41.9088L428.487 42.511L427.778 43.2606L427.467 43.8382L427.365 45.2473L427.754 46.6155L428.639 47.7009L429.966 47.8402L431.183 47.1234L432.507 46.9719L433.727 47.6682L434.981 47.5494L435.555 47.0948L436.223 46.8981L436.886 46.8244L437.489 46.554L438.288 45.3701L438.82 44.0389L439.615 42.9902L441.783 41.2411L442.409 41.0241L443.085 40.9052L444.61 40.9831L445.745 40.3605L445.831 38.9595L445.667 37.5382L444.372 34.1997L444.286 33.6713L444.47 33.0774L444.847 32.5448L446.122 32.5366L447.449 32.7291L447.974 33.233L448.564 33.6549ZM468.611 31.3938L468.509 31.6641L467.833 31.3528L468.39 30.767L468.656 30.7261L468.611 31.3938ZM457.246 20.3421L456.967 21.3456L456.262 20.7557L455.783 19.9078L456.086 19.531L456.877 19.3057L457.246 20.3421ZM450.674 18.216L450.551 18.7937L450.19 18.7608L449.203 17.6303L449.01 17.3354L449.244 17.0527L450.391 17.8843L450.674 18.216ZM449.043 16.8725H448.768L448.727 15.959L448.916 15.4797L449.555 15.8156L449.662 16.6308L449.043 16.8725ZM358.946 28.1413L360.396 28.1741L361.85 27.9979L362.449 28.0758L363.039 28.2561L363.576 28.6001L363.846 29.2596L364.751 30.1772L366.03 30.5908L367.247 31.4224L368.34 32.4137L369.143 33.4133L370.057 34.2571L371.438 34.6135L372.892 34.6707L377.866 39.6887L378.108 40.4628L378.165 43.7563L377.616 46.3287L378.854 47.1193L380.542 47.4143L382.91 47.9632L385.188 48.7824L392.444 52.256L393.44 52.551L394.903 52.6656L396.378 52.6165L396.906 52.7926L398.012 53.4234L398.565 53.8372L399.557 54.9595L400.442 56.1802L400.823 56.5284L401.269 56.7988L401.528 57.4623L401.872 59.5104L401.769 60.7885L401.364 61.2637L400.204 61.4931L396.14 61.7102L393.419 61.4725L391.514 62.7629L391.461 63.3282L391.596 63.8526L393.251 66.5929L394.226 69.0262L395.034 70.0134L396.242 70.8161L397.32 71.7665L398.311 72.8602L400.372 74.765L401.491 75.4736L402.806 75.9079L404.994 77.3866L405.285 78.0379L405.908 80.0942L406.178 81.4911L406.219 82.0686L406.375 82.5848L408.3 83.8546L408.726 84.2069L409.583 87.0251L410.242 88.3359L411.353 88.7988L412.643 88.7701L416.155 87.9304L416.663 87.9017L417.314 88.0943L417.884 88.553L418.072 89.8229L417.519 91.1582L417.367 92.4403L418.06 93.4931L419.85 94.3123L420.506 94.5377L423.726 94.7998L424.992 95.021L426.234 95.3773L426.66 95.6969L426.361 96.2622L425.713 96.5407L424.976 96.6513L423.792 97.061L423.812 97.79L424.48 98.5479L425.091 99.4614L425.603 99.7931L426.16 100.018L427.553 100.334L428.909 100.768L429.802 101.198L430.724 101.509L432.732 101.706L434.207 102.292L436.305 102.046L434.49 102.996L433.863 103.23L431.671 102.874L431.257 103.242L432.162 104.25L433.502 104.926L433.982 105.319L433.646 105.778L432.084 106.699L431.433 106.835L430.216 106.908L428.176 106.511L426.729 106.003L426.324 105.311L425.939 104.905L424.636 103.93L423.706 103.398L422.526 103.218L421.293 103.226L419.088 102.661L414.307 102.259L413.168 102.013L411.734 101.235L411.058 101.124L410.333 101.37L408.485 101.522L407.944 101.452L406.625 100.789L405.268 100.543L404.699 100.743L404.125 100.789L402.269 100.313L400.872 100.113L399.725 99.449L399.102 98.8306L398.397 98.2817L397.746 96.8684L396.734 95.529L395.472 94.427L392.776 92.6493L392.235 92.2069L391.178 90.5807L391.236 89.4992L391.621 88.4097L391.039 88.7824L390.383 88.7332L388.548 88.0123L387.79 87.1562L386.565 84.8296L385.782 83.6006L383.951 81.4296L383.422 80.1434L382.652 79.0169L382.181 78.599L381.787 78.1157L381.439 77.489L380.919 77.0548L378.362 76.0921L377.916 75.7891L377.42 75.6293L375.519 75.531L374.417 75.3712L372.343 74.5806L371.27 74.343L369.983 74.1915L368.734 73.8925L368.127 73.5976L367.718 73.1019L367.476 71.9262L366.427 72.0532L365.403 71.8485L364.411 71.4347L363.399 71.1848L362.707 71.5412L362.494 72.4793L362.174 72.5284L361.58 72.3359L361.285 72.4506L360.642 72.8807L360.13 73.4664L359.179 73.3763L357.233 72.7865L356.364 72.4178L355.627 71.7501L354.996 70.9923L354.357 70.3942L353.57 69.9601L354.57 70.9923L356.877 75.5351L356.299 75.6211L355.705 75.5065L356.25 76.3789L355.623 76.51L355 76.5018L353.689 76.125L352.386 75.998L352.001 76.1822L352.275 76.51L352.734 77.4767L353.099 78.4885L351.214 78.9432L349.28 79.2217L347.129 79.7665L344.954 79.8034L343.839 79.4921L342.696 79.3159L341.614 79.4921L340.57 79.8894L339.689 79.8239L339.132 79.1111L338.873 78.5745L338.541 78.1075L337.718 78.1812L336.923 78.4353L338.283 78.4639L338.693 79.0619L339.045 79.7829L340.008 80.4383L341.168 80.0491L343.72 80.1556L346.199 81.2984L346.789 81.4296L347.33 81.6548L348.608 82.7814L349.571 83.8055L350.382 84.9769L350.554 85.4357L350.497 86.6647L350.251 87.2749L348.649 88.1393L346.941 88.7947L344.421 90.0686L341.983 91.5187L340.701 91.2361L339.545 90.4659L339.099 90.257L337.907 89.8392L337.181 89.6876L334.297 90.0154L331.408 90.1833L330.187 90.171L329.007 89.9252L327.709 89.4706L326.422 89.6712L325.541 90.2038L324.578 90.2856L322.776 89.0978L322.771 88.9462V81.9006L322.767 79.5535V70.1771L322.763 67.8341V63.5699L322.124 62.8203L321.468 61.6692L321.608 60.1905L322.403 58.3635L322.759 57.1429V51.4777L322.755 49.1429V39.8198L322.751 37.489V28.1823L322.747 25.8557V21.2022L322.743 18.8797V14.341L323.087 14.3452L324.251 14.3574L325.185 14.5458L330.945 17.0282L332.666 18.0235L333.256 18.257L333.834 18.2653L334.387 18.3799L336.985 19.7521L340.865 21.1367L344.962 22.4639L346.232 22.7425L347.547 22.8571L350.399 23.3159L351.902 23.7255L354.103 25.3517L355.213 25.8557L356.254 26.7732L357.725 27.7604L358.306 28.0103L358.946 28.1413ZM460.638 38.9186L459.786 39.791L459.257 38.976L458.577 38.2632L458.04 37.534L457.356 35.961L457.323 35.1705L457.504 34.3308L457.545 33.4829L457.217 31.7624L456.414 30.1936L453.623 26.4537L452.747 25.4746L451.743 24.5981L451.1 24.3851L449.801 24.1762L449.223 24L448.15 23.3896L447.154 22.6809L444.683 20.5714L443.38 19.9734L442.692 19.2361L438.804 16.8602L437.669 16.299H436.284L435.117 15.832L436.042 15.5371L436.235 14.7424L436.03 13.9355L437.984 15.2545L440.045 16.4055L440.644 17.3354L441.66 17.3927L443.508 18.1628L444.778 18.8551L445.974 19.6539L447.322 20.7967L449.92 21.6938L450.288 22.0215L451.604 23.5125L453.328 24.7783L453.919 25.4746L461.232 31.4675L462.469 33.147L462.564 34.2939L462.322 34.7445L461.552 35.7153L461.564 36.8622L461.306 37.8904L460.638 38.9186ZM431.556 14.9472L429.262 15.103L428.438 14.9308L427.7 14.2714L427.033 13.2432L426.361 13.0016L426.09 12.8008L427.713 12.0144L429.151 11.7768L431.474 12.7598L431.712 13.2513L431.732 13.5709L431.667 14.6154L431.556 14.9472ZM402.122 10.6216L401.749 11.2237L400.88 11.1705L400.495 10.9943L401.122 10.8797L401.376 10.384L401.647 10.2079L402.122 10.6216ZM392.813 6.93082L396.648 7.67224L396.902 7.66411L396.857 7.39785L396.922 7.32409L397.152 7.51661L397.078 8.05739L396.476 8.19252L395.91 8.13927L395.509 8.42191L394.411 9.46648L393.673 9.29447L392.772 9.52786L391.191 9.54836L389.138 9.08958L388.572 9.47873L387.843 9.37222L387.118 9.79825L386.819 9.77775L386.642 9.15509L386.655 8.83569L387.515 8.56942L387.388 7.59036L388.081 7.09883L389.277 7.13983L390.392 6.80793L392.813 6.93082ZM423.841 2.27752L423.812 2.6913L422.985 2.48228L422.755 2.54791L421.313 1.35171L421.338 0.622665L421.719 0L422.317 0.0982563L423.378 0.880681L423.841 2.27752Z" fill="#EDCCFF"/>
<path d="M512.62 68.4814L512.984 68.887L512.095 69.5751L510.923 69.2025L510.665 68.8133L510.637 68.6085L509.817 68.7396L508.191 68.3996L505.921 66.7528L503.52 63.652L501.213 61.9356L500.783 61.4031L500.725 60.5183L501.037 60.1784L502.471 60.5471L504.327 61.9644L507.371 63.4349L508.199 64.1845L508.727 65.9828L509.244 66.5194L510.887 67.8998L511.755 68.2234L512.214 68.2849L512.62 68.4814ZM493.682 65.7984L492.527 66.0729L491.814 65.7043L492.13 64.8276L492.523 64.3729L493.969 65.1799L493.682 65.7984ZM540.124 82.3637L540.145 82.63L538.6 81.6674L537.428 80.4876L534.089 79.2055L533.372 78.546L532.77 78.4641L531.057 77.3909L529.373 76.6658L528.349 75.7319L528.087 75.3509L527.472 75.1215L526.415 74.0974L525.387 73.4175L525.022 72.1763L524.03 71.3242L523.78 70.9516L526.964 71.6398L528.439 72.9997L529.701 73.7698L530.139 74.3268L531.274 75.0929L532.294 75.1625L533.315 75.9325L534.245 76.1374L534.978 76.5388L539.71 79.9755L539.145 80.8891L539.772 81.5527L540.124 82.3637ZM503.43 75.31L503.208 75.4698L502.823 74.8471L502.545 74.6546L502.553 73.9623L501.393 72.8358L501.299 72.0575L501.971 71.2956L502.877 71.738L503.774 72.6966L504.827 73.0079L504.61 73.6428L503.663 74.7856L503.43 75.31ZM508.998 77.4441L508.744 77.6161L507.49 77.5506L506.539 76.3586L506.548 75.4779L507.297 74.671L508.203 74.5276L508.699 74.8389L509.158 75.5148L509.325 76.3749L509.223 77.1369L508.998 77.4441ZM502.463 78.1773L502.323 78.4641L501.725 77.0386L501.754 76.3217L501.856 75.8629L502.078 75.7237L502.561 77.3089L502.463 78.1773ZM515.799 78.9925L516.52 79.9347L517.352 82.0401L517.2 82.7651L516.606 82.8061L516.438 83.2608L515.635 82.2367L514.562 81.9623L513.779 81.3355L513.513 80.0944L513.435 79.312L512.82 79.1769L511.059 79.3735L510.497 80.0412L509.694 79.8282L509.522 79.226L509.645 78.6361L510.719 78.0544L510.94 77.3049L512.005 76.0187L512.665 75.7974L513.91 76.2603L514.062 78.0913L514.508 78.6893L515.799 78.9925ZM550.134 79.8199L552.985 83.2608L552.875 83.8712L552.485 84.2645L552.375 85.4195L552.735 85.8619L553.514 86.0667L554.837 87.2998L555.366 88.8112L555.415 89.2741L555.968 89.9582L555.989 91.4042L557.246 93.4113L557.357 94.3781L557.242 94.8122L556.718 94.5584L555.214 92.2807L553.493 91.2977L553.296 90.8757L551.559 89.5485L550.396 87.3161L549.134 83.3509L549.728 82.4128L548.306 80.4917L548.376 79.9797L548.974 80.0984L549.392 80.0739L549.593 79.8446L550.134 79.8199ZM537.924 82.0606L537.375 82.2163L536.56 81.7903L536.207 81.4052L536.375 80.8031L536.85 80.5737L537.391 80.9792L537.449 81.3929L537.924 82.0606ZM511.493 84.4365V84.6043L510.858 84.2808L509.461 82.7201L509.711 82.1998L510.993 81.1881L511.386 81.0529L511.747 81.6797L511.436 82.6053L511.014 82.8389L510.841 83.7073L511.493 84.4365ZM519.761 84.0964L518.63 85.0099L517.803 84.7027L517.135 83.9203L517.356 82.9781L517.479 82.7284L517.811 82.6751L518.143 82.4825L518.503 82.0647L519.736 82.3965L520.04 82.6259L519.306 83.2035L519.552 83.3878L519.712 83.6623L519.761 84.0964ZM520.826 85.6858L520.568 85.7308L520.302 85.272L520.929 84.0268L521.232 85.0304L521.429 85.4073L520.826 85.6858ZM514.439 84.9607L514.414 85.3663L513.754 85.2393L512.288 84.629L512.234 84.3505L513.07 84.248L513.677 84.3258L514.185 84.6822L514.439 84.9607ZM532.184 89.1758L532.032 89.2045L531.491 89.0611L530.836 89.016L530.434 88.6146L530.909 88.0412L531.508 87.6684L531.782 87.7626L532.04 88.0043L532.643 88.0944L532.708 88.8317L532.184 89.1758ZM543.447 87.6929L544.111 87.8568L544.43 87.8322L545.188 88.4548L546.2 89.3724L545.786 89.8476L544.963 89.6018L544.688 89.7002L544.602 89.6345L544.43 89.1758L543.533 88.7211L542.73 88.6842L542.627 88.1436L543.447 87.6929ZM538.645 90.9004L541.177 92.76L542.267 92.588L545.594 92.6207L547.556 93.9479L548.708 94.5584L549.355 95.7462L550.154 96.0166L550.646 96.6229L550.928 97.7288L550.728 97.9091L549.711 98.3227L548.974 98.4949L547.044 98.1016L545.201 97.2495L541.534 97.1472L539.825 96.9055L539.235 96.5819L538.69 96.1476L537.83 95.1154L537.158 93.9029L537.047 93.1901L536.99 91.8384L537.199 91.3428L537.899 90.8511L538.645 90.9004ZM559.311 94.9884L559.438 96.2296L559.381 96.6556L558.508 95.7462L558.098 96.0698L557.718 95.6397L557.746 94.6976L557.808 93.6939L557.635 92.9321L557.201 91.8343L557.689 92.0104L559.311 94.9884ZM561.241 103.82L562.687 104.504L563.531 104.389L564.781 104.86L565.727 104.594L566.321 105.2L567.817 107.572L567.829 108.342L568.808 108.891L567.981 108.994L566.83 108.711L565.936 108.903L565.002 108.445L563.429 108.207L562.061 107.654L559.201 105.905L559.217 105.032L558.754 104.606L558.619 103.525L557.594 103.185L556.398 103.12L556.304 102.607L556.525 101.702L557.418 101.714L558.492 102.091L560.54 103.41L561.049 103.636L561.241 103.82ZM612.038 108.125L611.12 108.326L610.829 108.268L610.141 108.375L609.4 109.215L608.854 109.096L608.428 109.129L608.105 108.44L608.096 108.105L608.621 108.158L608.895 107.486L609.461 107.15L610.78 106.995L611.952 107.216L612.37 107.367L612.001 107.974L612.038 108.125ZM548.138 120.238L547.339 120.639L546.606 120.439L546.049 120.135L545.598 119.238L544.623 118.677L543.234 118.444L542.664 118.054L542.517 117.862L541.554 117.69L541.279 117.202L541.362 116.699L541.517 116.432L542.406 116.678L546.68 119.046L547.696 119.779L548.138 120.238ZM621.195 118.689L620.179 118.878L619.774 118.833L619.102 117.825L619.602 117.596L620.347 117.682L620.573 118.276L621.195 118.689Z" fill="#EDCCFF"/>
<path d="M627.629 144.955L627.461 145.07L627.194 144.98L626.514 143.554L626.686 143.079L627.543 142.624L628.305 143.415L628.378 143.853L628.37 144.226L628.256 144.549L627.747 144.685L627.629 144.955ZM628.731 149.121L628.251 149.719L626.957 149.522L626.649 149.363L626.735 148.371L627.059 148.031L627.833 147.724L628.895 148.212L628.731 149.121ZM619.086 155.802L619.828 159.714L620.688 159.706L621.126 159.497L621.634 158.579L621.864 157.141L622.31 156.937L622.876 157.092L622.63 157.551L622.794 158.702L623.228 159.341L623.515 159.456L624.097 162.467L624.314 163.097L624.302 163.605L623.085 164.732L621.278 164.699L620.004 165.375L619.229 165.33L619.233 164.568L618.545 163.962L617.767 162.663L617.959 160.357L616.57 156.085L616.558 155.015L617.033 153.623L617.496 153.557L618.127 154.721L619.086 155.802ZM635.684 161.737L635.483 162.471L635.008 161.619L634.704 158.038L634.827 157.707L635.077 157.682L635.659 160.173L635.684 161.737ZM632.484 163.007L631.714 163.552L630.288 163.499L629.759 163.192L631.509 161.537L633.533 161.197L632.484 163.007ZM635.954 169.352L635.761 169.365L635.565 168.82L634.917 165.911L635.344 163.314L635.61 163.863L636.581 168.423L636.45 169.168L635.954 169.352ZM624.523 166.428L624.314 166.735L623.093 165.965L623.372 165.223L624.699 165.49L624.523 166.428ZM626.752 170.843L627.28 171.101H627.567L627.739 171.679L629.386 172.834L629.837 172.801L630.218 173.432L630.927 173.752L631.119 174.395L631.623 175.05L630.742 175.845L629.034 175.632L628.059 176.533L627.174 176.304L627.018 175.829L627.141 175.669L626.613 174.46L626.375 172.617L626.018 171.532L625.629 171.069L624.834 171.474L624.511 171.544L623.74 170.655L624.105 168.849L624.298 168.332L624.916 168.234L625.859 168.709L626.752 170.843ZM636.917 173.707L635.602 173.83L633.754 173.457L633.008 172.941L632.689 172.425L633.328 172.04L634.246 171.859L635.389 170.675L635.786 171.126L636.212 172.453L636.671 172.855L636.929 173.256L636.917 173.707ZM638.642 178.979L638.986 179.155L638.793 179.65L637.216 179.085L635.942 179.306L635.585 179.282L635.208 178.827L634.93 177.922L635.057 177.291L635.589 176.849L635.79 176.779L636.192 177.324L636.556 177.696L636.909 177.856L637.712 178.745L638.642 178.979ZM638.63 188.109L639.773 189.817L640.227 189.952L639.535 191.177L638.093 191.284L636.392 190.968L637.015 190.546L636.691 190.071L636.179 189.977L635.589 190.202L635.319 190.124L635.696 189.338L636.638 188.228L636.917 188.142L637.171 188.13L637.421 188.228L638.63 188.109ZM648.852 204.928L648.319 205.514L647.856 205.449L644.857 204.097L644.984 203.54L644.861 202.118L645.189 201.348L646.017 201.033L646.66 201.197L647.053 202.331L647.951 202.794L647.324 203.184L648.418 204.04L648.852 204.928ZM650.655 212.191L650.048 213.51L649 213.203L648.02 212.248L647.508 211.417L647.852 209.823L648.352 209.545L648.877 209.635L649.143 211.192L650.655 212.191ZM655.313 220.044L654.908 220.715L654.285 220.707L653.486 220.232L653.638 219.638L654.547 219.532L654.809 219.573L655.313 220.044Z" fill="#EDCCFF"/>
</svg>
