<svg width="817" height="600" viewBox="0 0 817 600" fill="none" xmlns="http://www.w3.org/2000/svg">
<path d="M498.138 575.09L498.805 575.718L499.238 576.627L499.595 578.302L499.809 579.843L498.462 580.823L497.253 581.218L494.829 584.971L494.325 586.156L493.915 586.651L493.787 587.165L493.834 587.678L493.206 589.477L492.654 591.689L492.302 592.593L491.606 593.287L490.725 593.639L490.154 593.692L489.635 593.882L488.355 595.086L486.912 595.989L487.155 596.403L487.169 596.798L486.536 597.236L485.836 597.15L483.803 597.507L483.06 598.183L482.299 599.429L482.008 599.6L480.78 599.891L479.847 600L478.252 599.12L477.462 598.863L475.357 598.506L473.305 597.911L471.867 597.231L468.921 595.566L468.578 592.555L468.073 590.928L468.04 590.347L468.235 585.328L468.44 584.776L468.816 584.296L470.116 583.173L471.606 582.284L473.743 580.419L475.296 579.567L476.595 578.34L475.833 578.392L475.272 578.235L475.824 577.184L476.419 576.622L477.109 576.318L478.49 576.537L479.766 576.318L480.708 575.385L481.604 575.185L485.013 575.49L487.374 575.062L488.554 574.201L489.112 574.167L490.854 574.41L491.502 575.304L491.444 574.705L491.521 574.12L491.84 574.182L494.12 575.29L494.125 573.934L494.253 573.577L494.963 573.011L495.32 573.021L496.205 574.115L497.067 574.753L498.138 575.09ZM491.411 559.481L491.906 559.976L493.23 559.629L493.473 560.257L493.463 560.552L492.992 561.275L491.897 560.718L490.806 560.847L490.016 560.799L489.802 560.457L490.407 559.753L491.411 559.481ZM521.591 551.689L520.281 551.989L520 551.927L520.457 551.189L521.643 550.68L521.591 551.689ZM523.547 552.231L523.29 552.517L522.9 551.998L522.79 551.256L522.509 550.856L523.152 550.352L523.438 549.795L524.199 549.905L524.514 550.071L523.843 550.652L523.685 550.899L523.547 552.231ZM533.769 534.99L533.878 535.656L532.836 534.643L532.536 534.586L532.041 534.205L531.75 533.568L532.56 533.544L533.302 534.301L533.769 534.99ZM595.604 510.466L595.156 511.346L594.366 511.199L594.342 510.576L594.18 510.395L594.399 509.814L594.542 509.653L595.437 510.147L595.604 510.466ZM617.489 496.394L616.495 497.074L615.876 496.751L615.866 495.837L616.18 495.014L615.818 494.419L616.171 493.716L616.909 493.506L617.175 493.949L617.589 494.182L617.718 494.424L617.723 494.886L617.328 495.647L617.637 496.061L617.489 496.394ZM636.6 457.279L635.433 457.64H634.995L635.033 456.546L635.986 455.504L636.371 455.852L636.59 456.394L636.6 457.279ZM648.907 433.116L648.859 433.401L647.721 432.407L647.174 432.245L647.435 431.679L648.202 431.537L648.811 432.783L648.907 433.116ZM652.001 429.852L651.873 430.561L651.516 430.461L651.04 429.201L651.297 428.892L651.973 428.968L652.001 429.852ZM650.559 428.763L650.363 429.063L648.711 428.183L646.921 427.997L646.302 427.222L646.193 426.004L648.078 426.056L650.401 427.155L650.902 427.716L650.559 428.763ZM644.765 405.128L643.669 405.576L640.194 404.239L637.738 402.769L636.271 400.985L636.062 400.247L637.771 400.371L639.442 401.013L639.813 401.993L640.489 402.303L640.946 402.873L644.041 404.201L644.517 404.6L644.765 405.128ZM666.503 0.623273L667.108 0.689912L667.441 0.685121L668.084 0.237956L669.859 1.0324L673.254 3.39207L675.382 4.43869L676.263 4.18187L677.215 4.83359L678.258 6.39403L679.548 7.31217L681.871 7.73552L684.175 9.43867L685.104 9.53391L685.427 8.57759L686.289 8.03053L687.679 7.88782L689.693 8.72988L692.326 10.5519L693.978 11.3512L694.649 11.1324L695.354 11.4701L695.921 12.3217L695.973 13.373L695.778 13.9344L696.411 14.8193H697.139L698.33 15.2427L699.263 16.8031L700.101 17.5263L700.686 18.1494L700.791 18.668L700.843 19.1914L700.672 19.5957L700.353 20.2665L700.253 20.9848L700.658 21.7936L702.138 22.3787L702.638 22.983L702.753 23.7536L703.214 24.6053L704.223 25.59L704.604 26.4129L704.371 27.0743L704.671 27.6261L705.166 28.059L705.271 29.6243L705.314 30.5234L706.128 31.532L706.295 33.5966L706.861 35.8754L708.77 38.9915L709.403 40.6756L709.242 42.6736L709.518 43.6109L710.389 44.0629L710.803 44.905L710.755 46.1371L711.094 46.903L711.37 47.7166L711.184 48.982L711.46 50.1189L711.908 50.785L712.222 52.0124L712.398 53.5443L713.679 55.961L716.055 59.2626L717.511 61.8222L718.04 63.6394L718.044 65.1332L717.525 66.3036L717.497 67.1552L717.964 67.688L718.102 68.4064L717.916 69.315L718.687 70.3902L721.296 72.2551L720.253 75.1095L719.977 77.1123L720.115 79.215L720.763 80.6946L721.91 81.551L722.625 82.4454L722.905 83.3777L724.286 84.3911L726.762 85.49L729.937 85.6851L733.808 84.9668L736.174 84.8478L737.045 85.3236L737.345 86.0466L737.064 87.0124L737.721 87.6451L739.312 87.9495L740.402 88.5538L741.002 89.4672L741.735 89.7241L742.606 89.3292L743.454 89.3863L744.277 89.8907L744.81 89.7145L745.277 89.1627H746.024L746.791 89.1723L747.267 90.5091L748.038 91.2607L749.104 91.4273L750.728 93.0496L753.994 97.6594L756.117 99.2911L758.246 99.8003L760.893 99.9048L761.75 101.684L761.054 103.563L760.878 105.129L761.478 105.69L762.307 107.526L763.478 108.592L763.702 109.434L764.244 110.376L764.016 112.112L763.011 114.648L763.287 116.808L764.84 118.592L765.735 120.309L765.968 121.955L766.353 122.954L766.901 123.306L768.491 123.183L771.133 122.588L773.066 122.688L774.304 123.492L777.356 123.521L782.226 122.778L785.302 122.55L786.587 122.835L787.73 121.775L788.734 119.363L789.672 118.23L790.553 118.373L791.943 117.598L793.852 115.899L795.509 115.076L797.609 115.162L799.846 115.247L801.246 114.534L802.56 113.045L804.841 111.727L809.701 110L810.868 109.729L811.425 109.824L813.044 110.095L814.482 110.771L815.838 112.127L816.048 112.997L815.896 114.139L815.595 114.8L815.038 115.542L814.515 116.746L814.853 117.683L815.638 119.686L816.286 121.132L817 122.835L816.681 123.444L816.248 124.624L814.919 126.618L814.196 127.379L813.415 128.121L812.068 128.302L811.491 128.473L810.839 128.787L810.43 129.491L809.963 129.986L809.192 130.975L809.13 131.827L809.478 133.092L809.649 134.386L808.778 135.542L808.102 137.317L807.897 137.85L807.564 139.191L807.464 139.658L807.25 142.474L806.378 144.391L805.164 146.617L805.436 147.945L805.65 149.172L805.35 149.767L805.274 150.286L805.098 151.465L804.717 151.917L803.612 152.655L802.951 153.544L803.089 154.891L802.75 156.056L802.246 157.084L801.717 157.755L800.956 158.183L800.451 158.544L800.07 159.848L799.956 160.856L799.599 161.86L799.818 162.883L799.432 163.768L798.347 164.386L797.733 164.753L797.166 164.9L796.08 165.861L795.109 169.148L794.89 171.056L795.114 172.75L793.753 173.811L792.743 174.653L792.11 174.348L791.439 174.063L789.896 173.697L789.125 173.449L787.573 172.897L785.088 172.198L782.66 171.384L781.136 170.956L779.936 170.614L779.027 170.052L778.26 169.049L777.499 169.453L776.794 170.642L775.618 171.346L775.085 172.645L774.614 173.639L773.395 174.967L772.852 175.514L770.467 176.413L769.929 176.713L767.982 176.903L767.32 177.298L766.634 178.135L766.448 178.968L766.934 179.843L767.691 181.594L768.044 182.788L768.558 185.152L770.286 192.54L769.729 193.811L769.21 199.315L769.334 200.304L769.281 201.846L769.315 202.973L769.672 203.254L770.138 203.649L770.376 204.305L770.314 205.314L770.076 206.051L769.71 207.512L769.224 209.619L768.686 210.428L768.334 211.07L768.034 211.513L767.996 213.002L767.796 213.982L766.953 214.329L766.115 214.9L765.12 214.691L764.244 214.805L763.163 215.186L761.226 215.628L760.102 216.218L759.564 216.646L759.193 217.16L759.126 217.655L759.384 217.916L760.474 218.116L761.221 219.039L761.326 220.048L760.555 220.623L760.174 219.99L759.531 219.791L758.336 218.901L757.46 217.921L756.808 216.836L756.836 214.52L756.727 214.172L755.537 213.696L755.184 213.002L754.618 212.674L753.813 212.883L753.208 212.664L752.728 212.284L752.156 212.241L751.661 212.84L751.395 214.129L750.561 216.265L750.485 217.555L750.128 219.391L749.771 221.717L749.471 222.203L748.543 222.274L748.224 222.426L747.734 223.216L747.148 223.349L746.629 222.888L745.815 222.426L745.039 222.365L744.344 222.826L743.525 223.83L743.058 224.639L742.892 225.4L742.763 226.337L741.935 227.231L741.182 227.702L739.626 229.02L739.131 229.567L738.016 229.572L736.802 229.52L735.165 229.876L732.499 230.057L730.904 229.786L728.933 230.038L727.395 230.466L727.176 231.108L727.233 232.06L727.538 232.678L727.914 233.092L728.552 234.367L729.223 235.599L730.237 236.394L730.661 237.25L730.68 238.045L730.199 239.044L729.471 240.347L728.79 241.151L728.28 241.123L727.5 240.657L726.971 240.067L725.709 239.848L722.625 240.224L721.082 239.962L720.344 239.481L719.054 239.448L717.059 238.806L715.84 238.601L715.264 238.192L715.155 237.25L714.583 236.603L714.26 235.828L713.536 234.853L712.841 234.362L712.155 234.158L711.408 234.748L710.608 235.281L710.013 235.162L709.722 235.309L709.399 235.752L708.113 236.656L707.813 237.483L707.304 239.239L706.947 241.042L706.642 241.679L706.123 241.789L705.595 242.331L704.486 244.02L703.481 245.576L702.024 246.627L701.334 247.588L700.981 248.463L699.943 249.686L698.42 249.905L697.206 250.262L696.463 250.357L695.93 250.852L695.54 251.603L695.354 251.903H694.664L693.978 252.54L692.298 253.991L690.926 254.263L689.213 255.228L687.703 255.961L687.075 256.375L686.908 256.832L686.689 257.412L685.961 257.526L685.256 257.498L683.685 258.825L682.89 259.953L679.8 262.35L678.539 263.697L678.215 265.438L678.053 265.309L676.953 266.827L674.792 268.268L670.174 268.592L668.712 267.569L668.184 268.273L667.774 269.22L666.56 269.534L664.67 269.619L663.608 270.243L663.042 270.937L660.447 271.161L659.495 272.089L657.876 272.417L651.13 276.46L649.659 278.159L648.264 280.143L647.288 281.137L646.412 281.832L645.617 282.117L644.836 282.802L644.046 282.888L643.241 282.574L642.341 282.683L641.746 283.511L642.246 284.591L641.97 285.048L640.199 285.633L637.561 286.018L636.447 286.722L636.057 287.122L635.476 287.322L634.914 285.933L634.714 284.096L635.805 283.654L636.809 283.421L642.375 280.88L641.68 278.968L642.175 278.135L643.422 276.779L644.232 276.109L643.793 275.861L640.142 276.308L638.052 276.275L636.976 276.137L637.3 274.976L637.119 273.815L636.866 273.383L638.728 272.06L639.571 271.736L640.213 271.755L640.166 270.956L639.632 269.753L640.208 268.197L643.998 266.365L644.907 264.7L646.426 263.145L649.207 259.272L649.373 258.611L650.183 256.789L650.325 256.061L649.04 254.995L648.53 253.501L644.769 250.799L644.45 248.473L644.098 248.573L643.527 250.2L643.036 250.723L641.294 250.771L640.47 250.157L635.624 249.757L634.438 250.809L633.334 252.431L632.253 253.592L631.167 254.187L630.225 255.243L626.33 261.494L624.859 261.97L617.932 265.733L614.462 267.207L611.791 269.805L610.872 271.375L610.058 273.116L609.562 275.747L607.096 278.939L606.249 279.624L605.387 279.9L604.24 279.8L603.249 280L601.564 279.719L599.498 280.728L597.175 281.598L595.17 279.405L593.737 278.863L591.4 279.472L590.314 280.447L588.067 285.266L587.224 288.021L587.281 289.148L588.591 292.564L590.071 294.472L593.39 296.646L600.445 298.14L602.102 297.607L603.878 297.602L605.749 299.02L606.92 301.361L607.025 302.954L607.063 303.506L607.491 303.977L607.744 304.781L607.001 305.447L606.43 305.78L605.949 308.249L605.921 310.975L606.525 311.879L608.044 313.149L610.391 314.196L612.562 314.42L616.709 313.915L618.404 312.274L618.303 311.565L618.346 310.647L621.998 308.235L624.078 306.094L623.755 305.528L623.355 305.152L623.721 304.933L624.859 304.781L629.935 302.545L633.929 304.372L636.209 306.475L638.466 306.827L640.028 307.902L641.832 308.815L644.184 308.877L646.169 309.068L646.774 308.221L647.397 307.664L648.102 307.773L648.897 308.882L651.154 309.734L653.234 309.691L654.691 309.382L655.558 309.776L654.305 311.194L654.491 313.478L653.534 314.201L652.615 315.362L653.158 316.127L653.639 316.451L653.591 317.379L652.753 317.907L651.201 319.286L650.306 319.263L649.883 318.996L649.583 318.501L649.359 317.707L648.816 317.184L647.312 316.984L645.75 317.174L642.237 319.22L638.804 320.847L635.209 322.136L634.005 322.95L633.148 323.173L631.658 322.559L630.758 322.598L630.568 323.021L631.715 324.153L632.015 325.038L631.896 325.718L631.244 326.018L630.296 325.523L629.43 326.232L629.039 327.426L629.02 330.266L628.449 330.899L626.864 331.246L625.178 332.15L624.579 331.732L624.34 331.223L624.517 329.919L624.307 329.282L623.536 329.315L622.374 329.705L621.488 330.561L621.184 331.08L622.35 332.75L623.459 332.921L623.731 333.297L622.85 334.11L620.655 335.319L620.289 336.332L619.637 337.302L618.742 338.073L618.132 338.887L617.39 339.31L616.175 339.786L614.685 341.727L613.595 343.539L612.3 344.472L611.277 347.526L609.444 349.182L608.767 351.827L609.244 353.449L611.257 353.435L612.262 354.006L614.347 356.137L616.842 357.526L619.432 358.306L622.607 360.271L623.483 361.104L624.231 362.793L625.607 367.645L626.597 370.043L626.664 371.294L628.149 373.649L629.734 377.693L631.563 381.185L631.91 383.93L631.32 385.181L631.325 386.803L633.148 388.292L637.204 390.019L637.852 390.528L638.647 391.365L638.685 393.968L639.313 394.795L639.842 395.3L642.299 396.399L643.327 397.312L644.417 398.768L644.731 400.071L644.865 401.836L643.493 401.898L642.389 401.698L637.995 399.405L636.852 399.343L635.238 399.662L632.939 399.239L630.51 396.694L628.759 395.923L626.878 395.533L622.393 397.721L621.25 397.564L620.922 397.812L620.417 398.187L622.498 398.658L624.583 397.94L626.583 396.879L629.501 397.445L629.992 398.402L630.472 400.014L632.472 401.104L634.043 401.584L636.043 403.011L637.995 405.238L642.132 407.816L643.808 410.252L644.455 411.822L645.036 414.063L643.589 414.786L642.327 414.886L640.351 415.238L638.899 416.032L637.442 417.421L633.267 419.605L632.477 420.97L631.934 422.16L630.915 422.745L628.358 422.188L625.949 422.236L623.221 423.839L622.541 424.491L622.993 424.363L623.421 424.158L624.65 424.401L626.55 423.544L628.406 426.156L632.029 425.733L635.433 423.563L636.752 423.525L637.852 423.858L639.085 424.715L642.36 428.516L644.16 428.93L645.922 429.819L646.898 429.919L647.778 430.186L645.407 431.575L642.346 434.572L640.984 435.285L640.07 436.085L642.536 435.685L644.288 434.253L645.174 433.901L645.883 434.234L646.245 435.999L645.569 441.413L644.707 441.508L643.87 440.038L642.889 439.572L642.065 439.876L640.432 439.867L639.809 440.533L639.285 441.475L640.261 441.67L642.184 443.311L642.379 444.182L641.865 444.748L640.518 444.505L642.156 445.728L641.722 446.993L641.194 447.493L640.242 447.812L639.656 448.906L640.499 450.728L641.351 453.059L641.456 454.182L640.123 453.696L638.042 455.119L636.947 455.238L636.204 453.363L635.257 453.658L634.624 454.201L633.781 456.208L632.753 458.021L631.867 458.516L630.806 458.373L629.93 458.425L630.144 458.915L631.068 459.51V460.205L629.096 462.407L628.777 463.259L628.825 463.982L627.792 464.862L628.349 466.342L628.059 467.383L627.154 468.792L626.202 469.719L625.083 471.223L623.664 472.093L621.793 475.238L621.241 476.808L621.103 478.43L620.517 478.991L619.513 479.695L618.37 479.339L618.332 478.259L617.837 478.164L617.556 477.455L617.47 476.556L617.589 475.828L617.113 476.051L616.818 476.893L616.066 477.578L615.28 477.303L614.433 476.741L614.457 477.55L614.909 478.363L615.104 479.177L616.275 479.353L617.061 480.285L617.68 481.717L617.804 482.255L618.284 482.893L618.351 483.44L617.232 483.944L615.833 484.886L614.152 486.499L612.767 487.574L611.515 487.583L610.758 487.46L609.677 486.841L608.434 486.584L610.101 488.758L611.01 489.144L612.152 489.063L613.262 488.254L614.838 488.34L615.233 489.591L614.814 491.004L613.952 492.835L613.776 494.419L614.842 496.684L614.89 497.364L614.49 497.702L613.238 497.107L612.205 496.356L611.162 496.556L610.081 496.237L608.972 496.503L608.52 497.027L608.825 497.888L609.82 498.601L610.377 499.7L609.71 500.086L606.887 499.829L606.258 500.038L605.416 501.246L605.963 503.035L605.34 504.144L604.178 504.405L602.65 505.3L601.707 505.509L601.755 505.899L602.445 506.289L602.812 506.817L601.978 508.639L600.688 509.239L598.708 508.939L597.151 509.348L595.804 508.573L594.366 508.558L593.39 509.538L593.285 510.676L592.338 510.79L591.828 510.704L591.109 510.785L591.185 511.394L591.595 511.927L593.537 512.165L593.885 512.931L593.961 514.11L591.928 516.142L591.062 517.512L589.757 517.474L588.771 518.573L588.243 520.062L587.591 519.767L586.082 520.005L585.639 520.714L585.991 521.009L586.025 521.518L585.42 523.187L584.763 523.658L584.477 522.973L584.263 521.912L583.734 521.832L582.854 522.807L581.825 523.506L580.945 523.796L580.278 523.149L578.645 522.812L577.979 525.614L576.627 526.632L575.993 526.951L574.889 527.046L575.594 527.431L575.812 528.149L575.417 528.863L574.313 529.006L573.67 529.562L573.422 532.06L572.765 532.935L571.09 533.007L569.837 532.426L569.438 532.883L569.228 533.33L568.571 533.782L567.305 533.901L564.491 535.019L563.201 534.695L561.663 534.272L560.601 534.686L560.249 535.542L559.759 536.208H558.216L556.978 535.385L555.717 534.791L554.322 535.305L553.26 536.351L551.956 536.703L551.713 537.355L551.146 537.678L549.765 537.54L549.242 535.923L548.447 535.685L547.661 536.503L547.38 537.141L547.014 537.626L547.142 538.944L546.366 538.972L545.352 538.164L544.286 538.021L543.291 538.772L542.786 538.587L542.253 538.43H541.382L541.048 538.63L540.41 538.749L539.982 539.158L539.944 539.191L538.82 538.915L537.444 537.821L536.459 536.004L535.207 535.024L534.655 534.163L534.44 532.617L534.212 531.879L534.288 531.061L534.669 530.333L533.321 530.699L532.326 531.38L532.531 532.236L532.283 533.03L530.798 533.444L530.889 533.777L530.989 534.129L532.15 535.214L532.388 536.123L532.86 536.608L533.769 538.021L533.745 540.752L534.245 541.522L534.078 542.288L533.717 543.321L533.683 543.335L533.417 543.021L532.978 543.083L532.802 543.43L532.774 543.744L532.698 543.758L531.927 543.987L531.279 544.182L530.755 544.458L529.932 545.271L528.365 545.471L527.561 543.568L526.48 544.838L526.156 547.431L525.756 547.873L525.085 548.245L523.814 547.341L522.705 547.945L521.838 548.558L521.481 549.125L520.843 549.738L519.62 549.144L518.634 548.254L518.881 547.583L518.743 547.146L518.301 546.812L517.81 546.86L518.053 547.731L518.215 549.396L517.768 549.876L517.077 550.247L515.587 549.943L514.573 549.324L513.34 548.801L512.254 548.706L512.016 549.757L511.312 550.604L510.659 550.709L510.007 550.576L509.15 551.489L508.746 552.155L507.689 552.859L504.88 553.202L503.899 553.896L502.585 553.787L501.566 553.953L500.981 553.915L500.457 553.539L499.867 553.53L499.595 554.691L498.005 555.181L496.577 555.314L494.987 556.846L493.854 557.773L493.011 557.869L492.392 557.54L492.082 556.17L491.768 556.009L491.587 557.298L491.287 558.368L490.707 558.953L488.869 560.285L488.34 561.608L488.693 562.831L491.164 563.13L491.468 563.801L491.23 564.348L490.64 564.805L490.464 565.49L493.115 567.669L493.197 568.492L492.787 568.963L492.292 569.976L490.892 570.832L487.931 571.27L485.46 570.828L484.712 569.852L484.76 569.158L485.374 569.358L486.069 569.296L485.86 568.658L485.565 568.287L484.427 567.721L483.503 566.194L483.679 564.924L483.18 563.939L482.627 563.116L482.075 562.621L481.775 562.008L482.337 560.076L482.027 558.953L483.084 557.574L483.346 556.018L485.231 555.461L485.36 553.977L484.008 553.934L483.07 552.845L482.856 553.306L482.104 553.354L480.866 551.251L480.494 550.985L479.895 550.947L480.194 553.164L478.742 553.996L477.552 554.362L475.867 554.515L474.905 554.772L474.01 554.562L474.229 553.891L474.705 553.092L474.281 552.421L473.329 551.908L471.872 551.936L470.868 551.793L469.868 551.851L469.502 551.551L468.573 550.5L467.787 549.848L467.435 549.196L467.787 548.44L467.492 547.978L465.974 547.926L465.983 549.01L466.14 550.29L466.583 551.261L466.269 551.803L465.498 552.174L464.674 551.146L464.298 550.894L463.903 550.942L463.603 551.965L462.855 552.873L461.513 552.774L460.465 553.335L459.199 553.592L458.337 552.84L456.914 551.632L456.347 551.494L454.766 552.084L452.496 552.303L451.991 551.674L450.896 552.15L449.839 550.699L448.587 550.604L447.025 549.505L446.463 548.92L446.287 548.083L445.811 547.645L445.202 547.702L444.521 547.255L443.445 546.812L442.579 546.551L442.15 546.751L441.698 546.855L441.617 546.294L441.65 544.6L441.569 543.097L441.331 542.417L440.75 541.903L440.227 541.656L439.993 540.88L440.184 539.358L440.612 538.325L441.288 538.14L442.202 537.398L442.669 536.342L443.255 535.362L441.169 533.987L440.074 533.492L438.86 533.701L437.351 534.139L436.565 534.224L436.17 534.053L435.29 532.816L434.814 532.602L433.747 532.521L432.847 532.531L432.333 533.068L431.533 533.249L430.733 533.278L429.924 532.607L428.705 531.732L426.796 531.113L426.563 530.404L426.077 529.553L425.354 528.763L424.154 527.716L423.149 527.174L422.659 527.507L421.992 528.102L419.412 529.353L418.269 529.843L417.66 530.19L417.15 530.714L416.993 532.003L416.741 533.44L415.998 534.167L415.294 534.719L414.556 534.776L413.832 534.753L413.151 534.981L411.076 536.422L410.1 536.308L409.295 535.495L408.952 534.905L408.024 535.038L406.834 535.728L406.281 536.965L405.991 538.121L405.729 538.635L405.329 538.782L404.977 538.806L401.268 535.471L401.04 535.3L400.373 535.985L399.768 537.754L399.335 538.092L399.04 537.954L397.507 535.69L397.112 535.476L396.764 535.552L396.303 536.284L395.331 537.364L394.589 538.021L394.57 538.749L393.76 539.391L392.822 540.033L392.508 540.1L391.884 539.843L391.07 538.991L390.48 538.102L389.018 537.217L387.381 536.47L386.295 535.885L385.676 535.742L385.1 536.004L384.81 536.361L384.4 537.245L383.419 538.692L382.544 539.843L381.729 540.58L381.082 541.089L380.596 540.614L379.701 540.224H378.649L377.264 540.956L376.173 539.491L375.888 539.42L375.469 539.543L374.983 539.891L374.65 540.709L374.298 541.827L373.603 542.559L373.026 542.883L373.193 543.511L373.522 544.191L373.498 544.786L373.707 545.723L374.069 546.66L375.359 548.197L375.854 548.996L375.954 549.691L376.002 552.155L375.95 553.183L375.693 555.162L375.674 556.304L376.211 556.817L376.73 557.431L376.707 557.764L376.478 557.883L375.74 558.563L375.431 558.654L374.945 558.373L374.317 558.164L373.817 557.892L373.26 557.455L371.941 557.502L369.775 558.168L369.327 557.978L369.018 557.602L368.846 556.822L368.951 555.909L368.761 555.323L368.356 554.976L368.646 553.344L367.875 552.697L367.984 552.498L367.728 550.733L367.761 550.295L367.628 550.147L367.085 550.009L366.276 550.285L363.814 551.446L361.7 553.592L360.734 554.068L359.758 554.263L358.61 553.891L357.339 553.649L355.525 554.191L354.63 553.939L354.216 553.501L353.849 552.835L354.073 551.989L353.935 551.365L353.212 551.051L352.369 550.78L351.869 549.967L351.669 549.077L351.864 547.921L351.964 546.679L351.56 546.108L350.326 545.799L347.217 545.233L344.494 544.924L343.352 545.071L342.418 544.933L341.881 544.705L341.619 544.315L341.605 543.754L342.047 542.464L342.547 541.204L343.814 539.367L343.89 538.092L343.823 536.622L344.451 534.657L345.542 533.187L346.08 532.726L345.951 532.069L345.513 531.47L344.89 531.137L343.856 530.752L342.247 530.647L340.038 530.252L337.481 529.377L337.777 527.697L337.734 526.646L337.42 525.78L336.901 525.166L336.606 524.619L337.067 523.116L336.472 521.47L335.772 520.813L335.049 519.962L334.991 519.044L335.32 518.187L337.091 516.346L337.105 515.899L336.668 515.937L336.163 515.975L333.744 516.646L333.482 516.223L332.616 515.98L330.849 515.932L328.783 516.056L326.17 516.713L323.77 517.864L322.68 518.654L321.751 519.144L320.999 519.305L320.128 518.958L320.176 517.831L321.813 515.761L322.047 514.339L321.551 513.116L321.494 512.136L320.918 511.513L320.114 511.208L319.685 510.514L319.657 508.478L320.375 506.38L321.542 505.718L322.251 505.4L322.442 504.99L322.08 503.516L322.137 502.579L322.832 500.766L323.527 499.391L324.841 499.619L325.432 499.277L326.084 498.787L326.793 497.959L327.27 496.974L327.85 494.691L328.245 494.348L329.902 494.729L330.397 494.462L331.302 493.121L332.159 491.484L333.401 490.98L334.296 490.928L334.711 490.385L334.687 489.586L333.835 488.316L333.478 487.302L333.582 486.684L334.801 486.308L335.101 485.571L334.92 483.953L335.42 482.008L335.72 479.729L335.82 478.026L335.806 476.727L335.687 475.362L335.515 472.869L334.958 470.694L335.058 469.876L334.982 467.236L334.639 464.981L333.954 464.586L332.678 463.853L331.983 463.711L331.402 463.977L331.183 464.762L330.621 465.495L329.931 465.314L329.602 464.581L329.159 463.62L327.679 459.048L327.517 457.731L327.255 456.418L326.76 455.761L326.236 455.371L325.056 453.83L324.437 453.187L324.137 453.083L323.489 453.192H322.851L322.332 452.421L321.856 451.479L321.38 451.018L320.58 450.761L319.761 450.861L319.281 451.675L318.957 452.136L318.338 453.221L317.338 454.719L316.881 455.271L316.438 454.986L314.51 453.425L313.582 452.992L312.315 453.463L310.34 453.092L309.578 453.021L307.931 451.774L307.259 451.622L304.922 452.436L304.408 453.011L304.107 453.021L303.484 452.731L302.974 452.345L302.941 452.103L303.574 451.494L303.622 451.066L303.589 450.633L304.498 449.405L306.978 447.027L306.564 446.028L305.588 444.058L305.46 443.102L305.036 442.669L303.851 443.021L301.384 444.81L301.046 444.615L301.108 443.996L300.851 442.193L301.632 441.651L302.832 440.99L303.755 440.252L303.969 439.657L303.717 439.472L302.356 439.705L301.818 439.301L300.927 437.64L300.275 436.989L299.685 436.636L297.676 437.493L295.343 438.668L292.743 440.304L292.758 441.142L292.448 441.356L291.953 441.884L291.467 442.612L291.053 442.869L290.567 442.892L289.577 442.688L287.783 441.86L285.835 441.175L285.416 441.251L282.769 440.766L282.683 440.376L282.284 439.61L281.531 438.915L280.812 438.682L278.741 440.147L276.404 441.237L275.076 442.526L273.98 443.806L272.724 444.053L272.666 444.843L272.138 445.552L271.186 446.427L269.296 447.54L268.015 448.14L263.949 448.687L262.497 449.058L261.888 449.643L261.236 451.128L260.721 452.493L259.598 453.62L257.551 455.124L255.146 456.341L254.485 457.15L254.366 457.631L254.666 457.807L254.961 458.173V458.725L254.651 459.324L253.08 460.371L252.195 460.87L251.314 461.189L250.328 461.246L249.381 461.104L249.119 460.932L248.743 461.151L247.877 461.37L247.124 461.441L245.472 462.602L244.563 462.612L243.43 462.36L241.935 462.16H240.854L240.821 461.546L240.987 459.705L240.497 459.277L239.002 458.825L237.317 458.225L236.508 457.588L236.055 457.374L235.422 457.479L234.408 458.149L233.446 458.939L232.685 459.006L231.904 458.639L231.161 458.154L228.609 457.474L227.467 457.374L225.424 457.488L223.758 457.345L223.496 457.136L223.501 456.755L223.748 456.018L223.891 455.29L223.696 454.876L221.996 454.367L220.444 454.001L218.792 453.863L217.683 454.12L216.597 454.691L215.702 455.718L214.407 456.166L212.86 456.932L212.113 457.645L210.98 459.177L209.332 461.056L207.837 462.888L207.061 464.667L206.033 465.785L204.99 466.589L204.238 468.801L203.453 468.102L202.553 467.098L202.338 465.723L203.405 462.069L203.657 460.547L203.386 459.967L203.053 458.468L202.42 457.973L200.61 457.188L200.034 457.165L199.415 457.707L198.811 458.049L198.006 458.392L195.988 459.034L194.197 459.334L193.769 459.572L193.636 460L193.778 460.509L192.626 460.314L191.422 460.205L190.45 460.276L188.075 461.246L187.27 461.341L186.375 461.242L185.156 461.213L182.838 461.242L180.843 460.994L179.219 459.638L178.072 459.039L176.849 458.577L175.616 458.23L175.206 457.502L174.816 457.136L173.802 457.017L172.997 457.283L172.497 459.115L172.069 459.477L171.05 459.638L169.979 459.172L168.498 458.23L167.917 457.184L167.422 456.846L166.641 457.307L166.598 458.649L166.446 459.548L165.518 459.914L164.98 459.648L164.546 458.725L163.456 456.532L162.376 455.247L161.285 454.391L157.71 454.415L155.058 454.163L153.858 453.811L153.406 452.964L153.844 451.27L154.358 449.948L154.344 449.638L153.906 449.481L153.144 449.377L150.283 450.224L149.502 450.124L149.007 449.833L148.402 449.586L147.902 449.191L147.555 448.616L145.079 447.203L144.351 446.427L143.032 445.457L141.918 444.795L141.213 442.902L140.57 441.08L140.218 440.109L139.157 439.596L138.009 439.205L136.067 440L134.472 440.604L133.301 440.666L131.61 438.796L130.254 436.775L128.649 435.01L127.583 434.12L125.693 434.034L123.564 433.04L120.708 430.775L118.647 429.086L115.095 427.207L114.266 426.418L113.952 425.747L113.467 424.424L112.724 423.168L110.205 422.621L107.358 422.231L104.354 423.002L102.193 426.76L101.15 427.578L100.255 427.626L99.5219 426.67L98.9172 425.666L98.5889 424.553L97.0938 423.73L95.4038 422.655L94.5373 421.817L93.5612 421.294L92.652 421.07L90.9 420.362L88.9148 419.562L87.9814 419.453L87.9149 418.882L88.1959 417.669L88.0244 416.503L87.4244 416.028L86.5198 416.151L84.425 414.496L84.3204 414.41L83.7253 413.939L82.6923 413.264L80.9496 413.311L79.631 413.559L78.6645 412.869L77.2647 411.775L77.0125 411.532L76.5982 411.132L75.1795 409.02L73.5037 406.518L72.6561 406.151L72.2182 406.342L71.7231 407.669L71.3517 407.536L70.7281 407.626L69.995 408.092L69.2903 408.211L68.8379 408.073L68.6475 407.745L68.8474 405.99L68.4188 405.442L68.7998 404.22L69.4426 403.164L68.7856 402.379L67.9763 401.256L67.8856 400.238L68.3238 398.953L68.538 397.854L68.4046 397.45L67.7668 396.836L65.334 393.811L65.2053 393.492L64.7959 392.483L64.6055 390.961L64.2914 389.872L63.92 389.034L63.9485 388.639L64.2295 388.435L65.7481 388.23L67.1525 388.102L68.0762 387.816L68.5572 388.425L68.7809 389.358L69.0235 389.848L69.9139 390.733L70.9995 391.579L72.0514 391.47L72.9798 391.109L73.7844 389.729L74.3511 389.391L75.0127 389.329V389.229L74.9747 388.34L75.208 386.146L75.1272 385.266L74.827 384.472L74.8796 383.587L74.7794 382.303L74.0224 381.422L73.5273 381.085L73.4465 380.609L73.7037 379.729L73.8798 378.716L73.6179 377.969L73.5749 377.854L72.9609 377.469L72.242 376.817L71.3851 375.937L70.9614 375.3L70.2661 374.596L69.4187 373.501L69.2615 371.099L69.1761 368.568L68.8809 367.307L68.4095 365.295L68.4807 364.619L68.7664 364.106L71.1564 362.479L71.6754 361.846L71.7611 361.365L71.6658 360.652L71.2137 359.857L70.2614 359.239L68.8997 358.23L67.6668 357.179L65.5909 356.537L63.0724 355.752L62.4677 354.986L61.8584 353.111L60.8207 350.247L59.7159 347.188L58.8639 345.3L58.8209 344.391L59.3303 342.069L59.2684 341.575L58.8209 341.403L57.9689 341.708L57.2881 342.074L56.7072 341.884L56.169 341.494L56.0598 341.361L56.0168 341.308L55.0076 341.56L52.9842 341.703L52.2842 341.679L51.3035 341.646L49.2753 341.113L46.538 340.395L43.7147 339.396L42.2196 338.601L41.696 338.325L40.4154 337.498L39.5059 336.784L39.344 334.914L38.6824 335.057L37.1304 335.733L35.3401 336.161L34.3501 336.166L33.9499 335.866L33.3548 333.892L32.9216 333.335L32.1169 333.116L31.2411 332.769L30.7983 332.255L30.6983 331.603L31.0889 330.856L31.5506 330.281L31.6314 326.76L31.3315 325.509L31.0793 324.458L30.4365 323.149L29.8367 322.341L28.9321 321.589L27.5275 320.809L26.2754 320.519L24.7614 321.089L24.2805 320.871L23.6473 318.454L23.2428 317.959L20.5529 316.965L19.3339 316.736L17.9295 317.046L17.1298 317.312L16.4871 316.87L15.4825 316.308L14.4969 315.923L13.2735 315.909L12.4831 316.147L12.2832 316.009L11.9023 315.566L10.2741 314.229L10.2169 313.892L12.7115 312.574L14.1828 312.074L14.954 311.675L15.1158 311.76L15.4968 312.369L16.4679 312.769L17.1537 312.659L17.5105 312.355L18.7199 311.627L19.6626 310.78L20.1911 310.086L19.9052 308.991L18.42 307.664L17.4774 306.955L17.1868 306.475L17.4297 305.033L17.7723 303.601L17.5439 303.054L17.2629 302.588L17.1391 301.023L16.4917 299.129L15.7871 298.026L15.5921 296.532L15.554 295.133L16.406 292.935L16.0919 291.984L15.1969 291.137L12.1118 289.605L8.95053 288.592L7.74606 288.63L6.99839 288.568L6.11299 289.462L5.58442 290.633L4.84663 290.737L3.4992 290.243L2.59955 289.491L1.96143 287.926L1.46628 285.909L1.18558 285.276L1.32825 284.729L1.63772 284.244L2.49959 283.787L2.64227 283.321L2.51383 282.745L1.81876 282.017L1.10915 280.99L0 278.854L0.214159 277.674L0.390252 275.975L0.323709 275.081L1.44739 274.848L2.88025 274.386L3.54685 273.62L4.00859 272.84L4.10855 272.355L3.67529 270.485L3.104 269.653L3.04705 269.006L3.32775 268.511L3.70406 267.659L4.42761 265.909L5.13227 264.791L5.51787 264.51L6.37974 264.248L8.48385 263.939L10.7455 263.154L13.4304 260.804L14.3254 260.133L15.4968 259.795L16.3345 259.819L16.4871 259.534L15.9443 258.073L16.0776 257.545L16.3964 257.131L16.8012 256.941L18.6627 257.712L20.0862 257.631L21.8193 257.174L25.5564 254.596L26.0231 254.634L26.3991 254.981L26.8516 256.537L27.3656 259.81L27.6513 260.219L30.2508 260.262L32.0219 259.072L32.7978 258.792L34.0548 258.987L34.7211 258.43L35.4165 258.04L36.2208 259.41L37.2588 258.754L38.3775 257.712L38.9253 256.632L39.6823 255.466L40.2724 253.987L40.5104 252.588L40.801 251.932L41.4295 251.256L42.9766 248.368L44.0907 247.631L45.1475 247.369L47.7613 247.869L49.1183 247.807L53.0984 248.187L54.9361 247.631L56.2216 247.079L58.1069 247.165L60.3398 246.727L63.3153 243.088L63.3534 242.312L63.5341 241.489L64.6102 240.676L65.948 239.929L68.6141 238.145L74.037 235.314L75.9792 234.177L76.7888 234.206L78.7883 233.492L82.2921 232.103L83.2824 230.371L84.2062 230.024L88.3005 229.715L88.5577 229.515L88.7003 229.22L88.4719 227.964L88.2052 226.884L88.5242 226.565L88.8671 226.07L88.8148 225.376L88.1529 223.121L87.8007 220.98L87.5674 219.044L87.6101 218.321L88.1052 217.07L88.748 215.932L91.0666 214.872L92.6043 214.553L92.6662 213.858L91.4237 213.425L90.5237 212.731L90.3668 212.336L90.4095 211.884L90.6191 211.47L92.1806 210.69L93.6519 209.914L95.4465 210.385L95.799 210.086L95.9036 209.31L95.518 208.53L95.1562 207.25L94.3278 206.594L94.2943 205.809L94.804 204.453L94.0994 201.941L93.3328 199.719L92.033 195.904L91.1715 194.8L90.6905 193.035L90.1524 192.108L90.2 190.733L90.2907 189.767L90.1524 187.85L89.9002 185.766L90.1524 183.649L90.6382 182.25L90.5095 181.713L90.7667 181.313L91.4998 181.18L91.8473 180.604L91.4998 180.014L90.2335 179.558L88.8195 178.849L87.1199 178.93L85.3772 179.053L84.5061 178.53L83.7445 177.859L83.7014 177.431L84.749 176.299L86.2057 175.124L88.467 174.605L90.957 173.83L92.2187 173.268L93.8994 172.864L95.8417 172.693L96.8178 172.807L99.3174 172.055L103.25 170.599L106.82 169.377L108.02 168.649L108.915 169.377L109.329 170.98L110.372 171.808L111.405 172.208L112 172.188L113.781 171.565L115.704 171.108L116.461 171.356L117.437 172.174L118.532 172.907L119.104 172.873L119.604 172.307L120.108 171.166L120.427 169.71L120.494 168.168L120.303 167.226L119.918 166.879L118.166 166.323L116.495 165.414L116.304 164.581L116.342 163.987L116.785 162.531L117.875 159.853L118.97 156.147L119.551 153.211L121.384 148.82L122.827 144.225L125.159 137.583L125.55 136.265L125.764 134.158L125.888 133.287L126.702 132.831L128.073 133.278L131.42 134.8L133.967 136.08L135.033 136.513L136.619 136.965L139.071 137.498L140.489 137.341L141.732 137.027L143.389 136.998L145.974 137.393L146.774 137.407L147.769 137.46L148.473 138.107L148.826 139.567L149.359 140.224L150.326 139.981L152.382 138.692L153.696 137.678L155.339 136.208L156.967 136.009L158.695 135.68L159.295 134.952L159.933 133.24L160.995 131.946L161.171 130.3L160.8 129.139L160.062 127.245L160.085 125.966L159.728 122.25L159.252 118.896L159.738 116.189L160.595 113.154L160.928 112.222L161.471 110.999L162.237 109.529L163.313 109.068L166.336 108.754L169.136 108.135L170.564 107.498L172.05 107.112L172.935 106.646L174.459 104.491L175.182 103.249L175.716 99.9477L175.325 98.3588L175.649 96.9506L176.387 96.1228L177.425 95.2903L178.12 95.1475L179.6 94.8954L182.028 94.9811L183.266 95.3854L184.523 95.5757L185.318 95.2759L185.847 94.6432L186.661 94.4435L187.884 94.139L189.146 93.7583L189.841 93.8298L189.984 94.7669L189.87 95.4995L190.113 96.4797L190.612 97.1266L190.45 97.826L189.746 98.2303L189.051 98.7773L188.898 99.5243L189.779 100.452L190.079 101.342L191.555 101.874L192.702 102.474L193.131 103.05L193.002 103.697L192.474 104.391L191.964 105.138L191.898 105.585L192.06 106.109L193.164 106.456L194.445 107.031L196.473 107.774L197.863 109.153L199.244 109.534L199.91 110.875L200.03 112.821L201.443 113.811L203.533 115.186L204.595 115.438L205.304 116.218L206.328 117.16L207.237 117.455L208.318 117.593L210.099 116.718L212.098 116.632L213.189 117.131L214.227 119.015L214.96 119.61L215.393 120.138L216.093 120.642L216.802 120.718L217.859 120.3L218.502 119.467L219.425 119.638L219.773 120.181L219.944 121.108L220.435 122.26L221.606 123.116L223.244 123.625L223.472 124.044L223.701 125.19L224.143 125.985L224.739 127.022L225.305 128.911L225.424 130.471L225.686 131.327L226.443 132.721L227.652 134.948L228.614 136.832L229.728 137.198L230.676 137.793L231.218 139.182L232.223 141.794L232.384 143.497L232.47 144.767L232.799 145.343L232.87 146.061L232.032 148.787L231.323 150.014L231.232 151.047L231.713 152.84L232.375 154.229L232.442 155.557L231.88 156.527L230.913 157.74L230.447 158.435L229.695 159.044L228.543 161.384L228.024 163.968L227.905 165.295L228.342 166.256L229.076 167.312L229.257 168.226L230.461 170.266L230.78 171.527L231.275 171.57L231.804 171.156L233.094 171.128L234.265 171.575L235.389 172.507L236.593 173.002L238.317 172.878L239.235 173.378L240.226 173.787L242.278 173.93L243.815 173.925L246.177 173.939L248.086 174.567L251.443 175.062L253.518 175.024L256.308 174.558L258.017 174.853L263.078 175.547L266.039 176.275L267.915 177.093L269.234 178.387L270.743 180.404L271.943 181.327L275.166 181.884L277.38 184.234L279.108 185.109L282.017 187.379L284.074 188.264L286.535 189.077L290.549 188.73L290.772 189.034L290.463 190.262L290.22 191.941V193.154L290.634 193.773L292.167 194.139L292.891 194.734L293.443 195.875L293.762 196.584L295.052 200.076L297.119 205.219L297.357 207.193L298.061 208.463L300.304 210.476L301.479 211.965L303.232 213.525L303.808 214.967L303.936 216.827L304.379 217.307L307.583 216.879L310.359 216.58L315.339 216.047L322.194 217.017L329.264 217.954L335.515 218.782L338.596 219.187L345.556 220.057L349.427 218.949L352.45 218.083L353.821 218.202L359.601 219.177L362.991 219.7L367.256 220.357L370.218 220.6L372.645 220.585L373.764 220.861L374.845 221.284L375.564 221.903L377.783 225.024L379.025 226.399L381.487 227.436L387.076 228.62L390.17 229.339L393.722 230.162L396.064 231.403L398.759 232.845L402.249 234.71L406.072 233.896L410.185 233.016L412.766 232.464V236.356L416.446 236.665L417.598 236.622L419.226 237.479L420.14 237.117L421.011 236.275L422.102 234.943L423.668 234.358L426.377 232.864L427.039 232.502L431.062 230.376L437.07 227.75L439.765 226.475L440.569 226.189L442.093 225.538L443.121 225.086L444.94 224.724L447.406 224.496L450.101 224.001L456.195 223.068L456.961 222.983L460.384 222.598L461.841 222.236L464.017 222.426L466.859 222.559L468.744 222.797L471.244 222.612L474.681 222.36L477.462 222.398L478.842 222.084L480.88 221.099L482.246 220.319L484.394 219.372L487.06 218.387L488.916 217.493L490.145 216.898L491.635 216.337L492.025 215.614L492.454 215.057L493.244 214.129L494.667 212.398L495.753 210.88L496.286 210.205L497.505 208.687L498.491 207.54L499.747 205.994L500.804 205.495L502.147 205.071L505.675 203.554L506.375 203.226L506.96 203.159L508.207 201.932L509.265 200.866L509.955 200.071L511.388 199.781L512.121 199.206L512.249 198.454L512.102 197.303L511.412 196.123L510.831 195.09L508.784 193.121L507.698 191.898L506.594 190.324L506.141 188.844L505.384 187.902L505.023 187.065L505.137 186.099L506.189 184.377L506.522 183.287L506.96 181.361L507.946 178.473L508.75 177.117L509.679 175.795L511.645 174.015L513.445 173.687L514.516 174.039H516.91L518.505 174.134L519.681 175.024L520.981 176.779L522.452 177.421L527.032 178.796L528.989 179.087L530.389 179.148L532.46 179.6L533.155 179.7L534.216 180.01L535.092 179.676L536.421 178.502L538.092 177.184L538.811 176.879L540.139 176.308L540.806 175.771L541.972 174.286L543.486 173.135L545.333 171.403L546.242 170.1L546.442 169.258L546.642 168.344L547.214 167.864L548.337 167.422L549.604 167.303L552.013 168.087L555.269 167.864L555.998 167.75L558.964 167.298L560.301 166.927L562.187 166.57L563.634 165.114L565.572 163.378L566.981 162.412L567.919 162.226L569.09 161.223L569.666 160.143L569.514 159.191L569.295 158.406L569.985 156.946L571.232 154.386L572.394 153.192L573.356 152.227L573.97 150.671L574.727 150.224L575.655 150.052L576.965 148.996L577.926 148.782L579.526 149.286L581.892 149.415L583.401 149.467L584.263 149.277L584.577 148.711L584.568 147.835L585.049 145.885L585.23 145.243L585.663 144.943L587.12 144.905L588.1 145.604L588.776 146.185L589.714 146.261L590.681 145.88L591.971 144.301L594.123 143.382L595.265 143.149L597.294 142.403L598.574 142.674L600.926 142.893L601.836 142.702L602.826 142.893L603.726 141.822L604.44 141.565L605.954 142.06L606.906 142.888L608.687 143.925L610.957 144.41L612.857 144.163L614.809 144.6L615.961 144.562L616.509 144.153L618.108 143.283L618.489 142.103L618.332 140.966L618.518 139.677L618.047 138.725L617.056 137.317L616.671 136.375L616.637 135.143L616.018 133.968L614.533 132.55L613.557 131.893L611.548 129.439L610.867 128.863L610.634 128.459L610.4 127.636L609.658 127.241L608.682 126.599L608.158 125.942L607.815 124.8L607.611 124.053L606.749 123.435L605.887 123.088L604.916 122.65L603.307 122.008L602.378 120.728L600.741 118.325L599.812 117.517L596.356 117.208L595.113 116.622L593.709 116.822L592.871 117.208L591.014 117.203L590.052 117.441L588.829 119.025L587.205 121.08L585.867 122.331L584.915 123.63L584.473 124.096L583.606 123.815L582.416 122.355L580.716 121.047L579.14 120.452L578.464 120.124L576.584 119.791L575.132 119.895L573.28 120.39L571.47 120.3L570.656 119.986L569.504 120.019L567.419 121.38L566.338 122.926L565.058 123.411L563.901 122.398L562.568 121.199L561.292 119.696L560.506 118.302L560.068 114.6L561.596 113.497L563.548 112.255L563.696 110.29L563.624 108.097L564.01 105.652L565.791 103.392L566.748 101.518L566.867 100.347L567.724 98.4016L568.543 96.3464L569.661 93.6442L571.78 88.8298L574.284 83.1113L575.536 80.2474L578.284 82.022L580.054 82.9449L583.049 84.3435L586.139 84.6575L589.095 86.1703L590.619 86.6271H591.433L595.618 82.9449L599.155 79.8193L603.221 77.3739L606.211 77.0409L608.458 76.3273L609.953 75.2284L610.843 73.392L611.115 70.8135L610.515 69.2483L609.048 68.7061L608.672 68.159L609.377 67.6024L609.901 66.5224L610.229 64.9144L611.077 63.3826L612.433 61.9363L613.186 60.3282L613.324 58.5586L614.143 56.7888L615.633 55.0238L616.452 53.3777L616.59 51.8555L617.346 49.9906L619.403 46.6842L620.736 42.864L623.012 40.2379L626.668 37.5357L628.949 34.8478L629.858 32.1741L629.787 29.805L628.73 27.7498L628.525 25.6565L629.182 23.5205L628.606 21.922L626.802 20.8611L624.65 20.5995L622.15 21.1371L620.746 20.4662L620.436 18.5919L621.108 17.0743L622.76 15.9134L625.474 13.0828L629.254 8.56336L633.015 6.05618L638.623 5.33303L643.146 3.84402L647.755 2.33121L651.082 1.57945L651.649 2.08382L653.463 2.20752L656.524 1.95054L659.366 1.29881L661.994 0.247393L664.075 0L665.603 0.556634L666.503 0.623273Z" fill="#EDCCFF"/>
</svg>
