<svg width="564" height="600" viewBox="0 0 564 600" fill="none" xmlns="http://www.w3.org/2000/svg">
<path d="M497.241 598.411L496.056 600L493.742 595.129L492.75 594.833L492.716 592.514L493.253 591.599L495.932 590.573L496.635 591.145L497.999 595.658L497.241 598.411ZM494.217 588.248L492.378 590.078L491.579 588.977L491.91 588.213L492.688 587.794L493.418 587.202L494.217 588.248ZM488.59 578.161L487.088 578.181L486.647 577.349L486.013 576.489L486.496 575.656L487.288 575.443L488.411 576.791L488.672 577.748L488.59 578.161ZM490.415 574.7L489.506 575.415L489.278 575.319L489.148 574.768L489.113 574.383L488.948 573.688L488.858 572.463L489.581 571.438L490.305 571.651L489.912 572.697L490.415 574.7ZM94.7174 570.578L94.442 570.819L94.1595 570.908L93.9665 570.881L93.8631 570.64L93.9182 570.461L94.1662 570.667L94.4971 570.475L94.8687 569.863L94.9583 569.663L95.0344 569.773L94.9583 570.124L94.7174 570.578ZM482.756 570.957L483.334 571.679L482.266 571.555L481.274 570.461L481.536 569.436L481.908 569.016L482.756 570.957ZM475.923 553.741L475.075 553.851L474.552 553.19L474.49 552.42L474.972 551.918L475.427 551.656L475.881 551.725L476.336 553.025L475.923 553.741ZM470.426 526.128L469.841 526.796L467.85 526.273L467.994 524.264L467.526 522.296L467.87 521.47L469.365 520.06L470.577 519.44L471.418 521.346L471.81 523.211L470.426 526.128ZM89.1654 513.475L89.0208 513.599L89.0073 513.241L89.1864 512.67L89.3928 512.291L89.4551 512.333L89.4 512.704L89.2966 513.207L89.1654 513.475ZM474.104 509.973L473.161 510.365L472.217 509.876L472.954 509.085L473.078 507.475L474.042 508.369L473.987 509.388L474.104 509.973ZM480.372 497.126L481.233 499.823L479.676 498.647L479.174 497.8L479.952 497.23L480.372 497.126ZM474.572 480.86L473.959 482.14L473.835 479.402L474.125 479.057L474.435 478.961L474.827 479.216L474.572 480.86ZM474.676 506.945L474.249 507.406L473.622 506.89L471.824 503.374L471.514 501.117L471.018 500.333L471.652 499.211L472.444 498.839L472.912 497.573L473.078 495.647L473.773 494.071L474.125 493.631L475.571 493.617L475.936 493.417L475.736 491.911L474.896 491.257L474.6 490.837L474.634 487.225L474.855 485.766L475.378 484.713L475.007 482.539L475.254 481.727L476.294 480.585L476.756 478.149L476.329 477.42L477.321 473.663L477.266 471.145L478.561 468.626L480.586 467.477L481.226 467.45L481.309 469.603L481.502 470.312L480.331 471.585L481.447 473.243L481.302 473.842L480.854 475.156L480.118 476.45L479.091 476.979L478.292 478.7L477.837 479.346L479.359 481.156L479.849 487.294L478.733 488.973L477.403 489.31L477.714 493.397L477.472 494.312L476.157 496.314L475.909 497.188L475.172 498.014L475.482 499.039L476.122 499.486L476.136 500.326L475.544 502.48L475.495 504.936L474.676 506.945ZM203.976 83.4014L203.927 83.3256L202.791 81.6399L203.976 83.4014L203.342 85.2591L203.473 86.7315L204.644 88.3555L205.594 89.4907L204.664 91.0183L204.113 92.7866L204.733 93.578L204.444 96.117L204.719 96.5917L205.374 96.7912L206.393 96.6192L207.172 97.8577L206.469 96.7431L206.386 96.6192L207.447 95.945L208.35 95.8142L208.887 96.0069L209.603 94.087L210.237 93.812L211.463 94.3418L213.888 97.961L215.94 101.016L216.374 101.436L216.532 101.594L216.897 101.945L218.922 103.527L220.321 104.525L222.229 104.168L224.75 104.099L226.244 105.076L227.105 105.757L227.147 105.853L227.264 105.874L230.295 108.268L231.603 108.089L232.472 108.777L232.719 110.463L232.313 112.218L232.409 113.044L233.759 113.202L236.632 114.358L239.167 115.383L240.482 115.706L241.894 116.463L243.148 117.674L245.593 119.229L247.756 120.42L248.231 122.03L247.377 121.686L246.248 121.865L245.097 122.58L244.553 123.034L241.929 125.807L240.551 126.661L239.318 127.906L236.473 131.656L234.827 135.151L233.629 138.433L233.649 140.752L233.209 143.47L231.982 145.018L231.231 145.541L230.343 147.874L229.702 150.592L230.074 151.473L231.603 152.656L233.091 153.812L234.986 155.064L236.804 156.255L237.975 156.406L238.298 155.732L238.726 155.085L240.062 155.429L241.687 156.592L242.749 157.521L243.217 157.83L246.027 159.392L248.355 160.679L251.303 162.31L252.02 163.307L252.653 164.367L254.045 165.771L257.427 168.255L260.32 170.037L262.675 171.482L264.521 172.493L265.376 172.335L266.312 171.791L267.132 171.482L268.089 171.771L269.536 172.541L272.932 174.895L276.1 176.732L279.551 176.401L280.467 176.697L281.115 178.362L281.549 180.048L285.406 181.163L287.941 181.665L290.841 182.58L292.308 183.262L293.851 182.408L294.133 181.658L295.352 181.218L297.377 181.411L301.152 182.718L302.729 183.11L304.052 181.872L306.511 181.3L307.799 180.654L310.486 182.03L315.335 183.75L317.835 184.823L318.428 185.876L318.696 186.874L318.675 189.296L319.289 190.39L324.151 192.846L325.756 193.885L327.051 194.222L327.781 194.264L328.284 194.573L328.718 195.97L329.062 196.294L329.999 196.638L331.018 196.837L334.18 195.626L336.343 194.711L337.886 194.945L338.885 195.963L339.029 197.449L339.608 199.018L340.71 199.782L341.895 199.865L344.829 198.805L347.192 199.617L349.355 199.913L351.765 200.422L352.702 200.807L355.196 202.101L358.247 203.408L359.425 203.264L364.336 200.828L364.756 201.124L365.755 203.45L367.25 204.282L369.585 205.011L372.023 203.67L373.945 204.055L376.273 204.179L378.505 203.532L380.441 203.367L383.258 204.537L383.877 204.268L384.415 203.518L385.51 200.161L386.481 197.188L386.391 195.413L385.503 192.805L383.223 189.406L383.058 188.374L383.822 182.436L384.669 179.002L385.393 177.378L386.192 175.06L386.336 173.986L386.254 173.016L385.475 172.424L385.269 171.688L385.462 171.069L386.082 170.725L388.672 170.291L391.592 169.362L392.756 168.867L393.631 168.372L394.526 167.587L395.36 167.622L397.977 168.757L398.893 169.473L399.376 171.64L399.768 172.479L399.424 174.681L397.853 180.007L398.163 181.995L399.465 183.447L400.602 184.459L400.416 184.865L398.074 186.578L397.654 187.493L398.17 188.388L399.1 189.144L399.52 189.867L399.954 192.11L401.146 192.743L403.501 194.188L405.575 195.241L409.136 194.539L410.142 195.014L411.891 195.509L413.255 195.661L414.047 196.032L414.488 196.39L414.426 196.844L414.502 197.312L416.451 197.436L417.477 197.704L420.942 197.222L424.421 196.562L426.019 194.56L426.728 194.415L428.726 193.638L430.695 194.491L432.858 195.654L434.029 196.005L436.337 196.19L438.582 196.06L443.955 195.502L446.91 195.791L449.624 194.126L450.182 194.133L451.373 195.42L454.356 195.537L455.94 194.917L457.649 194.443L458.737 194.291L459.611 194.277L460.665 194.401L461.664 193.975L462.119 193.115L462.015 191.814L461.299 190.397L460.673 189.564L460.549 189.124L460.741 188.099L461.292 186.654L462.305 185.002L461.561 183.399L460.521 181.562L459.756 181.383L457.828 181.81L455.741 181.727L454.094 180.619L452.868 179.229L452.572 178.067L452.93 176.642L453.474 175.335L453.592 174.846H455.155L457.318 175.135L458.957 175.5L460.273 175.486L462.663 173.807L463.751 173.704L465.005 173.388L465.549 173.071L465.928 173.319L467.299 173.525L468.724 173.443L469.999 172.982L471.28 172.259L473.553 170.745L474.001 169.878V169.08L473.574 168.551L473.14 168.296L473.312 167.601L474.27 166.431L477.748 164.67L480.71 162.495L482.335 160.865L483.079 158.89L484.023 156.743L484.904 155.897L487.006 155.36L492.888 154.569L494.741 153.702L497.475 152.092L498.853 150.826L499.618 149.8L499.7 148.658L501.519 148.3L503.103 146.45L505.024 144.585L508.407 143.009L511.403 140.89L512.443 141.227L513.531 142.232L514.11 143.339L514.234 143.904L518.064 144.605L518.67 144.495L521.487 145.486L524.084 146.683L525.517 146.979L526.219 146.945L526.818 146.573L527.521 145.521L528.237 144.757L528.685 144.447L528.664 143.236L532.425 140.869L535.8 139.17L538.707 137.931L539.561 138.44L540.505 139.383L541.793 141.784L542.571 142.369L544.541 142.032L544.906 142.3L544.596 143.161L543.26 144.227L541.524 145.184L540.395 145.968L540.767 148.576L540.677 149.47L541.166 149.752L544.734 147.165L546.449 146.656L547.062 147.282L547.248 148.665L548.66 151.514L549.259 152.959L545.671 156.399L544.355 158.174L544.403 158.8L544.335 159.42L543.419 160.3L543.467 160.651L544.204 161.209L545.106 161.628L545.54 161.615L546.284 160.782L549.666 159.605L550.637 159.826L553.021 161.628L554.122 161.732L556.981 162.268L558.813 161.587L560.157 162.213L562.946 164.47L563.587 164.883L563.353 166.252L563.208 167.759L563.917 168.956L564 170.016L563.841 170.986L563.284 171.654L561.734 172.025L560.418 173.181L558.324 174.853L556.644 176.188L555.424 177.371L554.983 178.61L555.121 180.172L555.473 181.803L559.371 187.775L559.337 188.807L558.104 189.096L556.464 188.422L555.052 187.459L553.461 184.899L552.18 184.135L550.906 183.97L543.329 185.284L541.724 185.656L539.224 186.612L537.474 188.532L536.2 190.287L534.891 190.995L532.976 192.358L527.665 196.541L524.6 198.344L522.596 199.005L521.191 199.954L520.433 201.495L519.861 202.603L519.696 205.321L520.047 208.665L520.805 210.798L521.212 211.245L521.273 211.872L520.509 213.021L519.503 214.005L519.014 214.61L518.566 217.651L517.678 219.145L516.038 221.339L514.585 222.998L512.305 224.285L511.437 225.323L510.604 227.243L510.115 228.867L510.087 229.452L510.349 229.968L511.3 230.539L512.45 231.089L513.001 231.95L513.077 232.989L512.222 235.486L510.687 238.947L508.93 241.686L507.119 244.294L506.685 245.147L505.059 248.346L503.64 252.743L502.683 255.695L501.856 257.718L500.837 257.807L499.604 257.161L496.594 256.3L494.672 255.605L493.273 254.979L492.302 255.007L490.966 255.413L489.609 255.695L488.803 255.392L486.937 253.569L486.365 253.775L486 254.663L487.26 259.865L488.08 261.798L487.942 265.025L487.619 268.982L487.136 273.296L486.813 274.294L486.013 275.436L484.96 275.745L484.002 275.298L483.238 275.401L482.983 276.124L483.203 277.989L482.266 280.122L481.578 281.945L481.757 283.713L482.087 285.509L483.182 289.39L483.189 290.807L482.976 292.08L482.404 292.61L481.419 292.521L480.882 293.044L480.476 293.842L479.367 296.78L478.306 297.09L477.238 296.649L475.64 294.688L474.662 294.117L474.042 294.151L473.767 294.667L473.332 295.837L472.899 296.621L471.831 297.31L471.569 295.865L470.997 288.351L470.564 285.956L470.212 282.633L469.696 281.615L469.035 279.791L468.304 278.216L467.691 277.548L467.299 274.61L467.154 271.011L467.161 269.305L466.3 265.775L465.459 261.771L464.323 261.936L463.648 260.966L463.159 260.986L461.561 261.888L460.287 261.592L459.343 261.716L459.336 263.56L459.495 265.521L459.136 266.229L456.643 268.528L455.947 270.069L456.016 271.686L456.326 273.846L455.885 274.947L454.804 275.959L453.35 276.488L452.069 276.241L451.249 275.36L450.485 273.117L449.803 271.892L449.087 271.603L448.529 271.934L448.453 273.344L448.494 274.507L448.315 274.638L447.916 274.459L447.461 273.888L446.27 268.259L444.568 263.917L444.465 262.252L445.085 260.106L445.849 256.796L447.868 254.732L448.129 253.858L448.46 253.163L448.949 253.025L451.539 253.218L452.407 252.888L453.171 251.911L454.287 251.126L455.403 250.81L456.291 250.693L457.717 251.436L458.31 251.009L458.744 249.633L459.364 248.271L459.763 247.61L460.72 247.314L461.94 247.245L462.346 246.991L462.677 246.53L462.98 244.72L464.537 240.667L465.088 238.865L465.17 238.548L465.122 236.539L465.563 236.25L468.146 237.234L469.275 237.22L469.888 236.814L470.088 236.078L469.758 235.218L467.918 233.711L464.653 231.681L461.657 230.436L456.12 230.622L450.636 231.014L449.032 230.814L447.027 230.25L442.102 230.333L436.151 230.642L433.885 230.47L432.769 230.491L430.53 230.677L426.88 230.099L424.352 229.356L422.113 228.537L419.454 227.8L418.814 227.807L418.442 227.539L418.187 226.885L418.097 226.039L418.648 222.117L418.159 216.158L418.607 213.984L416.43 209.085L415.687 208.177L414.681 208.135L414.04 208.768L413.786 209.917L414.151 211.204L413.351 212.635L411.747 213.096L409.873 212.615L408.316 211.94L406.312 210.482L404.803 208.424L404.673 206.147L403.991 204.681L403.061 203.966L402.379 203.766L401.766 203.924L401.229 204.722L401.697 205.514L402.337 206.628L402.124 207.385L401.552 207.502L400.698 207.179L399.376 207.351L398.095 206.773L397.33 206.725L396.572 206.512L396.524 205.197L395.36 203.532L393.39 201.667L391.454 200.511L390.525 200.67L390.056 201.943L390.166 202.417L390.848 202.651L391.826 203.388L392.033 204.158L391.888 204.832L390.683 206.064L389.829 207.234L387.921 208.933L386.295 210.881L385.868 212.353L385.255 213.674L385.014 215.126L385.441 216.131L386.226 216.764L388.265 217.225L390.401 219.179L392.123 221.814L393.094 222.612L394.857 223.5L398.253 223.603L398.756 224.326L399.238 226.259L399.906 226.94L401.635 227.849L401.779 228.516L401.359 229.287L400.595 229.892L399.183 230.277L397.84 230.429L396.489 230.181L394.485 230.03L392.212 230.016L390.6 234.826L389.45 236.511H388.795L387.039 235.693L386.288 235.823L384.263 240.09L383.981 241.115L383.843 241.885L384.918 243.53L386.206 244.885L387.742 245.415L388.947 245.009L389.925 245.553L391.069 246.915L393.032 247.817L395.807 248.25L397.385 249.323L397.578 250.252L397.44 251.195L397.192 253.645L396.924 255.055L395.429 258.757L394.361 261.943L394.912 263.456L395.312 264.076L395.691 264.551L396.889 265.741L397.722 266.917L397.006 269.924L397.399 270.716L399.004 271.245L400.733 271.651L401.339 272.147L399.837 275.195L400.154 277.314L400.788 279.303L401.242 282.55L401.311 282.894L401.187 283.706L402.172 286.225L403.694 291.131L403.812 292.961L403.722 294.895L403.274 298.122L401.752 298.108L403.109 300.262L403.543 301.81L403.729 303.97L402.096 304.239L400.939 303.998L399.975 302.106L399.527 303.826L397.805 305.415L397.185 304.638L396.827 303.805L396.758 302.333L397.709 296.711L397.516 296.078L397.089 295.658L396.145 295.431L395.794 294.289L394.354 300.289L394.988 302.738L394.699 303.853L392.012 304.789L389.292 302.539L388.947 301.816L388.789 303.083L388.3 304.624L385.751 304.342L384.49 303.138L385.31 301.087L386.888 296.133L387.184 293.924L385.069 292.3L383.278 291.303L382.252 289.046L382.645 291.523L383.602 292.404L384.994 293.023L386.468 294.289L385.407 295.83L384.374 296.787L382.397 300.42L379.986 302.45L377.176 303.977L367.945 306.22L366.01 307.128L363.179 309.922L361.347 312.571L361.009 315.255L362.042 318.151L362.883 322.679L363.585 323.601L362.6 325.252L360.885 327.007L359.466 329.367L359.597 330.661L359.232 331.534L354.369 334.431L353.35 336.124L352.013 337.803L350.415 336.839L349.479 336.853L350.767 338.188L350.601 339.069L350.147 339.585L348.921 340.067L341.895 342.193L336.522 344.209L335.014 344.126L335.289 343.514L336.233 342.97L336.137 340.658L335.152 340.232L334.297 340.067L330.206 342.888L328.553 345.674L328.897 346.204L329.827 346.073L332.575 344.498L333.857 344.945L333.946 345.564L329.772 347.972L320.99 355.761L320.576 357.296L319.433 359.03L317.856 360.661L315.025 364.603L309.597 370.459L308.088 372.64L299.396 377.14L297.811 378.475L294.243 382.851L290.579 386.429L286.302 389.394L278.883 393.172L274.371 396.743L272.959 399.117L272.87 399.963L273.352 401.112L274.179 402.186L274.364 403.039L273.958 404.567L273.738 405.413L272.415 407.505L270.149 408.998L262.813 412.115L261.842 412.018L255.856 411.399L253.617 411.963L252.695 413.422L250.635 419.457L248.665 421.06L247.956 422.512L247.673 423.516L246.489 423.489L245.469 423.041L244.725 423.365L243.871 421.342L242.438 420.929L241.254 420.784L236.198 422.821L234.428 424.459L230.708 432.172L229.785 437.14L230.66 442.617L231.955 446.986L232.21 448.961L232.051 451.521L231.39 452.766L230.921 454.239L231.542 457.273L233.105 461.243L233.484 462.922L233.518 464.649L234.696 468.612L233.904 467.897L233.277 466.225L231.79 464.092L229.964 466.218L230.97 467.746L234.373 469.562L235.378 471.048L233.188 484.266L231.528 488.952L229.489 492.021L228.407 493.204L225.99 498.076L224.309 503.931L223.972 506.181L224.729 508.7L223.868 510.186L222.794 511.321L224.839 510.812L225.542 512.174L225.804 513.585L225.831 521.952L225.604 530.663L224.027 531.021L222.298 531.11L220.769 530.863L219.673 530.525L216.946 530.986L215.478 531.95L214.301 533.546L214.383 536.271L209.327 543.124L208.239 545.408L207.84 547.603L208.494 548.752L209.789 549.929L211.477 550.404L214.735 550.879L216.298 551.505L217.359 552.667L213.522 551.429L209.011 551.181L198.224 554.36L195.386 556.589L193.802 558.523L192.714 562.94L192.528 565.892L191.246 568.349L185.646 572.119L182.106 573.282L180.763 574.287L176.589 572.986L172.036 569.684L170.121 567.908L163.364 559.376L162.131 558.296L160.767 554.642L160.553 553.28L160.174 552.736L159.534 552.365L159.224 551.801L157.702 547.617L157.082 543.255L156.111 538.376L156.923 538.713L158.053 540.317L158.618 542.649L158.687 545.911L159.534 546.289L160.292 545.979L158.122 538.466L156.234 536.601L155.739 536.477L155.208 535.273L155.153 533.759L155.318 533.044L153.81 530.58L153.28 529.115L149.932 521.663L148.423 516.317L146.088 510.365L144.58 508.28L142.231 503.684L140.261 501.544L138.174 498.674L136.535 497.401L135.894 496.734L131.038 486.778L129.543 481.266L128.276 478.665L127.649 476.683L125.948 468.213L125.934 466.7L125.727 465.041L124.515 461.45L122.387 457.562L121.773 455.14L121.781 454.197L120.43 450.413L120.141 448.686L119.232 447.089L118.171 445.624L117.069 444.447L114.472 440.608L113.542 439.672L111.772 437.181L110.512 432.578L108.9 430.775H111.435L109.885 429.069L109.155 427.954L108.342 427.266L109.52 425.546L107.591 425.594L106.572 424.562L105.173 421.328L102.632 417.667L102.198 415.713L99.9523 409.555L98.0512 394.741L96.3086 388.128L96.4461 386.229L94.3386 380.491L93.3123 376.638L92.8919 373.369L92.334 371.222L91.8312 366.956L91.0253 365.608L90.9357 364.796L91.473 362.849L92.9815 359.842L93.5394 357.936L92.8852 355.252L91.5142 358.074L90.2332 358.865L89.6203 356.759L89.6131 353.924L89.4551 353.243L89.7922 352.294L93.1812 352.727L89.3239 350.986L88.8694 349.968L88.7248 349.204L89.5513 347.794L88.1463 346.603L87.5813 342.956L87.168 342.124L87.0095 341.45L87.8087 336.406L91.1287 326.477L91.3768 324.227L91.0875 321.028L90.3505 318.482L90.0335 315.784L89.8338 315.09L88.6285 314.842L87.485 313.844L86.1624 309.84L87.3748 308.525L88.3115 307.803L87.0234 308.105L85.9627 307.982L87.9739 306.131L89.7716 304.713L93.8702 303.069L95.6128 302.016L93.0366 302.966L90.3367 303.324L84.6056 303.131L85.5633 299.388L86.5618 298.135L87.6435 297.433L86.0522 297.647L84.2062 297.351L84.7986 293.546L86.2519 292.72L87.8154 292.562L89.7582 292.018L87.678 291.392L85.5217 291.089L82.9252 291.716L80.5419 291.255L77.6419 291.261L78.7993 291.771L80.0391 292.927L79.419 294.991L78.8333 296.278L77.2425 297.165L75.9405 298.507L75.5755 299.683L74.8386 300.509L76.1128 301.094L77.4216 301.514L78.1792 302.47L79.0746 303.853L79.0263 306.544L75.5961 312.867L74.4114 314.277L65.822 318.09L62.4536 320.161L55.2624 322.851L52.4663 323.353L49.3666 322.816L44.8341 320.773L37.9187 315.537L36.1206 313.81L30.5897 307.073L26.6016 303.502L23.5776 300.179L19.8305 297.028L16.2969 292.775L15.546 290.835L15.8079 288.86L17.1234 287.787L18.6663 288.22L19.8855 289.885L20.7465 290.629L21.4701 290.931L26.7463 288.378L28.792 288.482L30.1903 287.202L31.9602 287.484L35.5699 285.489L37.085 285.365L38.8899 284.966L41.7966 279.908L43.9731 276.688L45.3853 276.014L45.3024 275.229L44.9098 274.204L43.8562 274.466L43.1188 275.443L42.5748 276.626L42.0236 277.335L40.3155 276.681L39.1653 276.791L37.7464 277.177L32.5597 279.062L30.4244 280.754L28.9778 281.092L20.6915 279.227L12.5914 274.947L9.1814 272.099L7.02552 268.459L4.86964 264.117L5.5793 262.899L8.92663 260.284L11.8199 258.227L9.22302 259.142L6.41256 260.415L5.02141 261.303L3.44402 263.167L1.34995 263.587L0.523414 260.821L0 258.124L1.33607 257.216L2.27275 256.644L4.17386 256.163L6.25406 255.819L8.1413 255.833L10.8071 255.874L10.8828 249.544L11.1035 248.986L11.4823 248.663L11.9162 248.525L12.2811 248.622L12.8255 249.571L13.5074 249.516L14.2306 248.966L15.8424 249.378L17.1373 249.096L18.446 249.468L20.6776 249.475L24.7073 249.323L26.9459 249.372L28.3922 250.376L29.9767 251.484L31.6916 251.642L34.1783 251.511L35.8659 251.085L36.7201 250.053L37.3604 249.062L41.0458 247.617L44.9169 246.44L46.0327 246.31L46.3837 246.998L46.2118 248.147L46.6595 249.241L48.2163 249.936L49.3115 250.108L50.2965 249.95L51.0264 249.599L52.597 247.878L53.4097 247.486L54.4637 247.514L55.6484 246.688L55.669 246.055L54.9181 245.752L54.2778 244.844L54.4014 244.108L54.2156 243.062L54.3464 242.071L54.8492 241.328L55.7312 240.612L55.2074 239.133L53.8574 236.298L52.4453 232.665L50.9507 229.638L49.0563 226.982L48.0784 225.027L48.1819 220.713L48.0162 219.839L47.362 219.303L46.4872 219.007L45.2541 219.447L44.1455 219.53L41.7621 219.433L40.5913 218.993L37.4088 214.651L36.9888 212.945L36.9749 211.19L38.0289 208.135L38.3526 205.287L38.4972 202.631L38.3248 201.881L37.6841 200.986L36.6167 200.326L33.7583 200.167L30.3622 199.287L27.7519 197.739L25.9332 196.803L25.4442 196.19L25.2239 195.475L25.699 192.248L26.5188 188.608L27.1179 187.493L28.1513 186.337L28.916 185.553L30.1419 184.514L33.4552 181.032L36.4237 176.236L38.263 172.885L39.2203 171.888L40.1986 171.034L41.6242 170.002L43.2773 169.06L44.9169 169.101L46.4733 169.961L47.6307 170.966L48.0234 173.188L48.8432 174.626L49.7248 175.493L50.8956 175.913L52.3902 175.81L58.376 173.264L60.415 172.748L65.3053 172.431L68.6597 171.447L71.6287 170.415L71.9936 168.564L73.1371 165.736L76.6224 162.048L77.6074 160.404L78.6614 157.252L79.7839 154.376L80.7554 153.179L86.2381 150.014L91.6038 147.103L92.4858 145.782L95.9572 139.727L97.9411 135.606L98.4578 134.277L99.608 130.693L100.855 127.115L102.508 126.282L106.193 124.92L109.114 123.585L110.615 122.057L111.517 120.722L111.352 119.401L110.546 117.833L110.712 116.897L110.856 115.975L112.984 114.096L116.973 108.53L119.37 105.743H120.162L122.662 104.257L125.038 102.578L124.901 101.814L124.605 100.823L123.241 100.383L122.807 99.1926L123.144 97.4863L124.288 92.8969L124.053 91.5756L122.662 87.3096L122.972 86.1331L123.544 84.9219L125.101 83.312L127.105 81.9702L133.524 78.7912L134.826 78.4403L137.051 77.6353L138.415 75.9357L138.58 74.4838L137.981 73.5826L136.652 72.3716L134.151 71.2774L131.892 70.3211L128.056 70.4242L126.065 69.6055L125.521 69.0343L125.245 67.0114L125.631 63.5849L125.032 63.2821L124.177 63.688L122.152 63.2821L119.666 63.3301L118.715 62.3739L119.184 61.2246L119.039 59.6903L118.667 58.2315L118.282 57.929L117.09 57.5779L115.237 56.3119L113.742 54.75L112.867 53.6902L112.599 52.961L112.681 52.4793L113.77 51.1238L115.065 49.2178L115.54 47.5803L115.685 46.3899L115.32 45.516L114.128 44.4426L112.854 43.4999L112.344 42.6812L112.323 41.4425L112.798 39.8945L114.293 38.7247L116.945 37.6168L117.634 36.2408L117.545 35.2224L116.821 34.9196L114.954 34.9129L111.813 34.5618L111.283 33.9976L110.925 33.2408L110.918 32.4907L111.586 31.6376L112.385 30.5572L112.241 29.5046L111.317 28.3142L109.106 27.4471L108.803 26.2156L109.148 25.1902L109.878 23.7248L110.519 22.7063L112.027 19.8027L113.859 19.1696L116.105 18.227L118.585 17.188L122.407 17.9655L124.267 18.3509L128.028 19.2385L131.183 19.9816L134.406 20.1949L135.743 20.1399L137.216 21.0206L140.86 22.5274L143.822 23.3189L145.827 23.3119L148.782 21.9771L150.256 20.7522L152.24 19.4104L154.781 19.4655L160.278 17.3944L161.304 17.7522L162.937 17.8692L164.907 16.6721L165.919 15.2545L166.077 14.539L166.566 14.016L168.674 13.1147L170.789 11.8624L171.361 10.2109L171.712 9.08934L174.026 7.64444L176.437 6.1376L178.958 4.56189L181.824 2.76611L184.248 1.24541L186.232 0L186.452 0.268359L187.23 0.832584L188.071 1.10766L189.056 0.577874L190.289 0.137539L190.936 0.38532L191.026 1.10094L190.289 4.45858L190.351 5.77286L191.584 8.50454L193.182 12.9289L194.684 17.071L195.565 19.7821L196.44 20.8898L200.084 22.0252L203.087 22.9541L204.871 24.4748L206.841 25.9334L208.219 26.8279L208.873 27.9769L209.011 29.0092L208.887 29.704L208.136 30.6191L204.678 32.9724L204.265 33.7156L204.161 34.6926L204.843 37.6032L205.27 39.4265L205.394 43.0871L205.622 46.5619L206.848 48.1444L207.853 49.1628L208.466 50.0848L209.706 51.3577L210.746 52.3004L211.635 52.8579L212.069 54.1033L211.814 55.5687L211.442 56.8417L211.559 57.5298L212.276 58.0184L213.371 59.2913L213.516 61.1491L213.44 62.4289L213.874 63.5779L213.991 64.8508L213.653 68.0229L213.709 69.4541L212.751 69.5436L211.931 70.032L210.767 72.0275L209.424 72.5505L207.902 72.7086L206.331 71.484L205.043 70.2042L204.692 69.4955L204.368 68.1467L203.672 67.2661L202.336 67.6789L200.304 67.8647L198.107 68.1606L197.7 68.4565L197.659 69.0274L198.197 70.2386L198.651 71.8141L198.927 74.016L199.519 75.4747L199.705 75.9357L203.225 80.3119L204.148 81.1995L204.34 81.7843L203.976 83.4014Z" fill="#EDCCFF"/>
</svg>
