<svg width="532" height="601" viewBox="0 0 532 601" fill="none" xmlns="http://www.w3.org/2000/svg">
<path d="M469.877 60.4597L473.756 60.6799L475.486 60.4816L478.451 61.1312L490.209 67.6397L493.758 68.4658L497.428 68.565L500.006 68.0363L502.276 66.2524L509.373 58.3562L516.846 51.1429L517.672 51.4182V53.4115L517.121 55.6249L513.815 62.2218L510.145 71.0758L509.363 75.547L510.552 79.8969L512.856 83.4872L514.674 88.3876L516.768 95.1825L519.722 96.0415L521.331 96.1406L524.284 94.1033L527.072 91.5152L529.475 91.1959L531.998 91.6365L528.681 93.4426L525.551 95.6449L522.862 99.8079L521.859 100.59L518.763 100.337L516.989 100.491L513.363 102.231L510.178 104.202L507.136 106.614L503.819 107.902L500.281 108.211L494.827 110.182L491.289 110.325L484.644 108.607L481.415 109.07L474.373 112.946L467.959 118.54L462.35 124.807L457.666 132.317L455.782 136.216L454.647 140.577L454.493 143.462L454.074 146.226L452.994 148.153L451.693 149.717L447.826 148.803L441.477 144.817L429.168 139.013L416.164 130.104L408.846 125.622L395.093 126.965L382.079 135.511L380.921 134.784L375.951 128.925L373.538 126.602L370.662 125.941L368.523 126.018L366.452 126.447L363.51 129.465L362.429 131.634L361.592 134.101L361.338 135.841L361.691 137.548L364.479 141.402L367.917 144.266L369.471 144.806L372.766 144.607L374.298 144.905L379.819 150.642L385.87 156.017L387.203 157.789L384.966 159.651L382.519 160.576L379.665 160.344L376.844 159.64L372.017 157.36L369.945 159.298L366.727 163.274L364.953 167.591L363.51 169.562L359.961 172.161L356.203 173.505L354.23 173.064L352.731 171.434L351.883 169.485L351.453 167.216L352.246 162.305L354.197 157.867L354.946 153.329L353.349 146.931L352.335 145.587L348.345 141.832L346.494 138.165L346.053 133.595L346.284 131.073L347.254 125.489L348.224 122.67L350.054 121.745L352.06 121.183L355.134 119.157L358.517 116.536L361.757 113.54L364.964 109.874L366.628 105.843L363.884 100.887L363.311 97.9356L363.719 95.1495L366.65 93.6627L369.659 94.7859L375.73 98.8827L376.91 99.2904L381.076 99.4776L386.784 100.37L390.09 100.149L391.688 99.5323L394.09 96.1517L395.27 91.8348L394.84 86.2733L394.818 80.7448L396.339 76.2296L401.099 68.9504L402.466 64.6553L402.962 54.1713L404.681 49.5462L406.058 44.7336L406.72 34.6239L404.769 24.8665L402.808 20.0653L400.56 15.495L400.89 11.1229L402.708 7.05935L402.752 5.8367L403.182 4.74645L406.588 3.97582L408.185 3.10571L409.717 1.14536L411.536 0L412.869 1.14536L413.971 3.14974L418.776 8.0723L426.347 16.8386L435.262 30.1527L440.849 36.6172L446.735 42.465L453.336 48.4338L460.245 53.5546L464.653 55.9774L467.882 59.8319L469.877 60.4597ZM384.767 7.74193L383.577 10.5173L381.968 6.38753L381.649 1.92742L382.574 1.94926L384.271 2.62109L384.679 4.79048L384.767 7.74193ZM391.655 17.0806L389.517 17.3891L387.016 15.5608L386.707 13.2704L388.514 11.4422L390.31 12.114L392.107 14.4706L392.702 15.704L391.655 17.0806ZM335.551 146.347L334.846 146.568L334.118 146.215L333.402 143.077L334.019 141.425L336.013 140.268L337.953 139.949L336.311 145.719L335.551 146.347ZM389.616 175.564L390.829 176.335L396.603 174.253L395.501 180.542L394.884 186.874L395.302 197.358L395.82 202.071L396.823 206.631L399.292 209.891L402.51 212.203L407.172 219.571L409.673 228.601L411.437 232.973L412.759 237.554L413.167 239.647L413.2 241.739L412.803 244.602L413.244 246.915L412.737 254.161L410.654 262.52L410.389 266.782L408.571 267.63L407.469 269.601L406.533 270.515L405.485 271.22L403.976 271.396L402.885 272.2L402.455 274.457L401.76 276.539L400.438 278.466L399.402 280.58L398.554 285.735L398.245 291.01L396.978 294.688L393.903 295.646L390.388 295.591L385.88 297.287L384.91 298.289L381.351 304.698L380.327 308.454L380.293 312.484L381.285 317.44L382.63 322.275L383.643 331.25L382.574 344.884L381.539 349.233L379.279 352.174L377.56 353.539L376.084 355.213L374.166 359.629L370.992 368.418L370.738 370.62L370.75 372.9L369.89 375.873L369.339 378.791L369.857 382.183L370.838 385.355L375.091 393.471L376.756 395.872L378.629 398.053L371.366 400.464L370.066 401.577L365.747 406.18L364.369 410.541L364.479 415.365L363.762 417.094L362.583 418.591L361.349 419.582L356.522 421.785L353.437 423.977L350.373 427.401L349.161 429.185L346.792 428.613L345.403 427.027L346.769 425.045L346.351 422.699L347.023 416.675L346.263 414.252L348.731 412.413L349.899 409.484L352.456 407.138L354.297 405.057L354.616 403.361L352.974 401.533L351.233 400.211H348.83L346.516 400.597L345.006 402.336L344.511 404.704L344.632 405.805L344.433 406.764L340.796 410.001L341.271 413.382L342.339 415.1L343.706 415.915L343.298 417.072L341.568 419.792L340.367 420.056L338.152 416.245L335.374 414.164L331.936 414.175L328.41 414.935L325.732 417.468L324.851 419.571L324.277 421.741L324.475 427.016L323.363 431.421L321.181 435.286L320.166 436.696L317.511 439.317L315.671 439.658L314.37 438.469L313.312 436.663L314.656 430.055L314.601 426.333L317.709 424.439L315.163 421.796L312.034 420.728L307.637 422.137L306.391 423.734L305.543 425.871L303.173 428.58L300.573 431.102L297.608 435.418L295.624 440.517L289.123 438.854L285.585 438.48L282.004 438.612L275.656 437.984L268.691 439.031L260.756 441.035L261.23 439.593L267.754 436.52L267.986 435.617L267.357 433.932L265.738 433.855L261.837 434.438L259.842 434.185L259.037 432.379L257.715 431.608L256.833 432.346L257.119 435.848L256.161 436.311L254.872 435.408L255.279 432.676L254.409 428.679L254.298 426.19L255.665 424.054L254.265 423.151L252.789 423.492L250.915 424.516L249.262 425.97L245.769 433.271L244.414 437.434L246.97 440.771L253.957 445.429L255.147 446.574L255.169 448.557L254.321 450.66L252.425 451.574L244.766 453.127L238.12 456.133L236.204 459.173L230.164 470.912L225.327 478.919L218.494 481.672L211 479.216L209.182 476.43L207.716 472.983L204.928 469.866L202.404 466.463L200.939 462.422L201.17 455.902L200.079 451.971L201.06 450.924L205.192 448.524L206.548 447.18L208.884 444.053L209.722 442.312L209.843 439.681L207.969 438.304L203.121 438.348L198.282 439.174L194.833 438.029L190.348 434.835L188.959 434.152L184.132 433.954L180.683 434.549L177.3 435.705L173.718 436.079L172.528 436.685L168.396 440.594L165.101 443.05L162.257 444.273L156.119 444.592L153.044 445.385L149.827 446.673L148.923 446.564L145.529 448.347L141.627 449.889L139.556 451.431L135.732 450.418L128.171 453.182L124.513 453.523L120.744 451.993L117.239 449.515L113.878 450.583L111.575 454.228L110.451 461.475L109.14 464.734L108.743 468.644L107.002 468.027L96.8851 460.99L96.1909 460.737L88.0138 461.948L85.9092 462.532L83.2752 463.952L80.4872 464.591L77.9521 463.567L75.5172 461.904L73.1805 462.4L70.7893 463.567L69.8638 452.929L70.3373 451.53L71.803 449.669L73.4233 448.072L77.379 447.522L81.3798 448.039L84.2451 447.312L86.6693 445.198L89.2152 442.203L92.0913 439.758L95.9925 437.831L99.7612 435.617L103.079 432.511L106.219 429.108L109.107 426.608L112.247 424.516L117.03 419.472L123.367 413.801L125.803 409.594L127.312 408.438L132.767 406.092L140.008 404.286L143.424 404.374L146.796 408.063L148.615 407.556L150.466 406.599L154.191 406.07L158.026 406.687L161.772 406.698L165.52 406.235L172.705 405.024L176.495 403.559L180.198 401.665L193.378 400.332L202.404 397.15L203.837 397.381L205.225 398.108L205.335 400.464L204.189 403.03L205.303 404.583L207.132 405.541L215.629 405.839L218.053 406.389L221.602 404.638L224.952 402.469L228.445 399.605L230.892 396.379L228.632 392.337L228.137 387.91L230.032 383.098L232.776 379.045L236.038 376.589L239.047 373.759L245.13 365.72L249.527 359.2L251.114 351.161L250.188 341.624L254.034 334.509L257.715 333.287L265.021 330.039L268.856 329.091L269.429 330.512L269.319 332.373L263.577 338.342L260.283 340.798L258.321 341.558L256.513 342.637L255.776 344.74L258.707 348.242L259.445 350.83L259.258 353.308L259.39 355.544L262.696 357.967L266.498 358.77L268.085 358.749L269.474 358.11L273.815 352.174L274.785 351.139L287.128 346.778L293.2 343.441L296.561 342.571L299.713 340.831L306.788 334.113L309.389 331.008L311.758 327.571L313.653 323.574L315.153 319.246L317.202 316.548L328.41 310.105L332.013 306.592L333.159 304.885L334.548 299.941L335.507 294.798L336.862 290.756L338.703 286.968L341.16 283.102L343.926 279.501L345.557 275.812L347.938 266.969L348.974 262.057L349.789 260.284L350.979 258.797L352.015 256.903L352.809 254.789L353.172 252.697L353.679 246.287L353.37 241.287L351.519 237.048L349.987 235.847L348.323 235.781L345.811 236.145L343.684 234.416L344.125 232.885L346.296 232.598L347.772 231.806L348.841 230.363L350.836 225.727L352.026 220.749L352.136 218.546L350.572 214.527L349.337 209.692L349.304 207.082L350.66 204.065L352.599 201.609L354.33 201.036L356.203 200.86L357.911 199.913L359.498 198.536L360.391 197.017L361.779 192.876L362.319 190.519L361.437 184.176L362.341 182.436L363.619 181.357L365.328 182.172L367.091 182.337L369.141 182.083L371.102 182.755L371.466 184.385L372.7 195.089L373.405 196.532L374.838 197.655L376.447 197.49L377.836 195.827L378.772 193.614L380.624 193.151L386.277 195.53L388.283 193.834L389.583 191.202L390.719 186.543L390.167 182.337L388.812 180.773L387.412 181.048L386.178 182.205L384.789 182.832L376.447 185.046L376.491 180.354L378.276 173.306L379.257 171.071L380.668 170.014L384.173 171.247L385.88 172.062L389.616 175.564ZM300.374 317.462L297.432 317.561L296.705 317.176L298.479 316.207L298.644 314.588L299.713 311.702L299.691 310.876L297.354 310.722L297.476 307.451L299.217 304.214L304.011 299.115L305.322 298.157L305.521 300.392L304.066 305.667L303.779 307.573L307.549 307.969L305.124 314.279L300.374 317.462ZM146.554 379.838L145.143 381.258L142.498 380.796L140.966 378.737L141.473 376.413L144.239 374.629L146.884 378.208L146.554 379.838ZM334.779 435.661L334.449 437.423L332.807 437.037L332.024 435.892L332.124 433.833L333.854 433.822L334.779 435.661ZM23.3028 449.581L22.6746 451.376L20.5807 450.109L19.6222 448.964L21.5728 443.315L21.3414 441.167L21.4625 440.121L25.3307 437.159L26.0027 437.72L26.2341 438.546L25.8924 439.813L26.0908 442.61L23.1817 447.235L23.3028 449.581ZM194.878 452.015L191.527 455.186L188.617 454.966L187.163 453.546L186.678 451.795L189.444 449.041L191.825 445.143L193.985 443.414L195.726 442.445L197.092 442.478L194.029 447.918L194.878 452.015ZM176.903 444.735L176.33 445.473L175.779 445.275L173.806 446.982L173.388 445.341L171.834 444.251L171.646 443.392L176.088 442.83L177.52 443.282L176.903 444.735ZM177.069 453.204L181.355 454.757L185.731 454.316L185.665 461.111L186.292 463.391L187.516 465.428L186.887 468.391L188.871 469.404L182.986 472.774L177.686 477.245L175.504 480.251L173.531 483.478L172.385 486.892L171.646 490.559L169.872 489.105L164.759 483.147L161.519 481.517L156.307 480.648L154.653 480.846L143.942 486.407L142.52 490.471L139.599 496.583L138.211 498.598L136.668 499.182L135.577 500.228L134.387 505.426L131.07 508.62L129.031 508.719L125.571 507.838L124.006 508.333L126.078 503.212L122.772 502.585L119.455 502.695L119.378 499.358L117.372 497.464L118.86 494.997L118.903 492.982L119.774 491.869L120.072 490.25L119.951 488.863L117.912 488.444L116.666 487.464L116.898 483.808L115.73 483.676L112.82 484.315L106.781 487.134H105.14L107.663 485.119L113.03 482.365L115.443 480.78L120.711 476.331L124.028 474.227L125.747 470.494L126.287 468.225L127.411 466.221L128.403 463.016L130.1 461.948L133.065 459.195L134.762 459.459L136.657 462.84L139.203 465.428L141.032 465.208L144.305 463.875L145.892 463.578L149.672 463.743L153.077 462.102L154.466 460.164L154.984 457.741L153.716 453.678L155.347 454.085L156.923 453.92L160.615 451.332L164.417 449.79L168.351 449.405L172.782 450.869L177.069 453.204ZM20.0298 458.149L18.0133 459.658L17.1537 457.356L18.0355 450.814L21.8149 452.158L21.749 454.162L20.0298 458.149ZM122.055 458.457L121.163 459.944L118.418 459.492L119.521 458.204L120.358 456.64L120.976 456.321L121.494 458.016L122.055 458.457ZM112.39 464.767L113.9 466.133L117.482 465.582L117.923 465.968L116.876 467.201L115.289 468.423L112.424 467.509L110.617 467.465L110.363 465.428L110.594 464.69L112.39 464.767ZM78.6469 477.443L82.801 478.544L84.5646 478.61L86.1843 478.115L88.675 476.672L91.2646 475.604L93.1271 476.144L94.769 477.432L95.6286 479.249L95.2102 481.143L92.2675 485.218L89.8434 489.557L95.3972 490.372L100.952 490.284L99.6623 492.96L99.4417 495.294L101.139 496.407L102.583 497.904L102.208 499.259L101.382 500.592L104.412 502.596L104.213 503.939L103.431 505.349L95.86 514.534L93.6343 519.17L92.0913 524.269L90.67 527.991L89.6335 531.857L88.8513 536.019L87.4408 540.314L87.915 544.114L87.4408 548.012L83.6391 557.615L80.9278 557.439L77.5223 556.282L75.3954 556.459L74.2937 558.584L76.2443 562.956L70.1833 568.143L63.4826 571.623L63.4389 570.037L64.0779 568.793L65.0364 567.791L65.7312 566.579L66.7119 562.505L66.2269 558.397L64.199 553.243L64.0557 551.393L65.4554 550.644L66.3924 550.424L66.8989 549.708L66.9211 548.001L66.2821 546.734L64.3644 546.327L62.5349 546.305L61.2455 548.221L59.4711 551.91L58.6115 555.644L58.9868 557.681L59.7691 559.509L62.2046 562.56L61.4991 564.366L60.4854 565.765L51.8893 562.582L50.0268 562.35L48.4844 561.679L46.8311 557.483L50.3355 556.47L51.3713 555.963L51.7574 554.62L52.231 550.523L50.5999 547.087L49.2116 545.865L48.0876 544.466L48.7925 541.57L48.3297 537.913L48.286 532.804L48.8921 531.922L52.1429 530.887L54.4903 528.145L56.562 525.018L59.5928 519.511L62.0829 513.553L59.6917 513.3L57.6637 512.177L59.8679 509.358L59.1845 505.789L55.8786 501.406L54.0605 496.23L51.14 493.94L49.597 493.103L47.713 494.314L46.17 495.768L47.6026 499.138L47.4264 502.122L47.6578 505.074L49.112 505.239L50.9086 504.501L52.3413 505.019L53.1787 506.572L53.4101 508.565L52.7711 510.536L51.4595 511.516L49.8506 511.439L48.2309 510.371L46.9637 508.851L43.9328 508.014L40.7372 509.809L37.7063 513.465L35.1167 515.315L36.3288 512.606L36.9126 509.677L35.6569 507.618L32.6812 504.193L31.987 502.21L31.8108 499.81L32.3395 497.431L35.3811 500.162L36.9463 503.565L39.1942 505.063L42.0044 505.074L39.8439 500.074L39.0731 498.807L36.053 496.561L31.9097 492.784L29.2871 490.956L30.2126 487.002L31.7664 486.22L33.0666 486.407L37.4528 487.806L37.8604 485.834L37.2106 484.777L36.8797 483.555L39.778 481.848L44.5059 480.438L45.4758 479.778L46.3132 478.357L47.4701 477.619L50.7761 477.641L53.5648 476.276L55.8678 472.586L56.4187 470.56L57.2339 468.864L62.9761 465.869L64.3974 465.406L68.2434 465.781L71.7478 467.476L73.4778 471.045L74.9986 474.855L78.6469 477.443ZM35.9979 472.036L33.8603 473.566L32.2514 472.377L33.0336 469.073L33.563 467.972L35.3918 469.062L35.9979 472.036ZM26.5872 491.44L24.416 493.169H22.84L24.2727 491.143L24.4711 490.185L25.6724 487.464L28.0192 486.495L29.0113 486.374L27.0937 489.194L26.5872 491.44ZM13.7596 505.47L12.9881 505.866L11.996 502.563L11.3018 501.385L12.4588 500.757L14.784 494.755L15.203 497.133L16.1064 499.49L17.0104 499.865L16.1286 501.583L14.8392 502.221L13.7596 505.47ZM346.681 497.563L346.141 497.948L344.654 496.748L344.433 495.68L344.698 495.019L345.668 494.876L347.673 496.186L346.681 497.563ZM1.03088 507.54L2.23219 508.532L3.98437 507.97L5.38409 507.838L6.38698 508.311L7.6542 510.855L8.11696 512.364L5.85763 512.573L4.89914 512.926L3.66487 514.765L1.89049 514.082L0.777303 513.212L0.535156 511.989L1.03088 507.54ZM44.8583 527.749L42.412 529.048L42.1033 527.804L41.0674 527.231L42.8418 525.48L42.7759 524.687L41.6513 523.509L42.9521 519.038L42.599 517.111L47.4816 516.395L48.3741 518.212L48.4622 523.718L44.8583 527.749ZM54.0935 520.69L51.3606 520.855L50.2252 520.425L49.7732 519.269L53.6085 516.923L56.5842 517.342L55.2618 519.456L54.0935 520.69ZM33.5959 548.508L32.626 549.135L33.2428 546.294L35.7335 543.805L35.9434 545.413L33.5959 548.508ZM71.9906 593.737L69.2793 594.111L69.2241 592.041L71.3732 587.371L71.6045 583.935L73.6103 579.596L74.4592 578.649L75.0982 578.308L75.7923 579.663L75.0208 584.971L73.0043 588.99L71.9906 593.737ZM61.5764 598.505L58.0384 599.276L56.0992 598.45L54.3141 594.056L57.6974 591.303L62.2154 594.034L63.1409 594.816L61.5764 598.505Z" fill="#EDCCFF"/>
</svg>
