<svg width="960" height="600" viewBox="0 0 960 600" fill="none" xmlns="http://www.w3.org/2000/svg">
<path d="M643.582 233.362L643.032 240.269L641.198 245.916L635.167 257.651L632.653 264.914L627.787 285.582L626.287 299.073L625.931 305.41L625.51 306.304L625.964 307.23L624.798 321.207L625.424 333.103L625.025 334.946L623.255 338.524L622.015 343.47L622.5 345.668L622.479 347.188L624.291 354.698L624.874 360.334L630.279 369.968L633.311 373.33L637.076 376.239L638.457 377.877L637.777 381.961L636.245 384.019L635.587 387.295L634.832 384.591L635.123 381.077L636.321 379.192L636.364 377.813L634.152 376.336L630.107 371.498L625.165 362.92L628.682 376.617L629.891 378.804L630.829 379.709L632.405 380.668L632.814 382.155L632.825 383.254L637.162 392.737L642.071 402.522L642.33 405.194L644.294 408.481L656.798 422.166L664.448 432.36L667.102 442.015L668.699 445.022L669.486 449.138L674.492 453.75L676.024 456.724L678.711 458.373L680.879 463.351L684.958 466.261L683.986 466.315L680.415 464.849L680.653 465.819L683.652 467.877L689.532 469.903H690.999L688.68 468.847L686.716 467.424L687.406 467.22L691.517 468.987L703.007 469.569L708.067 473.696L714.627 475.474L718.155 480.744L722.255 486.239L724.877 486.498L726.916 486.519L733.065 485.593L742.624 482.134L745.915 480.442L752.334 478.147L762.163 477.726L765.206 478.373L772.553 476.94L776.059 475.183L777.278 473.589L777.85 472.414L784.658 470.733L786.007 470.399L792.901 470.097L796.235 469.472L800.151 469.106L802.978 471.584V472.791L801.09 473.933L801.974 475.043L805.33 476.875L811.479 477.619L813.475 477.328L816.313 474.623L821.308 472.004L821.2 468.955L820.305 467.284L818.859 467.177L818.514 466.239L819.528 463.998L819.269 463.243L816.162 465.399H815.45L815.795 464.397L816.442 463.599L825.548 458.901L827.879 456.972L831.029 455.269L837.556 448.879L838.948 436.832L840.253 434.72L844.58 431.013L845.044 429.892L845.324 427.371L845.206 421.024L845.443 416.024L845.26 410.366L846.036 405.313L846.738 403.901L849.219 395.798L854.376 392.209L863.32 387.952L865.37 387.252L893.864 382.748L897.866 381.649L902.765 378.728L906.346 377.737L912.874 377.813L914.881 377.425L915.28 377.026L915.291 376.627L916.499 376.229L920.275 376.617L927.331 378.383L929.899 378.825L936.21 380.873L943.158 381.692L944.151 381.336L945.068 380.711L945.769 379.515L945.046 378.47L944.367 378.545L943.191 379.106L941.788 379.16L939.037 378.297L939.587 377.576L942.392 377.64L944.194 377.295L946.859 376.034L949.696 376.983L953.43 381.164L956.083 382.489L956.299 388.545L956.699 389.655L957.669 391.25L956.342 395.938L954.854 399.806L952.987 402.974L948.952 407.964L944.054 411.951L937.991 420.797L936.61 424.935L936.642 428.254L937.667 431.455L937.376 432.64L936.631 433.836L935.401 433.729L933.006 435.259L929.92 439.806L929.856 441.185L931.204 442.457L932.963 441.843L935.25 441.789L936.534 441.412L937.883 441.509L937.581 444.116L936.135 445.97L935.218 446.552L933.578 446.864L931.744 447.92L930.805 448.89L930.891 451.897L931.906 452.134L934.063 449.892L935.315 450L935.563 450.948L932.769 458.632L930.967 466.509L928.529 471.067L927.666 477.694L926.382 480.517L924.893 483.308L924.019 483.157L921.667 477.867L919.261 476.509L918.732 475.226L920.102 468.804L919.477 465.248L918.204 465.388L916.607 467.338L914.482 469.03L914.525 471.476L912.086 475.539L911.482 476.875L909.162 476.563L906.465 476.735L904.599 477.716L902.689 482.64L897.92 489.569L896.021 492.92L894.468 494.073L893.249 494.526L891.889 493.739L888.631 491.843L886.117 492.748L885.243 494.924L885.276 497.672H878.91L868.1 497.662L854.333 497.651L841.063 497.64L829.95 497.629L829.907 503.804L829.875 509.267L829.842 515.409L823.714 515.356L817.23 515.302L817.748 515.916L819.97 517.069L822.851 519.817L826.249 524.095L830.371 527.5L835.215 530.033L838.398 532.511L839.941 534.935L840.717 536.994V538.696L842.487 540.043L845.648 540.938L847.288 542.457V543.696L846.285 546.509L845.993 549.612L846.382 552.414L844.116 552.457H838.624L830.263 552.468H822.57H816.507L807.347 552.478L804.833 556.789L800.658 563.944L796.871 570.42L793.699 575.862L793.181 577.295V578.459L797.108 583.545L796.386 585.022L795.015 585.797L794.573 586.994L794.659 588.933L793.732 591.509L794.034 593.287L794.53 595.474L793.71 597.371L793.041 599.203L792.253 600L791.358 599.31L783.288 590.862L774.873 581.562L771.56 578.524L768.356 576.218L764.04 571.929L752.712 562.5L746.864 558.19L741.362 553.028L736.421 550.162L731.555 548.297L729.386 547.22L727.488 545.808L726.43 545.722L725.902 547.64L727.606 548.599L729.645 549.418L731.253 549.472L732.947 550.151L737.942 552.769L738.762 554.116L724.553 548.879L718.77 548.394L718.144 547.576L721.025 544.839L720.129 543.847L719.104 543.707L716.008 545.603L714.865 545.733L714.659 544.483L714.8 543.308L712.804 541.584L711.541 541.649L710.506 542.856L707.808 545.13L707.895 546.024L713.181 546.993L715.005 547.543L714.584 548.147L710.052 548.136L704.442 549.17L694.452 555.496L685.152 558.211L671.773 564.289L665.872 564.601L662.775 565.571L653.777 563.244L642.373 557.532L625.111 555.733L613.481 548.243L601.937 545.162L594.611 537.964L590.198 537.651L587.361 536.498L576.874 533.89L566.506 532.166L556.396 525.862L549.783 523.858L544.065 521.347L531.474 517.058L526.802 514.677L522.39 510.991L515.194 507.177L512.119 503.987L508.688 502.845L503.779 496.832L501.222 494.3L499.053 493.114L496.734 492.705L490.034 493.19L480.032 490.528L475.415 489.849L465.759 485.927L452.941 481.541L448.744 476.498L445.152 471.789L438.678 465.582L434.643 462.931L427.641 459.785L423.757 457.231L417.769 455.269L407.606 450.291L404.38 446.024L402.492 442.231L397.087 437.619L391.164 429.009L389.632 425.83L388.488 420.948L387.118 418.114L385.5 415.894L386.33 414.278L389.34 412.285L394.347 411.832L397.885 409.677L398.349 407.899L398.123 406.8L395.857 404.084L393.041 403.362L390.851 403.319L390.29 402.285L391.941 401.153L393.829 398.502L396.612 395.269L398.576 392.284L398.943 388.071L398.694 383.858L399.439 380.291L392.696 376.175L391.908 374.418L389.783 369.688L386.104 364.192L386.212 353.19L381.777 343.405L377.192 338.534L374.819 336.832L368.378 329.256L363.296 324.849L358.322 316.541L353.403 311.25L347.145 302.36L342.624 297.92L322.028 282.888H323.183L329.225 286.584L330.239 286.282L330.379 284.483L329.688 282.328L328.566 281.81L326.959 282.295L324.79 281.843L323.701 281.131L320.453 280.679L316.386 278.168L314.638 275.56L314.444 272.586L308.607 266.239L306.395 262.694L307.528 262.953L309.082 264.375L310.657 264.784L312.491 264.795L313.818 264.224L313.343 263.168L312.092 262.284L303.59 258.933L300.785 256.584L293.815 252.662L292.165 251.282L291.064 247.489L289.359 247.306L287.86 248.362L283.749 249.397L282.702 248.19L282.552 247.026L285.454 245.797L288.119 242.209L288.065 240.959L286.597 242.403L284.375 244.009L282.088 244.903L278.689 245.646L276.941 245.108L275.42 244.299L272.971 241.164L271.741 230.948L273.899 227.403L276.423 223.89L278.57 221.81L279.811 223.384L281.084 223.577L280.189 221.8L278.074 220.14L277.33 218.481L277.254 216.961L276.251 214.138L269.993 208.2L264.146 208.653L261.761 208.448L259.528 206.185L257.629 202.371L256.701 199.17L256.583 197.468L256.022 195.754L245.934 192.953L242.902 190.549L239.86 187.522L238.597 185.054L237.411 183.233L236.44 180.043L235.749 176.326L236.871 171.508L238.338 169.181L231.401 167.446L228.693 167.371L226.503 168.351L224.529 167.091L220.429 165.69L215.552 160.636L209.823 151.455L203.523 148.502L201.494 145.302L198.916 142.414L196.661 138.836L196.316 137.274L195.636 136.401L192.485 133.901L188.947 129.666L188.03 126.261L187.08 121.045L184.717 119.203L182.398 118.351L181.945 115.862L182.085 114.472L181.297 111.832L176.507 105.496L174.08 100.28L172.742 98.653L171.49 96.2715L170.854 91.39L168.868 85.3124L165.028 77.9958L161.823 73.0603L160.227 68.0818L160.939 63.0063L160.399 59.8707L159.989 59.138L160.313 58.1143L161.381 58.6852L162.276 57.7693L162.168 54.5258L161.047 53.5452L157.939 52.5323L156.569 51.8319L149.017 50.5066L144.69 48.6637L144.41 44.3751L142.382 42.403L140.58 41.1853L134.883 38.6531L133.988 39.9461L133.222 42.3382L130.848 42.8555L128.777 42.9634L125.303 41.304L116.682 34.9785L114.859 33.9656L112.172 33.4266L110.824 32.3707L104.998 29.0302L106.163 30.8083L107.846 32.6509L109.346 38.0066L107.587 41.8643L106.562 55.3125L107.684 57.9851L110.209 62.2628L111.957 69.0411L112.496 74.0841L114.071 78.0819L113.575 87.4569L114.179 90.3018L116.585 94.9676L121.041 99.3426L121.969 101.638L127.817 104.968L131.377 109.289L138.433 115.172L140.655 117.651L147.021 126.8L147.226 129.515L148.402 132.845L151.973 132.155L153.57 134.687L153.386 135.851L153.818 136.746L155.684 136.552L157.292 137.241L160.68 147.08L162.492 148.427L164.823 148.998L167.423 150.086L167.595 152.597L167.498 154.601L169.699 157.5L169.322 161.423L171.102 164.741L170.832 167.953L171.566 170.485L177.057 176.218L183.822 180.765L185.235 186.724L187.997 192.166L190.824 193.534L193.672 195.787L193.316 198.136L193.521 199.569L197.341 203.847L197.955 209.289L201.246 212.856L202.174 213.136L202.897 212.575L200.502 208.998L199.347 206.67L199.196 203.006L200.005 202.522L206.835 208.319L207.558 212.64L209.845 215.086L210.017 218.384L211.409 220.345L211.83 223.19L214.031 227.877L214.085 234.375L215.25 239.106L219.555 246.358L223.04 247.877L223.666 251.433L227.291 260.614L231.477 265.582L233.559 269.795L233.839 272.414L232.275 276.293L232.103 278.987L234.379 287.198L237.777 291.401L241.586 292.414L242.244 293.017L241.942 294.138L243.215 295.14L244.65 293.858L245.351 292.036L244.628 289.914L244.499 288.373L245.146 287.263L246.387 287.101L253.659 292.705L254.878 294.86L257.575 297.371L260.057 300.463L261.125 302.899L263.11 304.914L264.135 309.591L269.195 311.681L271.881 315.539L272.065 317.985L270.759 324.235L269.626 326.035L265.548 328.696L262.581 331.853L259.711 333.804L256.669 334.989L254.166 334.72L251.749 331.088L248.879 320.086L246.959 317.769L245.61 314.31L243.366 311.444L235.274 307.101L231.196 302.511L227.237 299.44L222.975 294.989L211.366 287.608L206.554 283.847L203.382 280.119L201.343 280.172L199.768 280.561L199.164 279.537L199.077 277.597L198.376 276.336L191.59 270.711L190.187 267.597L189.896 263.976L191.428 254.645L192.108 249.17L191.676 246.347L190.964 245.959L190.317 244.429L190.166 239.914L188.526 235L182.365 224.903L177.866 222.91L173.864 221.455L162.891 212.5L159.914 208.017L159.191 205.463L158.813 200.269L157.303 203.276L155.285 205.506L150.635 205.345L145.413 207.856L142.306 205.496L140.623 202.812L138.066 199.591L135.196 198.955L133.362 198.868L129.92 194.871L127.137 193.599L123.156 193.103L119.768 191.078L118.721 188.858L118.16 185.722L116.898 183.868L111.579 180.194L107.253 176.132L103.175 173.524L101.977 171.39L101.88 169.925L108.332 170.334L116.003 171.897L119.682 171.455L121.969 169.946L124.159 168.858L124.504 170.032L124.105 172.166L126.209 174.127L129.1 175.711L131.15 175.56L129.154 173.826L127.935 170.291L128.485 169.019L128.453 167.252L125.594 167.651L125.195 166.757L127.644 164.063L130.449 156.972L131.787 149.968L128.852 143.825L123.9 139.558L113.154 127.026L106.735 120.571L104.879 118.168L103.175 117.037L97.9419 115.56L93.5508 111.94L85.8583 106.81L82.5678 104.159L80.302 97.9417L78.5004 97.0906L79.0721 92.78L78.2845 85.1401L76.9899 83.1788L72.8254 81.2715L71.8327 76.0667L71.6277 71.1099L70.8186 67.6507L63.7303 61.8211L63.331 58.9979V56.3145L62.6082 53.6531L58.8213 48.082L54.2468 43.2113L52.6499 40.8837L52.4558 36.1637L50.8374 34.8923L51.4524 34.5691L52.952 34.6874L53.8044 34.0626L53.9016 30.7652L47.0182 25.5818L45.033 18.4375L41.3648 14.6445L40.5017 13.2758L38.5273 6.50866L47.1908 5.74342L55.8544 4.97851L64.5178 4.21327L73.1813 3.44836L81.8449 2.68311L90.5083 1.9182L99.172 1.15296L107.835 0.388047L111.299 0L109.378 5.38793L107.933 7.40314L122.293 12.6832L136.653 17.9524L151.013 23.2111L165.373 28.459L179.733 33.7068L194.093 38.9438L208.453 44.1703L222.813 49.3859L233.516 49.3642L244.218 49.3428L254.921 49.3211L265.624 49.2997L276.326 49.278L287.029 49.2563L297.732 49.2349L308.434 49.2132L308.456 45.2479L308.466 41.2823L308.488 37.3061L308.51 33.3296L315.166 33.3727L321.823 33.4158L328.48 33.4483L335.137 33.4914L341.794 33.5236L348.45 33.5667L355.107 33.6098L361.764 33.6529L362.001 33.7177L362.282 33.8577L364.979 36.8858L367.741 41.6272L370.999 44.9352L374.754 46.8103L381.152 52.3275L390.193 61.4762L397.4 67.554L402.783 70.5926L406.387 73.2004L408.232 75.388L410.713 80.1294L415.396 91.0453V96.0452L417.187 100.776L420.769 106.896L423.897 110.496L426.573 111.584L429.497 113.75L432.669 116.993L436.326 119.17L440.469 120.28L446.188 123.19L453.481 127.888L458.487 130.28L461.195 130.388L463.568 128.879L465.597 125.765L467.593 123.761L469.556 122.866L470.355 121.433L469.988 119.45L471.315 115.011L474.336 108.093L477.939 104.343L482.136 103.761L484.877 102.457L486.171 100.431L488.415 100.215L491.62 101.799L496.831 102.823L504.048 103.276L508.31 103.125L509.616 102.349L510.295 102.392L510.349 103.243L511.417 103.61L513.5 103.481L515.312 104.666L517.643 108.427L525.648 114.44H525.659L526.338 116.498L529.122 119.461L534.258 124.019L537.16 127.942L537.839 131.239L540.461 136.444L545.025 143.545L547.053 147.371L546.557 147.92L546.913 149.914L548.132 153.351L550.387 156.261L553.699 158.642L557.044 162.91L560.421 169.062L564.52 173.739L569.332 176.929L572.051 179.903L572.688 182.651L572.645 185L571.911 186.95L572.224 188.804L573.572 190.56L574.026 192.716L573.497 195.701L573.529 196.541L573.918 197.22L578.19 202.349L580.391 206.487L582.139 213.082L582.15 213.136L584.092 217.08L586.897 218.685L591.202 219.289L594.471 220.657L596.704 222.802L599.531 224.095L602.929 224.537L606.187 225.959L609.316 228.341L615.142 229.903L623.666 230.657L630.15 232.597L634.605 235.722L636.558 236.358L637.087 236.401L637.335 235.927L637.669 235.043L639.396 234.03L643.582 233.362ZM112.248 35.9483L111.245 36.0992L109.367 34.472L109.508 32.9741L109.918 32.8232L111.795 34.1379L112.431 35.2909L112.248 35.9483ZM158.835 128.513L158.619 129.116L155.523 126.983L148.51 119.72L145.964 116.078L145.543 114.364L145.759 110.55L148.165 111.002L150.948 113.556L152.156 115.927L152.21 118.632L157.411 119.914L158.144 125.765L158.835 128.513ZM187.674 130.129L185.397 138.233L183.067 138.104L178.255 135.55L177.748 133.955L179.593 124.537L180.995 123.297L185.192 122.026L185.85 123.19L186.293 125.97L187.674 130.129ZM4.80099 132.306L3.50637 133.621L0.0322667 126.444L0 124.709L1.0141 123.847L2.69724 124.009V125.808L4.11055 127.328L4.66073 128.815L4.80099 132.306ZM97.8233 162.177L97.4133 163.276L92.2993 161.002L95.1045 157.026L94.6945 152.845L95.9137 151.972L97.0249 153.351L98.4922 158.675L97.8233 162.177ZM221.065 231.379L221.443 232.586L221.238 232.931L219.997 232.09L217.904 237.09L217.289 237.543L218.551 230.7L219.879 229.72L221.346 229.526L221.065 231.379ZM192.086 280.442L191.471 280.808L188.882 276.983L188.494 274.353L187.436 273.244L184.825 272.36L187.08 267.004L188.99 255.895L189.831 257.931L187.814 269.181L187.911 270.647L188.85 272.015L189.864 274.332L189.982 276.832L191.763 279.16L192.086 280.442ZM237.206 265.28L238.069 268.987L236.515 268.438L234.487 266.422L233.095 263.847L233.224 262.694L233.494 262.479L236.375 263.998L237.206 265.28ZM202.94 285.474L202.53 287.037L193.413 280.862L195.603 280.28L198.15 280.711L202.94 285.474ZM260.283 293.47L259.625 293.578L258.071 291.832L257.392 287.532L257.705 287.08L260.628 292.403L260.574 293.06L260.283 293.47ZM360.286 376.39L359.401 379.052L357.114 377.985L356.294 376.315L356.132 373.578L357.405 373.114L359.25 374.278L359.628 375.054L360.286 376.39ZM959.46 388.394L960 389.957L959.471 389.774L958.781 388.599L958.285 387.134L958.705 387.101L959.072 387.608L959.46 388.394ZM952.631 418.491L951.056 419.493L950.204 415.959L951.455 412.511L952.976 410.528L955.976 410.302L957.961 409.644L958.209 410.517L956.58 413.19L952.631 418.491ZM226.686 468.308L224.863 468.976L222.177 467.026L222.889 465.485L224.421 464.44L225.856 466.39L226.686 468.308ZM808.987 470.345L805.578 471.078L804.974 470.388L811.846 467.144L813.022 467.284L813.432 467.726L809.872 469.267L808.987 470.345Z" fill="#EDCCFF"/>
</svg>
