<svg width="684" height="600" viewBox="0 0 684 600" fill="none" xmlns="http://www.w3.org/2000/svg">
<path d="M559.701 351.248L560.863 352.831L561.027 363.559L561.292 364.322L560.673 364.436L559.979 365.249L559.165 366.505L558.048 367.154L557.151 367.886L556.305 368.794L555.548 368.989L554.569 367.835L553.894 366.656L554.058 366.397L554.532 366.315L554.708 365.703L554.424 364.821L553.761 364.486L552.928 364.461L552.127 364.858L551.275 365.641L550.795 366.479L550.725 368.163L550.946 370.055L550.94 370.976L550.473 372.118L550.309 373.795L550.643 375.095L550.946 375.87L550.978 376.526L550.182 378.595L550.87 378.986L553.149 379.131L553.818 380.531L554.273 381.49L554.146 382.058L552.531 382.48L550.498 382.947L549.04 382.814L546.401 383.445L544.994 384.416L545.404 385.022L545.89 385.489L546.111 386.769L545.701 388.585L544.028 392.54L542.955 395.056L541.484 398.84L540.241 401.811L540.108 403.949L540.14 405.343L540.001 408.124L538.821 409.657L538.556 409.701L537.148 409.518L536.675 409.455L535.33 409.278L533.247 409.007L530.539 408.648L527.339 408.231L519.96 407.254L508.257 405.715L504.691 405.248L501.491 404.826L498.789 404.466L496.706 404.195L495.361 404.018L494.888 403.955L493.398 403.76L492.597 402.726L490.646 400.222L484.814 392.691L483.842 391.43L481.891 388.913L477.031 382.606L476.374 381.761L476.015 380.809L475.945 378.311V377.763L476.602 376.753L476.917 377.472L477.65 378.45L478.893 378.21L479.474 378.374L479.903 381.837L480.819 383.067L481.929 383.559L485.697 383.83L488.039 383.363L492.654 381.105L495.077 380.292L501.781 380.43L507.153 381.37L515.516 381.925L517.138 381.78L521.652 379.964L524.416 378.362L526.064 377.901L527.149 376.35L527.863 374.332L528.5 373.013L529.315 372.383L530.085 371.26L530.71 369.437L532.262 367.596L538.486 363.111L542.122 359.315L542.444 358.085L544.42 356.243L546.004 354.225L553.421 348.448L554.904 346.057L555.781 343.377L555.888 343.188L556.526 343.074L557.435 343.478L557.53 345.483L557.195 347.376L557.158 349.381L557.025 350.466L557.713 351.355L558.887 351.74L559.398 351.696L559.701 351.248ZM559.411 359.34L559.518 358.501L559.335 358.066L558.578 358.009L558.262 358.734L558.155 359.775L558.679 359.863L559.411 359.34ZM527.244 374.716L527.086 375.095L526.588 375.063L525.338 374.723L524.934 374.18L525.717 373.53L526.064 373.499L526.562 374.18L527.244 374.716ZM507.165 378.273L505.853 378.381L504.665 377.649L507.172 376.671L507.847 376.23L508.579 375.328L509.166 376.104L508.516 377.321L508.055 377.845L507.165 378.273ZM494.49 377.699L494.194 377.838L493.878 376.797L493.897 376.47L494.711 375.997L495.21 376.848L494.49 377.699ZM517.713 379.844L517.719 380.5L515.92 380.31L515.441 380.651L513.963 380.462L512.518 379.989L513.497 379.201L516.047 378.273L517.107 379.118L517.713 379.844Z" fill="#EDCCFF"/>
<path d="M168.2 237.541L168.459 238.165L169.039 239.893L170.51 244.283L171.798 247.714L173.369 252.457L173.862 254.273L174.07 255.528L176.355 260.725L177.712 264.982L178.703 268.439L180.105 273.472L180.711 275.225L179.719 276.139L177.738 279.4L175.623 289.725L172.599 297.753L172.258 302.767L171.773 304.571L170.333 307.107L168.591 309.585L165.492 308.305L160.442 303.94L157.501 299.791L154.345 297.104L151.365 293.54L150.551 290.973L150.583 289.321L149.282 285.291L148.317 283.38L144.681 279.085L143.639 276.789L142.844 275.773L142.042 274.323L140.723 268.716L139.284 265.146L137.643 266.137L137.933 267.638L136.5 269.712L135.636 272.116L136.298 274.077L139.271 277.06L139.871 278.366L140.565 281.185L140.452 285.013L140.931 286.306L143.159 289.144L143.955 290.828L144.435 292.279L145.173 293.591L147.382 296.051L150.557 300.73L153.568 303.884L155.746 305.404L156.668 306.924L156.876 310.84L156.712 312.707L158.624 316.22L159.331 317.992L161.174 319.437L162.02 321.083L162.797 323.763L163.964 331.666L165.567 333.602L170.523 343.939L174.701 350.454L176.721 355.311L179.808 361.201L185.849 374.093L189.44 378.054L190.873 380.28L193.474 381.989L196.289 384.461L193.606 384.222L192.925 384.367L191.984 384.789L191.536 386.291L191.34 387.514L191.668 393.979L192.407 397.271L194.768 403.483L196.529 405.344L197.387 406.549L198.586 407.425L204.185 409.544L207.461 414.01L214.821 419.648L215.541 421.206L215.56 421.566L209.746 421.572H186.499L180.679 421.578H145.811L139.997 421.584H119.243L119.811 419.894L120.158 418.702L119.767 417.869L118.637 417.661L117.898 417.926L116.163 421.464L115.254 421.603L4.90478 421.584V281.191L4.75299 280.346L3.76826 277.262L2.8783 273.339L1.90628 268.508L1.77991 266.937L0.151408 261.942L0 260.523L0.410305 259.514L3.08673 255.295L3.89462 253.239L4.56999 250.773L4.79729 248.767L4.00828 245.689L3.08673 242.921L2.77736 240.082L2.64483 237.288L4.01444 235.377L5.65566 233.586L6.26784 232.489L7.24025 231.253L7.92178 230.672L9.25363 233.183L12.031 233.611L21.0827 231.379L31.0749 233.63L36.5853 234.488L45.0815 236.399L50.251 239.805L51.6715 240.234L55.3892 240.164L57.8256 242.176L67.5212 243.141L72.6972 245.355L75.6321 247.121L77.3932 247.663L78.9523 247.575L81.0543 246.913L83.7118 245.67L86.5963 243.942L92.5868 239.496L94.7076 238.714L96.09 238.922L97.7751 238.859L98.4759 237.654L99.3658 236.828L99.9214 235.888L100.83 234.753L103.949 234.438L110.191 232.495L109.491 233.416L103.803 235.592L106.24 235.863L108.733 235.119L111.58 234.646L112.098 233.719L112.47 231.984L113.013 231.738L114.982 232.066L120.833 234.74L122.292 234.791L127.291 233.025L128.629 233.832L131.671 237.156L130.611 237.087L127.354 234.236L127.064 235.661L125.208 238.159L127.524 239.237L129.412 239.641L130.422 241.035L131.059 242.271L132.921 241.729L134.253 240.045L133.559 239.105L133.092 238.134L133.698 238.108L134.991 238.909L138.697 242.107L139.947 242.769L141.386 242.656L144.397 241.76L145.236 241.899L149.276 240.719L149.749 241.583L150.419 242.441L153.676 241.483L158.782 241.495L162.967 240.455L167.815 237.919L168.2 237.541Z" fill="#EDCCFF"/>
<path d="M196.348 208.192L195.413 208.319L193.23 209.296L192.933 209.593L192.548 210.16L192.478 210.595L192.169 215.288L190.982 215.155L189.537 214.134L189.253 213.251L188.817 212.948L187.782 212.834L185.825 212.387L183.553 213.932L182.587 216.48L182.391 217.672L181.621 220.169L181.893 221.708L182.025 223.695L182.221 225.316L182.019 226.293L181.584 226.81L181.71 227.183L182.101 227.322L183.345 226.88L184.651 227.322L185.907 228.16L186.008 228.703L185.118 229.024L183.016 230.292L181.533 231.761L181.148 233.117L180.144 236.006L180.283 236.599L180.77 236.946L184.191 236.637L187.302 235.47L189.644 234.228L190.383 234.303L189.89 237.482L189.903 237.494L189.499 239.437L189.657 239.765L190.187 241.455L189.183 244.539L188.073 247.05L187.681 248.235L186.595 250.878L185.484 253.937L184.891 256.043L185.024 256.788L184.752 260.641L184.91 261.732L183.61 265.069L183.351 266.715L182.827 268.941L181.931 273.646L180.706 275.223L180.1 273.469L178.699 268.436L177.708 264.98L176.351 260.723L174.066 255.526L173.857 254.271L173.365 252.455L171.793 247.712L170.506 244.281L169.035 239.891L170.859 238.15L170.891 236.712L173.996 233.345L173.971 233.017L173.144 232.121L173.264 231.97L176.704 225.682L178.926 219.438L181.015 210.715L182.505 206.269L183.768 203.317L184.323 200.87L186.355 200.7L187.871 200.958L189.688 201.04L191.14 200.119L191.835 197.363L192.661 196.916L193.084 197.571L193.514 196.846L195.413 195.629L196.354 194.847L197.295 193.882L197.8 193.535L197.484 194.828L197.231 195.673V196.777L197.616 197.382L198.14 198.581L198.462 199.779L197.78 200.769L197.844 201.803L198.027 202.674L198.582 203.689L197.585 205.518L196.6 207.196L196.348 208.192Z" fill="#EDCCFF"/>
<path d="M355.414 113.404V113.568L356.002 115.138L357.459 120.972L358.293 121.71L359.24 122.328L359.909 123.192L360.174 124.063L360.092 125.412L360.123 126.976L360.515 128.175L361.057 129.083L361.562 129.537L362.32 129.581L363.229 129.802L363.841 130.704L365.792 137.282L365.975 138.14L366.795 138.417L368.14 138.291L369.522 138.972L370.999 140.032L372.388 142.031L373.322 142.353L376.251 142.056L380.253 142.378L382.127 143.406L381.938 144.043L380.493 144.749L377.949 145.582L377.198 146.988L376.775 148.811L376.85 149.833L377.475 150.955L379.268 153.188L379.369 153.995L379.691 155.118L380.025 155.887L379.653 157.37L378.024 158.398L375.885 159.508L371.586 164.452L371.264 165.518L371.29 168.432L370.86 169.264L369.503 169.252L368.443 169.101L368.386 170.116L367.711 171.478L367.325 172.658L368.903 175.439L369.188 176.915L368.935 178.258L367.47 180.567L366.606 182.118L366.814 182.465L367.957 183.083L371.504 188.148L372.647 189.926L374.149 189.459L374.711 189.491L375.146 189.775L375.418 190.374V191.131L375.039 192.266L376.951 192.726L377.639 193.874L379.867 197.797L379.785 198.964L378.719 200.812L378.706 202.036L378.934 203.133L379.281 203.518L382.569 203.675L383.964 204.117L387.379 206.11L391.267 209.169L394.442 211.673L397.15 213.798L400.054 213.647L400.843 214.031L401.575 214.694L402.408 216.441L404.069 220.383L405.482 221.688L407.66 224.835L409.705 227.781L408.361 231.779L407.042 235.929V244.128L409.819 244.248L412.905 244.387L412.981 255.121L413.89 255.285L415.329 256.124L415.948 257.386L416.718 258.073L417.658 258.186L418.58 258.805L419.495 259.934L419.83 260.779L419.584 261.365L419.78 262.387L420.417 263.85L421.193 264.538L422.399 265.383L420.764 265.868L418.997 265.496L415.228 263.787L414.004 263.737L412.407 264.386L412.337 264.966L408.354 263.055L406.921 262.671L406.404 262.633L404.119 262.652L400.868 262.999L398.956 263.775L397.63 264.594L397.024 265.402L396.809 265.837L395.774 268.214L394.575 271.261L393.332 273.998L390.914 277.845L389.576 279.618L386.704 282.91L383.598 283.572L368.411 282.197L354.55 280.948L354.095 280.772L348.244 276.067L337.848 267.678L321.619 254.522L316.342 249.969L311.539 245.812L307.745 242.52L302.878 239.644L293.537 234.1L279.479 225.731L277.541 224.785L271.488 223.618L255.859 220.931L258.466 218.446L257.664 216.214L255.765 216.624L254.016 217.153L252.956 213.678L254.306 213.243L253.057 208.696L249.27 194.795L258.037 189.56L283.21 174.43L287.559 173.263L288.48 172.361L292.16 165.083L292.243 164.307L292.249 159.533L292.545 153.913L293.107 150.905L294.086 148.237L294.982 146.288L295.077 144.465L294.957 142.611L294.029 139.805L293.063 136.872L293.17 134.046L293.347 132.533L293.953 130.105L294.988 128.326L296.099 127.229L302.683 125.418L305.965 122.265L307.915 120.385L312.631 115.214L312.789 114.451V114.154L314.505 113.706L317.68 111.039L319.555 108.547L320.148 108.327L321.821 109.14L323.02 109.367L325.779 108.421L327.42 108.919L328.802 109.55L329.573 109.594L333.278 111.146L334.206 111.335L336.112 111.524L338.959 111.613L340.796 110.597L342.089 109.62L342.999 109.645L343.882 109.878L344.627 110.294L345.252 111.026L345.549 112.073L345.428 115.409L345.706 116.286L346.211 116.917L346.849 117.036L347.625 116.311L348.976 115.258L350.643 114.11L351.88 113.057L352.593 112.659L353.71 112.716L354.802 112.899L355.414 113.404Z" fill="#EDCCFF"/>
<path d="M356.302 56.9825L356.675 57.4743L359.547 62.1732L360.809 63.5543L361.548 64.7275L362.046 66.033L362.924 66.9159L364.085 67.3952L365.493 68.6566L366.446 69.6405L368.043 71.6777L369.735 72.4345L375.877 73.904L380.276 74.7807L382.889 73.7968L385.951 73.9292L387.087 73.9797L391.133 69.8298L392.364 68.4422L394.775 67.7231L396.132 66.0644L398.31 64.0588L400.967 62.1668L403.41 60.4638L405.278 59.4358L408.662 57.0266L410.776 56.1942L412.613 56.2194L415.365 59.0449L417.682 61.6117L418.395 62.7344L417.246 63.7435L415.1 64.7148L414.69 65.4275L414.545 66.3419L414.627 67.2123L414.917 67.925L417.549 69.5711L417.846 70.4793L417.865 71.4001L417.568 71.9741L416.981 72.3084L415.151 72.7688L413.579 73.3049L413.036 73.8284L412.563 74.4528L412.632 75.1464L413.106 75.9348L416.318 78.0792L416.684 78.8675L417.322 79.9271L418.111 80.5769L419.449 80.7534L420.093 81.1886L423.199 85.1368L423.956 85.4143L427.585 84.544L428.09 84.5817L428.122 85.5467L428.665 91.1346L429.081 94.0169L429.706 96.8109L430.685 99.359L431.846 101.775L433.449 103.263L437.01 105.054L438.739 105.571L443.29 105.931L447.784 106.719L450.436 107.558L451.25 108.151L451.919 109.059L454.115 113.272L457.575 116.268L464.556 120.752L467.939 122.241L479.339 125.054L486.926 124.896L507.895 119.466L514.864 118.11H517.483L515.924 119.188L513.304 119.806L514.883 120.569L517.325 120.695L518.455 120.569L519.276 119.882L519.408 118.74L519.288 117.611L518.133 112.547L517.464 108.964L522.381 109.21L524.294 108.744L527.109 107.545L529.243 106.82L530.316 106.719L531.376 106.158L532.19 105.452L534.021 100.538L534.936 99.3022L538.042 96.5272L540.68 94.7676L543.445 93.2033L546.948 92.1122L551.6 92.2258L555.305 92.6105L557.452 92.5917L558.468 92.705L559.232 92.5474L559.674 92.2258L560.153 90.0687L560.911 89.3623L562.217 88.757H564.048L566.282 88.5992L568.138 88.7443L570.474 89.5706L573.523 89.6399L575.555 89.4949L576.735 90.321L577.587 91.4249L577.998 92.3457L578.093 93.6069L578.073 94.5657L578.395 94.9377L579.632 95.5117L581.356 95.9405L584.708 96.4577L587.857 97.4543L589.492 98.1291L591.764 99.1823L594.472 101.8L595.476 102.21L596.688 102.475L597.553 102.405L599.585 101.301L601.353 102.115L602.249 102.008L604.282 101.403L606.44 102.159L611.818 105.023L612.411 104.96L612.898 105.25L613.346 105.906L613.661 106.713L614.059 109.173L615.612 110.97L617.512 112.604L619.727 113.499L624.354 115.637L626.374 117.372L628.419 120.311L630.944 124.177L631.31 124.53L637.799 124.41L645.096 124.417L645.986 125.962L645.822 129.021L646.081 132.155L646.737 134.319L646.743 136.311L646.219 137.321L645.809 138.475L645.689 138.979L646.624 139.698L647.444 141.351L647.564 143.653L647.16 144.87L647.217 145.879L647.627 146.737L647.98 148.169L647.917 149.033L647.33 149.89L646.977 150.962L646.51 152.319L646.339 153.391L645.456 153.889L644.755 154.249L644.875 155.605L645.228 156.746L645.639 158.096L645.171 159.023L644.875 160.089L644.225 161.798L644.401 163.217L643.701 164.422L642.817 165.487L642.23 166.339L642.11 167.544L641.466 167.966L640.235 168.956L639.478 169.663L638.361 169.877L638.127 170.445L638.304 171.006L638.771 171.359L639.497 172.583L641.012 174.689L636.644 174.954L635.363 176.815L633.867 179.476L634.599 184.85L633.867 187.606L634.308 189.151L635.425 190.217L636.859 190.81L639.547 190.848L641.327 191.264L641.504 191.977L640.482 193.018L638.847 194.966L637.976 195.818L635.192 199.728L635.217 201.393L635.476 202.736L636.675 206.943L637.85 211.011L639.952 218.327L639.913 220.024L639.257 223.783L639.213 226.066L639.51 229.024L639.289 230.55L639.806 233.969L640.393 234.215L644.944 234.877L649.117 235.488L654.678 236.296L656.363 238.295L657.411 242.679L657.348 245.952L656.874 247.623L652.898 252.385L648.858 257.203L640.646 266.967L640.21 267.49L645.677 273.898L648.624 277.335L648.997 278.162L648.971 279.511L651.995 284.733L653.062 287.452L654.021 289.047L658.749 293.967L661.28 295.077L663.01 295.323L666.948 296.603L668.388 297.625L670.698 300.198L673.412 299.845H673.974L674.125 300.028L674.208 300.854L673.81 304.846L674.561 308.864L675.085 314.9L674.889 315.94L674.239 317.681L674.208 318.797L674.037 319.485L674.214 319.787L675.079 320.197L676.922 320.418L681.372 319.743L681.889 319.914L682.956 320.626L683.758 321.743L683.827 322.272L682.704 323.2L682.52 324.77L682.855 327.122L682.704 327.406L681.719 327.936L681.397 331.329L681.22 331.638L680.071 331.985L674.643 331.752L674.025 331.846L671.986 332.742L668.489 333.385L667.529 333.751L666.241 334.773L665.314 336.015L665.137 337.163L664.954 337.403L662.953 337.169L662.296 338.166L658.414 339.655L657.935 339.976L657.36 341.162L656.376 347.469L656.079 347.904L654.854 348.926L654.734 349.273L654.899 350.427L654.343 352.527L653.908 358.348L653.421 359.975L652.456 360.108L651.698 360.921L650.31 361.924L647.311 361.149L644.932 360.335L637.054 358.424L636.189 357.497L635.697 355.863L634.334 355.403L632.377 357.85L625.724 356.437L623.464 356.872L622.069 356.109L618.484 356.065L615.656 354.539L611.597 355.586L608.391 355.788L603.991 353.113L599.263 352.376L595.426 352.603L593.45 352.395L590.25 351.436L588.735 350.446L586.241 351.203L585.118 349.796L578.067 348.49L576.761 345.999L575.782 343.685L575.706 341.301L573.99 337.125L573.415 331.052L572.777 328.674L571.824 326.605L570.556 324.846L568.832 322.96L567.33 322.209L560.74 320.771L559.472 320.961L556.524 321.9L553.387 323.988L548.236 325.174L547.201 326.069L545.907 328.087L544.228 329.261L541.93 328.958L539.456 330.15L534.867 333.474L532.449 334.489L530.423 334.413L528.245 332.837L523.379 330.717L520.229 330.011L515.861 330.497L513.791 330.143L510.275 327.652L509.353 325.842L507.346 324.631L500.983 321.913L495.832 318.318L494.886 316.956L494.254 314.944L492.014 312.497L486.983 310.497L484.13 308.365L480.784 307.886L477.672 307.956L476.303 307.571L475.059 306.656L470.811 302.242L470.761 300.494L468.141 296.168L467.529 294.623L466.967 290.328L466.241 289.205L463.508 287.433L463.085 286.272L463.666 284.727V283.554L462.246 282.45L460.112 281.864L459.595 280.539L459.986 277.96L459.664 276.339L457.783 273.747L455.006 271.091L452.234 267.156L451.149 266.172L450.442 263.592L449.426 260.527L447.86 260.306L440.273 263.983L438.058 261.915L431.404 258.32L430.944 257.777L430.476 256.951L431.316 256.472L432.149 256.276L433.822 256.92L434.826 256.163L434.428 254.939L432.755 254.182L430.483 254.239L431.108 255.387L428.98 256.472L428.526 257.891L428.835 259.65L429.019 262.11L428.154 263.296L427.484 263.845L424.625 263.99L423.287 265.075L422.422 265.333L421.217 264.488L420.44 263.801L419.803 262.337L419.607 261.316L419.853 260.735L419.519 259.884L418.603 258.755L417.682 258.137L416.748 258.023L415.971 257.336L415.353 256.074L413.907 255.242L412.998 255.078L412.922 244.337L409.836 244.198L407.059 244.079V235.873L408.378 231.723L409.722 227.725L407.677 224.779L405.499 221.632L404.086 220.32L402.425 216.378L401.599 214.631L400.866 213.969L400.077 213.584L397.18 213.736L394.472 211.61L387.415 206.054L383.994 204.055L382.599 203.613L379.31 203.462L378.963 203.077L378.736 201.98L378.742 200.756L379.809 198.908L379.891 197.741L377.663 193.818L376.975 192.67L375.069 192.21L375.447 191.075V190.318L375.176 189.719L374.734 189.435L374.172 189.403L372.676 189.87L371.534 188.092L367.98 183.027L366.838 182.409L366.629 182.062L367.494 180.504L368.958 178.196L369.211 176.859L368.933 175.383L367.355 172.602L367.74 171.422L368.416 170.066L368.472 169.045L369.533 169.196L370.89 169.209L371.319 168.376L371.294 165.462L371.616 164.396L375.92 159.452L378.061 158.342L379.689 157.32L380.061 155.831L379.727 155.062L379.405 153.939L379.304 153.132L377.511 150.9L376.886 149.777L376.811 148.749L377.233 146.932L377.985 145.52L380.529 144.687L381.974 143.981L382.17 143.344L380.295 142.316L376.293 141.994L373.364 142.29L372.43 141.969L371.042 139.976L369.564 138.916L368.182 138.235L366.838 138.361L366.023 138.09L365.834 137.232L363.89 130.654L363.277 129.752L362.368 129.532L361.604 129.487L361.1 129.033L360.557 128.125L360.166 126.933L360.14 125.363L360.222 124.013L359.957 123.143L359.288 122.279L358.341 121.654L357.508 120.922L356.05 115.089L355.463 113.518V113.354L355.488 113.045L355.343 111.702L356.019 110.535L355.974 110.075L354.573 108.599L352.604 107.123L352.073 106.864L352.061 105.288L352.13 104.095L351.953 103.017L351.575 102.399L351.562 101.913L352.351 100.753L351.84 99.9897L348.942 98.1039L347.857 97.1579L345.85 96.9687L345.641 96.3443L345.957 95.0261L346.645 93.4241L347.73 91.8474L348.078 91.0149L348.501 89.5958L348.646 88.5867L349.864 87.1676L349.871 86.7955L349.53 86.2847L348.558 86.0008L347.56 85.8809L347.188 85.6224L347.055 84.8592L347.181 81.7562L346.866 79.8894L346.456 78.5334L346.714 75.4744L346.02 74.8564L344.928 73.2481L344.461 71.8857L344.713 71.3749L344.947 70.4793L345.098 69.2999L345.054 68.4674L344.051 67.6538L343.306 66.7962L343.217 65.85L342.921 64.6896L342.498 63.7688L342.309 63.1696L342.675 62.8164L344.095 62.5389L346.159 62.7344L347.844 62.7469L348.797 62.1541L349.978 56.5599L351.057 55.084L352.307 54.2263L354.75 56.2194L355.76 56.9194L356.302 56.9825ZM557.736 326.296L556.082 328.661L553.589 330.635L552.528 330.024L551.701 330.049L549.921 330.806L548.64 330.938L546.311 332.282L544.19 332.956L542.719 332.906L542.208 332.767L541.918 331.853L541.943 331.487L542.839 331.676L546.115 330.453L550.199 328.447L550.59 327.551L549.934 326.094L550.111 325.766L552.762 326.511L555.722 325.06L558.196 324.663L559.358 325.672L557.736 326.296Z" fill="#EDCCFF"/>
<path d="M255.849 220.932L253.224 223.36L252.605 223.625L231.548 229.812L226.58 231.275L217.105 234.05L223.676 241.158L226.327 244.015L232.242 250.959L235.202 254.422L229.705 257.525L229.358 257.878L229.061 258.237L226.536 264.38L226.151 264.715L221.379 265.711L216.55 266.708L213.508 267.345L212.592 268.039L210.61 271.4L208.559 274.856L205.138 277.682L201.338 280.81L200.397 281.012L188.417 278.918L185.311 278.382L181.543 277.72L182.092 275.077L181.941 273.645L182.837 268.94L183.361 266.714L183.62 265.068L184.92 261.732L184.762 260.64L185.033 256.787L184.901 256.043L185.494 253.936L186.605 250.877L187.691 248.235L188.082 247.049L189.193 244.539L190.197 241.455L189.667 239.764L189.509 239.436L189.913 237.494L189.9 237.481L190.658 232.587L191.257 230.31L192.318 228.38L191.826 223.833L191.882 221.373L192.545 218.573L192.179 215.287L192.488 210.595L192.558 210.159L192.943 209.592L193.24 209.295L195.423 208.318L196.357 208.192L198.264 208.633L199.356 209.617L201.18 212.398L204.02 213.206L205.163 213.994L206.716 215.464L208.616 216L214.625 216.914L228.07 208.23L236.541 202.736L240.063 200.548L249.26 194.796L253.047 208.696L254.297 213.243L252.946 213.679L254.006 217.154L255.755 216.624L257.655 216.214L258.456 218.447L255.849 220.932Z" fill="#EDCCFF"/>
<path d="M412.311 264.968L412.222 265.719L412.791 267.958L414.059 270.398L415.101 272.372L415.233 273.3L414.28 273.167L413.554 272.795L412.159 272.404L409.464 275.022L407.836 276.447L407.791 276.933L409.963 277.481L411.56 277.469L412.671 277.084L413.611 277.696L414.23 279.31L414.476 280.622L415.953 285.283L417.178 286.853L418.705 289.629L419.273 291.066L419.601 292.271L420.535 294.05L417.455 294.094L413.573 294.157L406.87 294.239L405.305 292.34L404.781 290.259L404.212 288.121L402.653 285.068L397.439 284.331L394.669 283.933L386.684 282.918L389.562 279.626L390.9 277.853L393.317 274.012L394.561 271.269L395.76 268.223L396.796 265.851L397.01 265.416L397.61 264.609L398.935 263.782L400.848 263.007L404.099 262.666L406.384 262.647L406.901 262.685L408.34 263.07L412.311 264.968ZM417.569 272.24L416.553 272.694L415.871 272.499L415.214 271.408L414.135 268.696L414.722 267.68L414.703 267.245L414.823 266.917L415.158 266.709L415.505 265.429L415.972 265.038L416.729 265.902L418.863 269.024L418.85 270.298L418.724 270.808L417.569 272.24Z" fill="#EDCCFF"/>
<path d="M197.793 193.533L197.288 193.88L196.347 194.845L195.407 195.627L193.507 196.845L193.078 197.57L192.655 196.914L191.828 197.362L191.133 200.118L189.682 201.039L187.864 200.957L186.349 200.698L184.316 200.869L185.143 199.267L186.002 197.179L186.848 194.366L188.344 192.026L191.443 184.054L193.235 180.819L193.873 176.215L196.644 172.184L198.714 170.986L199.718 169.832L199.693 168.079L202.786 168.091L204.78 168.003L205.355 167.019L206.914 167.467L207.779 168.413L206.996 169.416L205.891 170.557L205.954 170.854L206.781 170.948L208.183 171.566L209.041 172.292L210.474 176.795L209.59 178.643L208.214 180.295L207.602 180.44L206.396 181.26L205.386 182.383L205.033 183.089L205.109 183.751L206.535 184.578L206.579 184.912L206.283 185.177L205.128 184.994L203.638 184.906L202.76 184.912L201.744 185.076L200.444 186.085L199.863 186.754L199.554 187.182L199.087 188.551L199.611 189.491L200.583 190.027L200.722 190.298L200.501 190.771L199.535 191.364L198.809 192.089L198.601 192.827L197.793 193.533Z" fill="#EDCCFF"/>
<path d="M559.685 351.248L559.337 351.696L558.826 351.74L557.652 351.355L556.964 350.466L557.097 349.381L557.134 347.376L557.469 345.483L557.374 343.478L556.466 343.074L555.828 343.188L557.311 340.356L557.898 339.921L558.447 340.103L559.817 339.801L560.537 338.262L561.111 337.423L561.723 337.524L562.02 337.997L561.805 340.337L561.78 342.286L561.023 348.24L560.24 349.268L559.842 350.1L559.685 351.248ZM559.394 359.34L558.662 359.863L558.138 359.775L558.246 358.734L558.561 358.009L559.318 358.066L559.501 358.501L559.394 359.34ZM502.781 521.328L500.634 516.484L499.555 514.062L497.731 509.931L496.469 509.332L495.698 507.535L492.567 500.168L491.778 498.32L489.43 492.776L488.641 490.928L487.859 489.08L485.511 483.518L484.722 481.663L483.156 477.955L500.881 471.749L503.923 470.677L510.014 468.545L516.105 466.4L519.148 465.335L534.373 459.974L536.26 459.311L538.994 450.583L539.65 448.501L540.95 444.339L541.6 442.251L542.257 440.163L544.857 431.801L545.514 429.707L546.164 427.613L547.464 423.412L548.064 421.489L546.94 419.634L545.438 417.137L543.86 414.526L542.383 412.066L541.304 410.275L540.003 408.111L540.142 405.33L540.111 403.936L540.243 401.798L541.487 398.828L542.958 395.043L544.031 392.527L545.703 388.573L546.114 386.756L545.892 385.476L545.407 385.009L544.996 384.404L546.404 383.432L549.042 382.802L550.501 382.934L552.533 382.467L554.149 382.045L554.275 381.477L553.821 380.518L553.152 379.118L550.873 378.973L550.185 378.582L550.98 376.514L550.949 375.858L550.646 375.082L550.311 373.783L550.475 372.105L550.943 370.964L550.949 370.043L550.728 368.151L550.797 366.467L551.277 365.628L552.129 364.846L552.931 364.448L553.764 364.474L554.427 364.808L554.711 365.691L554.534 366.303L554.06 366.385L553.896 366.643L554.572 367.823L555.55 368.977L556.308 368.781L557.153 367.873L558.05 367.141L559.167 366.492L559.981 365.237L560.676 364.423L561.294 364.31L563.099 369.406L565.776 374.167L568.137 376.791L570.592 380.348L574.323 383.615L576.033 384.732L582.97 387.021L586.764 387.879L591.99 388.699L595.607 390.477L596.819 390.591L598.713 390.061L600.095 390.105L603.554 392.527L604.57 394.823L606.01 396.034L607.278 397.938L608.105 399.931L611.028 402.965L613.085 406.377L615.181 408.9L617.056 410.47L619.896 411.088L622.156 411.795L622.408 413.479L622.175 415.674L621.746 417.295L619.638 420.448L619.133 422.39L616.747 425.594L614.158 430.962L612.972 432.16L608.799 434.922L605.732 438.246L602.096 444.011L599.331 449.712L598.271 451.535L596.043 451.913L594.585 451.756L593.575 451.22L593.972 449.662L594.212 447.927L592.868 448.11L591.687 448.47L588.929 452.727L587.414 454.594L587.092 456.959L586.36 460.012L585.281 462.818L584.801 465.177L584.82 466.514L585.628 469.775L585.684 473.111L586.152 475.11L586.53 477.507L585.236 478.245L584.125 478.611L579.732 478.876L575.282 479.645L571.394 481.033L569.071 482.414L566.047 485.498L564.198 493.312L561.237 496.605L559.23 497.292L554.401 497.582L547.603 498.49L545.217 499.279L541.253 504.034L540.944 505.529L541.708 506.607L541.96 507.799L541.6 508.916L539.801 511.924L537.857 514.106L532.681 515.475L530.781 514.661L529.045 514.251L525.687 514.207L520.221 514.725L518.207 516.339L515.033 517.481L512.104 519.24L506.574 519.909L502.781 521.328ZM602.626 455.105L601.509 455.388L601.187 455.256L601.193 452.885L603.794 449.895L605.505 446.439L606.685 449.529L604.633 451.257L603.522 454.209L602.626 455.105Z" fill="#EDCCFF"/>
<path d="M170.843 238.15L169.019 239.89L168.438 238.162L168.18 237.538L171.531 234.214L173.128 232.12L173.955 233.016L173.98 233.35L170.875 236.712L170.843 238.15ZM191.8 223.833L192.286 228.386L191.232 230.316L190.632 232.593L190.367 234.309L189.628 234.233L187.286 235.476L184.175 236.649L180.754 236.951L180.267 236.604L180.128 236.012L181.132 233.123L181.517 231.767L183 230.304L185.102 229.036L185.992 228.714L185.891 228.172L184.635 227.333L183.322 226.898L182.079 227.333L181.687 227.201L181.555 226.829L181.991 226.305L182.192 225.334L181.997 223.707L181.864 221.726L181.593 220.187L182.369 217.69L182.565 216.498L183.53 213.95L185.797 212.405L187.76 212.852L188.795 212.966L189.23 213.269L189.515 214.152L190.96 215.173L192.147 215.306L192.513 218.592L191.85 221.398L191.8 223.833Z" fill="#EDCCFF"/>
<path d="M470.615 371.535L469.018 371.933L467.522 372.355L466.273 372.343L465.262 372.179L464.594 371.769L463.306 370.129L462.397 368.004L462.958 366.818L463.148 366.08L461.917 360.467L461.52 356.146L461.664 355.263L462.365 354.242L463.539 351.984L464.164 349.808L465.919 344.775L467.781 342.832L470.508 341.407L472.755 344.195L475.482 346.32L476.006 348.698L475.204 350.634L474.459 353.699L474.907 355.112L475.072 356.336L475.81 358.385L476.53 361.041L476.65 362.889L476.265 364.598L475.312 366.036L473.443 370.35L472.887 370.797L470.615 371.535Z" fill="#EDCCFF"/>
<path d="M386.691 282.912L394.676 283.927L397.447 284.325L402.661 285.063L404.22 288.115L404.788 290.253L405.312 292.334L406.877 294.233L413.581 294.151L417.463 294.088L420.543 294.044L421.534 295.929L421.97 297.809L423.8 302.255L426.413 305.718L427.038 306.979L427.455 308.878L427.001 309.584L426.824 310.398L428.762 312.29L431.955 313.892L433.205 314.295L434.625 315.002L433.521 316.093L435.408 318.616L437.598 321.183L439.947 321.763L443.115 325.635L447.894 328.139L450.791 331.419L450.519 331.482L449.667 331.147L448.601 330.7L448.279 331.103L448.336 332.478L448.62 334.093L450.097 335.487L451.41 336.49L451.921 338.388L450.886 342.469H450.526L449.832 342.115L449.093 342.033L448.695 342.267L449.573 345.2L450.45 347.445L451.498 349.223L452.375 351.822L453.126 352.932L456.2 355.688L457.147 357.99L458.025 362.273L459.956 364.656L460.998 366.492L462.393 368.05L463.302 370.175L464.589 371.809L465.258 372.219L466.262 372.389L467.512 372.395L469.008 371.973L470.605 371.575L471.848 372.401L473.136 372.275L473.268 373.045L472.404 374.092L471.343 376.728L472.852 377.144L474.297 377.352L475.32 377.775H475.92V378.324L475.989 380.821L476.349 381.774L477.005 382.619L481.865 388.926L483.816 391.442L484.788 392.704L490.621 400.234L492.571 402.738L493.372 403.772L494.862 403.968L495.336 404.031L496.68 404.207L498.763 404.479L501.465 404.838L504.665 405.261L508.231 405.727L519.934 407.266L527.313 408.244L530.513 408.66L533.221 409.02L535.304 409.291L536.649 409.467L537.122 409.531L538.529 409.713L538.795 409.669L539.975 408.137L542.355 412.091L543.832 414.551L545.41 417.162L546.912 419.66L548.036 421.514L547.436 423.437L545.486 429.732L544.829 431.826L543.529 436.013L542.229 440.189L541.572 442.276L539.622 448.527L538.965 450.608L536.232 459.337L534.345 459.999L519.12 465.36L516.078 466.426L509.986 468.57L503.895 470.702L500.852 471.774L483.128 477.98L474.928 479.134L448.777 482.83L433.786 484.949L431.116 485.681L423.163 489.755L415.708 493.558L413.044 496.888L411.693 498.572L409.257 501.619L405.211 506.658L402.768 512.851L401.486 513.797L399.391 515.021L397.485 515.891L394.512 515.765L392.814 513.457L391.015 511.003L390.112 510.02L389.304 509.969L386.319 510.278L382.721 510.656L378.479 510.259L368.998 509.357L366.713 509.029L363.702 507.44L362.926 507.125L362.137 507.049L355.023 506.973L351.475 507.478L348.079 507.295L344.557 507.585L343.32 508.19L341.944 508.159L341.086 508.695L340.328 508.947L339.432 508.487L338.334 508.588L336.718 508.19L335.664 507.15L334.666 506.235L333.637 505.731L332.489 505.415L331.491 505.409L330.216 505.964L329.44 506.5L327.471 508.298L327.388 508.941L328.285 510.013L328.013 510.518L326.852 511.148L326.492 512.845L326.322 513.772L326.151 515.992L326.669 517.739L327.357 518.383L327.388 519.133L327.01 520.634L325.943 521.094L325.16 522.52L324.68 523.182L323.847 523.939L320.534 526.455L320.369 524.992L319.315 522.823L319.239 521.29L318.747 519.751L317.838 518.565L316.159 517.329L316.007 515.652L314.783 513.993L313.161 512.656L312.258 510.184L311.577 506.898L307.297 502.571L301.944 498.572L300.316 496.321L297.652 491.723L296.307 488.084L292.728 483.89L292.577 482.275L292.047 480.307L291.22 478.112L290.721 476.384L287.13 468.778L285.968 467.567L284.971 465.864L284.712 464.546L284.396 463.827L281.859 462.578L279.492 459.375L272.378 454.266L268.894 453.755L266.135 451.926L264.103 449.536L261.938 445.411L258.125 440.946L254.893 434.601L255.91 432.286L255.846 430.659L254.849 427.915L253.77 425.796L253.025 423.791L253.612 420.908L253.839 417.679L254.477 415.964L254.937 414.078L254.338 410.281L253.265 408.244L253.372 406.888L252.154 406.226L251.169 404.75H252.198L250.33 402.7L249.642 401.558L248.935 398.771L248.032 396.639L245.135 391.795L243.746 388.837L240.64 385.009L237.27 382.177L235.13 380.891L234.095 379.718L232.346 379.68L230.44 378.002L229.108 377.939L227.423 377.668L225.441 374.432L223.806 371.399L221.016 367.444L221.717 366.41L222.531 364.726L222.127 362.518L221.685 361.017L220.454 358.28L216.408 351.456L215.335 350.453L213.612 349.299L212.552 346.335L212.065 343.673L209.294 342.38L204.529 332.756L201.764 329.382L200.672 327.111L197.478 323.371L195.906 319.644L192.687 316.2L189.897 310.215L185.586 304.217L183.774 303.176L179.331 302.747L177.462 302.306L175.745 303.624L175.594 301.953L176.78 299.638L178.491 294.769L178.832 290.493L181.521 277.74L200.382 281.032L201.322 280.824L205.122 277.696L208.543 274.871L210.595 271.408L212.577 268.046L213.486 267.353L226.135 264.729L226.52 264.388L229.045 258.245L229.336 257.886L229.683 257.533L235.18 254.43L232.22 250.967L226.299 244.023L217.077 234.058L252.57 223.633L253.189 223.368L255.815 220.933L265.706 222.643L271.444 223.626L277.491 224.793L279.429 225.739L289.061 231.479L307.695 242.528L316.292 249.971L321.569 254.524L325.911 258.056L331.895 262.912L337.791 267.687L348.187 276.075L354.038 280.78L354.493 280.957L383.547 283.574L386.691 282.912ZM210.67 350.031L210.506 350.295L209.762 349.608L209.806 348.101L210.45 347.243L210.399 348.416L210.677 349.602L210.67 350.031ZM216.099 356.464H215.632L214.388 355.146L213.662 354.174L212.918 353.518L209.522 352.2L209.061 351.349L209.579 350.497L209.945 351.343L210.563 351.841L213.372 353.033L216.503 355.631L217.04 355.846L216.099 356.464ZM306.199 520.098L307.568 520.205L307 519.619L306.88 519.335L307.473 518.49L309.43 520.23L309.374 522.293L309.209 522.766L308.679 522.324L308.332 521.889L308.225 521.422L307.682 520.918L305.776 521.246L304.589 520.684L302.891 518.95L302.437 517.695L303.143 517.449L303.894 516.844L304.368 515.853L303.933 514.825L304.942 514.989L305.485 516.043L305.593 518.433L305.744 518.938L305.466 519.486L306.199 520.098Z" fill="#EDCCFF"/>
<path d="M312.79 114.156V114.453L312.632 115.216L307.917 120.388L305.967 122.267L302.684 125.421L296.1 127.231L294.99 128.328L293.955 130.107L293.349 132.535L293.172 134.049L293.065 136.874L294.03 139.807L294.958 142.614L295.078 144.468L294.983 146.29L294.087 148.239L293.108 150.907L292.547 153.916L292.25 159.535L292.244 164.31L292.162 165.085L288.482 172.363L287.56 173.265L283.211 174.432L258.038 189.563L249.271 194.797L240.074 200.549L236.552 202.738L228.081 208.231L214.636 216.916L208.627 216.001L206.727 215.465L205.174 213.996L204.031 213.207L201.191 212.4L199.367 209.619L198.275 208.635L196.369 208.193L196.621 207.197L197.606 205.519L198.603 203.69L198.048 202.675L197.865 201.804L197.801 200.77L198.483 199.78L198.161 198.581L197.637 197.383L197.252 196.778V195.674L197.505 194.829L197.821 193.536L198.629 192.829L198.837 192.092L199.563 191.366L200.528 190.773L200.749 190.3L200.61 190.029L199.638 189.493L199.114 188.553L199.582 187.185L199.891 186.756L200.472 186.087L201.772 185.078L202.788 184.914L203.665 184.908L205.155 184.996L206.31 185.179L206.607 184.914L206.563 184.58L205.136 183.754L205.061 183.092L205.414 182.385L206.424 181.263L207.629 180.443L208.242 180.298L209.618 178.645L210.502 176.797L209.069 172.294L208.21 171.569L206.809 170.951L205.982 170.856L205.919 170.56L207.023 169.418L207.806 168.415L206.941 167.469L205.383 167.021L204.808 168.005L202.813 168.094L199.72 168.081L198.357 163.3L198.149 161.225L198.187 158.822L199.127 155.303L198.685 153.67L198.647 152.566L198.407 151.052L195.965 147.785L197.297 141.756L198.237 140.292L199.563 140.431L202.391 142.147L202.858 142.096L203.716 139.838L204.549 139.075L206.291 138.4L206.79 134.742L207.604 134.042L208.589 133.664L210.104 133.588L211.417 133.374L211.499 132.73L209.656 128.486L209.82 127.407L210.71 123.131L211.272 121.454L211.808 120.905L213.898 121.119L216.82 121.876L217.597 123.106L219.029 124.203L221.169 124.128L223.65 124.336L225.581 124.405L227.128 123.636L230.618 122.198L232.342 121.718L233.913 121.082L238.963 118.723L240.989 118.906L242.372 119.215L243.432 119.593L245.806 121.201L247.768 122.828L249.151 123.314L251.625 123.276L255.204 123.592L259.598 123.566L262.167 123.112L265.442 122.311L271.288 120.388L278.976 116.357L283.495 114.396L285.446 114.163L287.983 114.144L290.521 114.655L293.399 115.021L294.731 114.989L297.843 114.585L301.882 113.765L304.42 113.097L307.488 111.999L309.4 110.17L310.019 109.981L310.814 110.316L311.187 110.442L311.969 111.476L312.79 114.156Z" fill="#EDCCFF"/>
<path d="M58.6467 2.96428L58.1666 5.66988L59.2839 8.64687L61.8971 12.7652L64.5296 14.8403L75.1656 19.9614L77.1223 20.3966L76.6804 22.4905L76.0367 24.3448L75.3359 25.5811L72.2176 26.3756L63.6204 24.0988L61.4429 23.8844L59.9088 24.3384L57.0686 25.991L53.9187 25.4611L49.5256 26.3946L48.3008 29.5039L45.2522 33.0548L40.2342 35.918L36.6485 37.4507L31.2579 42.9252L28.8154 46.1101L27.7863 46.7283L26.562 47.2203L26.9723 45.6876L27.5783 44.2875L27.4392 43.228L27.4646 41.689L29.2573 39.9419L30.8919 38.6743L35.7208 36.3723L36.996 34.4548L33.2085 34.4991L29.3582 34.9216L26.9407 34.6504L24.8325 34.808L24.1695 33.1304L23.6582 32.1213L24.2076 31.806L24.9019 31.5853L26.139 29.7941L27.2435 28.4759L28.8343 26.8108L29.2384 25.8143V24.8872L28.8531 24.2439L28.7776 23.4744L28.7268 22.396L28.8154 20.157L32.4638 17.7099L33.6315 17.4514L34.0291 16.3287L33.7641 13.7303L33.259 11.63L32.6025 11.4912L31.7253 10.8794L31.1508 10.1668L30.2293 9.39097L28.6447 8.91171L28.5942 8.24941L28.7584 7.5873L29.3455 6.90614L32.0219 6.31948L32.3374 5.84022L32.6973 4.65439L33.2274 3.44354L33.8588 3.04628L34.9884 3.084L37.1347 2.80645L38.6307 2.40919L40.114 1.57674L40.878 0.819744L44.0972 0.384562L44.9995 0L45.896 0.327975L47.1015 1.62082L49.0837 3.47511L50.1439 4.09314L50.9395 3.80943L52.3784 3.13443H53.7546L54.8657 3.25434L55.402 2.66768L56.2415 2.54161L58.6467 2.96428ZM297.719 13.6356L298.893 14.1087L301.115 14.714L302.491 15.4456L303.274 15.6412L305.085 14.1528L307.774 14.1907L310.141 14.3608L311.359 14.6384L312.855 15.1303L314.661 15.4647L315.399 14.7519L316.453 12.6517L316.864 12.3868L317.154 12.1976L318.492 12.0336L319.761 12.1913L320.361 12.5508L320.961 14.2348L322.469 14.8339L325.133 17.5143L326.761 18.5866L327.159 19.0343L326.622 19.5769L326.837 20.2453L327.765 21.1157L329.072 21.4436L330.485 21.3237L331.256 21.6392L331.805 22.1312L331.95 22.8248L331.912 23.2664L332.19 24.2565L333.294 25.6567L334.607 26.5144L335.314 27.429L336.463 30.5761L336.93 32.3105L336.753 33.9819L335.958 35.6911L334.216 37.8166L334.645 38.7058L335.037 39.8789L334.904 40.7303L336.141 43.4424L336.703 45.1263L336.236 45.5173L335.933 46.0535L338.155 47.3463L340.819 48.4311L341.942 48.6392L344.997 48.1411L346.967 48.0338L348.923 49.0618L351.77 51.553L354.844 54.7949L355.456 55.7788L355.721 56.214L356.321 56.996L355.696 56.9835L354.686 56.2833L352.244 54.2904L350.994 55.148L349.914 56.6239L348.734 62.2182L347.781 62.811L346.096 62.7985L344.031 62.6029L342.611 62.8805L342.245 63.2337L342.434 63.8328L342.857 64.7536L343.154 65.914L343.242 66.8601L343.987 67.7179L344.991 68.5315L345.035 69.3639L344.884 70.5434L344.65 71.439L344.397 71.9498L344.865 73.3121L345.956 74.9204L346.651 75.5385L346.392 78.5973L346.802 79.9534L347.118 81.8202L346.992 84.9233L347.124 85.6864L347.497 85.9449L348.494 86.0648L349.466 86.3486L349.807 86.8596L349.801 87.2316L348.582 88.6507L348.437 89.6599L348.014 91.0788L347.667 91.9114L346.581 93.4882L345.893 95.0901L345.578 96.4082L345.786 97.0326L347.793 97.2218L348.879 98.168L351.776 100.054L352.287 100.817L351.498 101.977L351.511 102.463L351.89 103.081L352.067 104.159L351.997 105.351L352.01 106.928L352.54 107.187L354.509 108.663L355.911 110.138L355.955 110.599L355.279 111.766L355.425 113.109L355.4 113.418L354.794 112.914L353.701 112.731L352.578 112.674L351.871 113.071L350.634 114.125L348.967 115.272L347.617 116.326L346.84 117.051L346.196 116.931L345.698 116.3L345.42 115.417L345.54 112.081L345.243 111.034L344.612 110.302L343.867 109.886L342.983 109.653L342.068 109.628L340.774 110.605L338.937 111.621L336.091 111.539L334.178 111.35L333.257 111.16L329.551 109.609L328.781 109.571L327.399 108.94L325.758 108.442L322.993 109.388L321.8 109.161L320.127 108.341L319.534 108.562L317.665 111.059L314.484 113.727L312.767 114.175L311.953 111.494L311.164 110.454L310.792 110.328L309.996 109.994L309.378 110.183L307.465 112.012L304.397 113.109L301.86 113.778L297.82 114.591L294.702 114.995L293.376 115.026L290.498 114.661L287.961 114.15L285.423 114.169L283.473 114.402L278.953 116.363L271.265 120.394L265.42 122.317L262.144 123.118L259.575 123.572L255.182 123.598L251.602 123.288L249.122 123.32L247.746 122.834L245.783 121.207L243.41 119.599L242.349 119.221L240.967 118.912L238.947 118.729L233.897 121.087L232.325 121.731L230.596 122.21L227.105 123.648L225.559 124.417L223.621 124.348L221.146 124.146L219 124.216L217.568 123.125L216.791 121.895L213.869 121.138L211.779 120.917L211.243 121.466L210.687 123.143L209.797 127.426L209.633 128.498L211.476 132.743L211.394 133.386L210.081 133.607L208.572 133.682L207.588 134.061L206.774 134.761L206.281 138.419L204.533 139.087L203.7 139.851L202.841 142.108L202.374 142.159L199.546 140.45L198.221 140.311L199.363 138.539L198.126 135.026L196.775 131.734L198.05 129.627L200.689 127.079L203.46 124.09V122.242L203.315 120.829L202.519 119.851L200.992 118.552L198.435 119.94L196.611 121.472L195.418 121.781L194.124 122.652L193.493 124.228L191.928 125.452L189.371 125.931L185.527 124.619L181.399 122.626L179.063 121.005L177.157 120.614L175.345 121.327L169.999 125.288L165.107 131.065L163.895 132.062L159.287 134.54L156.245 135.366L154.812 135.177L148.746 136.262L145.735 136.42L143.349 137.725L138.722 136.312L135.958 134.502L134.291 132.661L131.577 128.694L129.652 126.808L125.328 125.105L117.791 120.968L115.809 120.514L110.665 119.921L105.243 119.542L104.145 121.05L103.728 127.01L102.8 128.643L102.403 131.727L101.739 132.61L100.698 133.19L99.0696 132.219L97.9396 131.79L95.3075 133.058L90.0999 134.83L88.3262 135.083L82.2918 132.85L80.0827 131.412L78.6561 129.823L78.1764 127.129L77.2799 125.597L77.1474 124.544L76.7941 123.333L75.5759 122.853L74.2691 123.774L72.8679 123.736L71.113 123.175L66.966 120.911L63.7845 120.728L61.8655 123.49L60.3761 124.367L58.7476 124.632L58.6528 123.85L59.8899 122.059L54.9223 122.387L52.3029 123.749L50.2576 123.534L48.7238 122.923L48.9511 122.172L50.5037 121.895L51.8545 121.283L57.2327 120.785L58.4887 120.286L59.8649 118.338L62.3645 116.66L62.6861 115.941L60.761 115.935L52.5175 116.42L46.8619 116.155L46.1927 116.988L45.3405 117.108L45.107 114.843L46.0031 113.79L47.2024 113.891L50.1632 112.977L49.8977 111.091L47.7834 109.817L47.3542 109.06L45.8139 108.883L44.5703 107.982L44.2991 105.711L43.3082 103.213L41.8943 102.009L42.0707 101.347L44.6651 100.502L45.2018 97.001L44.8042 94.8505L43.4974 94.6674L39.691 92.9646L38.5359 93.1475L37.2734 91.2743L35.0643 89.9311L33.9725 90.4228L33.2844 91.0347L32.2619 90.7447L30.551 89.5779L28.8658 88.9471L28.1211 88.1651L29.055 86.0774L30.3429 86.1278L30.5764 84.4945L29.5601 81.7635L29.661 80.3571L30.7848 79.9723L32.0662 80.2371L33.3599 81.8707L33.783 83.4474L33.5117 84.9862L34.332 86.4748L34.9191 86.8532L35.3105 85.2828L35.8595 84.9862L36.6169 85.6674L38.2393 86.0081L42.4433 85.0494L43.2512 84.2358L40.171 84.3305L39.0472 83.5673L37.8228 81.8582L37.0716 80.3066L36.939 79.5435L36.516 78.4271L36.9833 77.8279L39.0915 76.9324L40.9411 74.4158L40.1644 73.6905L39.281 73.3437L38.3214 73.6022L37.4125 72.7382L37.2927 71.5398L38.0185 70.5686L38.094 69.2315L35.7147 65.9329L35.0516 65.214L35.5694 64.1354L37.3871 62.3254L39.1169 60.0802L38.9085 59.3422L37.6271 59.0395L31.555 60.0043L29.1941 60.837L24.9839 61.2217L24.6807 59.9982L24.7755 58.9007L25.7225 56.8951L25.6339 51.9378L26.196 49.2447L28.5376 48.4375L31.4097 44.4704L36.0618 39.7779L40.9219 39.8662L42.8663 38.567L45.7508 38.4914L46.2747 39.4311L46.603 40.333L49.1341 41.6322L53.6032 41.4241L54.6889 40.9133L55.7429 40.2006L53.6725 37.8922L54.329 37.2363L56.2037 37.1606L58.2364 37.703L58.3307 38.2327L57.7945 38.9581L57.163 40.2258L57.7629 40.4718L63.5449 39.7023L69.592 40.3203L71.5171 39.9861L76.2701 40.0114L77.1223 39.2166L75.683 38.2139L74.2752 37.867L73.3286 37.3814L72.3817 36.6687L75.399 34.4296L77.1031 34.0008L85.1385 32.6196L91.1162 31.9321L91.1921 31.4149H90.3272L82.6073 30.267L80.7453 29.3841L78.1637 27.2712L77.602 26.6722L76.9517 25.6378L77.3431 23.4367L77.8227 21.6644L78.7759 20.6364L81.8626 20.4786L92.4419 22.2824L99.9784 21.204L108.216 23.8276L116.1 23.2979L117.722 22.1185L119.698 18.3154L130.832 11.9832L134.727 8.67208L138.905 6.85552L146.07 4.83743L152.06 2.16321L153.771 1.8541L168.15 3.13443L178.028 3.29842L182.56 0.769316L185.192 1.62082L184.946 2.52275L184.467 3.29842L184.612 4.8563L186.152 7.14577L187.724 8.70345L192.331 10.9361L198.738 9.05664L199.773 9.2649L201.08 9.78843L203.34 15.8242L205.095 17.9495L207.342 19.3938L209.191 19.6777L210.561 18.1703L211.621 17.5649L213.938 17.3062L217.732 19.3749L219.044 21.5068L225.502 23.1528L231.429 23.9791L233.985 25.7828L242.33 27.5866L245.448 27.3091L250.675 25.4171L260.85 23.342L267.61 26.237L269.441 26.6154L271.019 26.3631L273.291 27.1578L275.715 26.7288L283.195 23.3104L285.537 21.368L288.017 20.8697L290.214 19.7029L296.071 15.8871L297.719 13.6356ZM22.4273 45.82L18.3563 46.5327L17.0938 45.8327L18.3686 44.4388L20.7422 43.5748L21.5123 43.4738L22.5537 44.8613L22.4273 45.82Z" fill="#EDCCFF"/>
<path d="M502.787 521.328L493.855 524.595L491.501 526.045L489.361 527.836L487.757 530.075L486.634 534.005L487.486 537.593L487.404 539.517L485.1 540.791L482.948 541.705L480.555 543.106L479.104 543.453L477.917 544.562L476.535 545.338L471.554 547.356L466.113 548.914L457.466 550.781L454.126 552.806L451.09 554.193L446.476 554.609L440.139 556.533L436.617 558.072L432.242 560.576L431.276 561.364L430.506 563.206L429.162 564.795L426.53 567.4L424.554 568.737L423.235 568.806L420.672 569.538L417.636 569.69L412.536 568.775L411.223 569.412L410.144 570.427L406.211 572.212L402.215 575.776L399.293 576.722L394.565 577.838L391.258 579.32L389.036 579.913L386.176 580.222L380.88 580.071L375.862 580.607L371.21 581.61L369.026 583.508L366.533 586.516L362.462 587.759L361.502 588.837L360.246 591.051L357.614 591.625L355.228 591.997L352.791 591.032L348.196 593.706L346.46 594.148L343.822 594.255L341.947 594.816L340.602 594.659L338.93 593.612L335.37 592.344L332.769 593.17L332.548 590.641L328.237 582.909L329.133 576.167V575.214L328.275 572.2L325.706 569.444L325.782 565.949L324.923 563.452L324.241 560.879L324.462 560.198L324.5 559.579L323.187 555.612L322.752 554.811L322.588 553.979L323.017 553.342L323.004 552.604L322.31 551.387L321.571 549.066L318.068 547.243L318.782 545.534L319.463 546.133L320.385 546.644L320.574 545.54L320.587 544.714L319.122 539.548L321.294 532.649L320.58 526.424L323.894 523.907L324.727 523.15L325.207 522.488L325.99 521.063L327.057 520.602L327.435 519.101L327.404 518.351L326.716 517.707L326.198 515.96L326.369 513.74L326.539 512.813L326.899 511.117L328.06 510.486L328.332 509.981L327.435 508.909L327.517 508.266L329.487 506.468L330.263 505.932L331.538 505.377L332.535 505.384L333.684 505.699L334.713 506.204L335.711 507.118L336.765 508.159L338.381 508.556L339.479 508.455L340.375 508.915L341.133 508.663L341.991 508.127L343.367 508.159L344.605 507.553L348.127 507.263L351.522 507.446L355.07 506.941L362.184 507.017L362.973 507.093L363.749 507.408L366.76 508.997L369.045 509.325L378.526 510.227L382.768 510.625L386.366 510.246L389.351 509.937L390.159 509.988L391.062 510.972L392.861 513.425L394.559 515.733L397.532 515.86L399.438 514.989L401.534 513.766L402.815 512.82L405.258 506.626L409.304 501.587L411.74 498.541L413.091 496.857L415.755 493.526L423.21 489.723L431.163 485.649L433.833 484.918L448.824 482.798L474.976 479.103L483.175 477.948L484.74 481.657L485.53 483.511L487.878 489.074L488.66 490.922L489.449 492.77L491.797 498.313L492.586 500.161L495.717 507.528L496.487 509.325L497.75 509.925L499.574 514.056L500.653 516.478L501.726 518.899L502.787 521.328ZM316.863 545.944L316.307 546.347L316.137 545.641L316.503 544.052L317.083 543.591L317.475 544.771L317.222 545.42L316.863 545.944ZM320.353 570.156L320.12 570.541L319.797 570.459L318.699 569.494L319.905 568.416L320.549 569.418L320.353 570.156ZM319.791 575L318.617 575.555L319.419 574.117L320.239 573.821L320.467 573.877L319.791 575ZM514.786 594.28L515.884 594.495L517.544 593.87L522.304 593.788L528.042 595.794L526.956 596.317L526.312 597.043L523.794 597.705L521.281 599.25L514.01 600.001L511.876 599.584L510.122 598.09L506.871 596.147L508.152 594.905L508.43 594.337L508.91 593.795L510.746 592.855L512.583 593.006L514.786 594.28Z" fill="#EDCCFF"/>
</svg>
