<svg width="45" height="37" viewBox="0 0 45 37" fill="none" xmlns="http://www.w3.org/2000/svg">
<g clip-path="url(#clip0_3381_22468)">
<g clip-path="url(#clip1_3381_22468)">
<path d="M28.2839 9.57294H29.6434L33.518 5.81803L33.7083 4.22384C31.4887 2.32525 28.8063 1.00636 25.9146 0.39177C23.0228 -0.222823 20.017 -0.112832 17.1813 0.711354C14.3456 1.53554 11.7734 3.04671 9.70792 5.10211C7.64238 7.15752 6.15162 9.6893 5.37646 12.4583C5.80811 12.2868 6.28626 12.259 6.73596 12.3792L14.4851 11.1408C14.4851 11.1408 14.8793 10.5084 15.0833 10.5479C16.7436 8.78068 19.0383 7.69535 21.4974 7.51411C23.9565 7.33286 26.3941 8.0694 28.3111 9.57294H28.2839Z" fill="#EA4335"/>
<path d="M39.0374 12.4584C38.1468 9.28005 36.3183 6.42278 33.7762 4.2371L28.3382 9.50715C29.4715 10.4046 30.3798 11.5397 30.9944 12.8269C31.6091 14.1141 31.9141 15.5198 31.8865 16.9379V17.8734C32.5221 17.8734 33.1514 17.9947 33.7386 18.2304C34.3258 18.4661 34.8593 18.8116 35.3087 19.2471C35.7582 19.6827 36.1147 20.1997 36.3579 20.7688C36.6011 21.3378 36.7263 21.9478 36.7263 22.5637C36.7263 23.1796 36.6011 23.7896 36.3579 24.3586C36.1147 24.9277 35.7582 25.4447 35.3087 25.8803C34.8593 26.3158 34.3258 26.6613 33.7386 26.897C33.1514 27.1327 32.5221 27.254 31.8865 27.254H22.2069L21.2417 28.2026V33.8284L22.2069 34.7639H31.8865C34.5895 34.7843 37.2275 33.961 39.4102 32.4157C41.593 30.8705 43.2045 28.6855 44.0065 26.1839C44.8085 23.6822 44.7584 20.9968 43.8635 18.525C42.9686 16.0531 41.2764 13.926 39.0374 12.4584Z" fill="#4285F4"/>
<path d="M12.514 34.7112H22.1936V27.2014H12.514C11.8244 27.2012 11.1429 27.0574 10.5156 26.7798L9.15607 27.1882L5.25432 30.9431L4.91445 32.2606C7.10246 33.8618 9.7723 34.7227 12.514 34.7112Z" fill="#34A853"/>
<path d="M12.5137 10.3504C9.89101 10.3656 7.33868 11.1742 5.21322 12.6634C3.08777 14.1526 1.49532 16.248 0.658296 18.6568C-0.178724 21.0657 -0.218515 23.6677 0.54448 26.0995C1.30748 28.5314 2.83515 30.6715 4.91414 32.2211L10.5289 26.7798C9.81534 26.4674 9.19069 25.9919 8.70849 25.3941C8.2263 24.7963 7.90095 24.094 7.76038 23.3476C7.6198 22.6011 7.66819 21.8328 7.90139 21.1084C8.13459 20.3841 8.54564 19.7254 9.09927 19.1889C9.6529 18.6523 10.3326 18.254 11.08 18.028C11.8274 17.802 12.6203 17.7551 13.3905 17.8913C14.1607 18.0275 14.8854 18.3428 15.5022 18.8101C16.1191 19.2774 16.6097 19.8828 16.9321 20.5743L22.5468 15.133C21.3683 13.6399 19.8494 12.4313 18.1089 11.6016C16.3684 10.7719 14.4534 10.3437 12.5137 10.3504Z" fill="#FBBC05"/>
<path d="M64.4995 28.9301C66.0194 29.5538 67.6497 29.8644 69.2927 29.8435C70.8943 29.8986 72.4896 29.6157 73.9744 29.0134C75.4593 28.4111 76.8005 27.5029 77.9106 26.3479C78.9091 25.2975 79.684 24.0557 80.1885 22.6975C80.693 21.3393 80.9166 19.893 80.8458 18.446C80.8685 17.7468 80.8236 17.0471 80.7118 16.3566H69.3329V19.7853H77.3745C77.2346 21.337 76.5897 22.8001 75.5384 23.9505C73.8402 25.5639 71.579 26.4513 69.236 26.4238C66.8929 26.3963 64.6532 25.4561 62.9935 23.8032C62.1649 22.9815 61.5092 22.0025 61.0649 20.9237C60.6207 19.845 60.3969 18.6883 60.4067 17.5218C60.3861 16.3419 60.6046 15.17 61.0491 14.0766C61.4937 12.9833 62.1551 11.9912 62.9935 11.1601C63.8001 10.3015 64.7767 9.61994 65.8612 9.1588C66.9457 8.69766 68.1142 8.46699 69.2927 8.48145C71.5645 8.44763 73.7572 9.31444 75.3909 10.8922L77.7766 8.46806C76.6595 7.36542 75.3342 6.49567 73.8778 5.90936C72.4213 5.32306 70.8628 5.0319 69.2927 5.05281C67.645 5.0406 66.0118 5.36181 64.4915 5.99709C62.9713 6.63237 61.5955 7.56858 60.4469 8.74932C59.2571 9.86886 58.3127 11.223 57.6737 12.7262C57.0346 14.2293 56.7148 15.8486 56.7344 17.4816C56.714 19.1148 57.0334 20.7344 57.6725 22.2376C58.3116 23.7408 59.2564 25.0949 60.4469 26.214C61.6011 27.3826 62.9795 28.3064 64.4995 28.9301Z" fill="#5F6368"/>
<path fill-rule="evenodd" clip-rule="evenodd" d="M90.0736 29.8461C92.1889 29.8461 94.2225 29.0295 95.7496 27.5667H95.7362C96.4987 26.8314 97.0998 25.9456 97.5013 24.9657C97.9028 23.9858 98.0959 22.9331 98.0683 21.8746C98.0968 20.8172 97.9054 19.7653 97.5063 18.7856C97.1072 17.8058 96.509 16.9195 95.7496 16.1825C94.2209 14.7228 92.188 13.9082 90.0736 13.9082C87.9592 13.9082 85.9262 14.7228 84.3975 16.1825C83.6381 16.9195 83.04 17.8058 82.6409 18.7856C82.2417 19.7653 82.0504 20.8172 82.0789 21.8746C82.0496 22.9321 82.2406 23.9842 82.6397 24.9641C83.0389 25.944 83.6375 26.8302 84.3975 27.5667C85.9246 29.0295 87.9582 29.8461 90.0736 29.8461ZM88.3462 26.3453C87.8009 26.109 87.31 25.7635 86.9038 25.33H86.8904C86.4451 24.8737 86.0959 24.3328 85.8634 23.7393C85.6309 23.1458 85.5198 22.5117 85.5368 21.8746C85.517 21.2363 85.6254 20.6004 85.8556 20.0047C86.0858 19.4089 86.4331 18.8652 86.877 18.4058C87.2886 17.9767 87.7828 17.6353 88.3298 17.4021C88.8768 17.1689 89.4654 17.0487 90.0602 17.0487C90.6549 17.0487 91.2435 17.1689 91.7905 17.4021C92.3376 17.6353 92.8317 17.9767 93.2433 18.4058C93.6872 18.8652 94.0345 19.4089 94.2647 20.0047C94.4949 20.6004 94.6033 21.2363 94.5836 21.8746C94.6023 22.5108 94.4933 23.1443 94.2632 23.7378C94.033 24.3312 93.6862 24.8726 93.2433 25.33C92.8371 25.7635 92.3462 26.109 91.801 26.3453C91.2558 26.5815 90.6678 26.7034 90.0736 26.7034C89.4793 26.7034 88.8914 26.5815 88.3462 26.3453Z" fill="#5F6368"/>
<path fill-rule="evenodd" clip-rule="evenodd" d="M107.524 29.8461C109.639 29.8461 111.673 29.0295 113.2 27.5667C113.96 26.8302 114.559 25.944 114.958 24.9641C115.357 23.9842 115.548 22.9321 115.519 21.8746C115.547 20.8172 115.356 19.7653 114.957 18.7856C114.558 17.8058 113.959 16.9195 113.2 16.1825C111.673 14.7197 109.639 13.9031 107.524 13.9031C105.409 13.9031 103.375 14.7197 101.848 16.1825C101.088 16.9195 100.49 17.8058 100.091 18.7856C99.692 19.7653 99.5007 20.8172 99.5292 21.8746C99.4999 22.9321 99.6908 23.9842 100.09 24.9641C100.489 25.944 101.088 26.8302 101.848 27.5667C103.375 29.0295 105.409 29.8461 107.524 29.8461ZM105.796 26.3453C105.251 26.109 104.76 25.7635 104.354 25.33H104.341C103.895 24.8737 103.546 24.3328 103.314 23.7393C103.081 23.1458 102.97 22.5117 102.987 21.8746C102.967 21.2363 103.076 20.6004 103.306 20.0047C103.536 19.4089 103.883 18.8652 104.327 18.4058C104.739 17.9767 105.233 17.6353 105.78 17.4021C106.327 17.1689 106.916 17.0487 107.51 17.0487C108.105 17.0487 108.694 17.1689 109.241 17.4021C109.788 17.6353 110.282 17.9767 110.694 18.4058C111.138 18.8652 111.485 19.4089 111.715 20.0047C111.945 20.6004 112.054 21.2363 112.034 21.8746C112.053 22.5108 111.944 23.1443 111.713 23.7378C111.483 24.3312 111.136 24.8726 110.694 25.33C110.287 25.7635 109.797 26.109 109.251 26.3453C108.706 26.5815 108.118 26.7034 107.524 26.7034C106.93 26.7034 106.342 26.5815 105.796 26.3453Z" fill="#5F6368"/>
<path fill-rule="evenodd" clip-rule="evenodd" d="M120.21 35.5758C121.491 36.5454 123.066 37.0465 124.673 36.9955C125.675 37.031 126.673 36.8657 127.61 36.5091C128.547 36.1526 129.403 35.6121 130.128 34.9195C130.888 34.0809 131.469 33.0961 131.836 32.0252C132.202 30.9544 132.346 29.8201 132.259 28.6917V14.428H128.935V15.7004H128.814C128.334 15.1536 127.739 14.7192 127.072 14.428C126.3 14.0649 125.458 13.8774 124.606 13.8789C123.598 13.8767 122.601 14.084 121.678 14.4875C120.756 14.891 119.927 15.4819 119.245 16.2227C118.501 16.962 117.915 17.8437 117.521 18.8149C117.128 19.7862 116.934 20.8268 116.953 21.8746C116.935 22.9163 117.129 23.9507 117.523 24.9152C117.917 25.8798 118.503 26.7545 119.245 27.4863C119.928 28.224 120.758 28.812 121.681 29.2131C122.603 29.6142 123.599 29.8198 124.606 29.8167C125.397 29.8615 126.189 29.7215 126.917 29.4077C127.645 29.0938 128.29 28.6148 128.801 28.0087H128.921V29.1605C129.015 30.4213 128.616 31.6694 127.809 32.6427C127.406 33.056 126.918 33.3776 126.379 33.5856C125.84 33.7936 125.263 33.8831 124.686 33.8481C123.777 33.874 122.888 33.5748 122.18 33.0043C121.518 32.474 120.998 31.7885 120.665 31.0087L117.609 32.2811C118.176 33.5858 119.072 34.7211 120.21 35.5758ZM126.578 26.3771C126.054 26.6086 125.486 26.7221 124.914 26.7095C124.324 26.7173 123.739 26.5996 123.199 26.364C122.658 26.1285 122.173 25.7806 121.778 25.3434C121.339 24.8883 120.995 24.3511 120.765 23.7627C120.535 23.1743 120.424 22.5463 120.437 21.9148C120.409 20.6272 120.891 19.3807 121.778 18.446C122.175 18.013 122.661 17.6696 123.201 17.4387C123.742 17.2078 124.326 17.0946 124.914 17.1066C125.486 17.0931 126.055 17.2062 126.578 17.4377C127.102 17.6693 127.568 18.0135 127.943 18.446C128.776 19.4155 129.212 20.6643 129.163 21.9416C129.206 23.1976 128.77 24.4232 127.943 25.3702C127.567 25.8019 127.101 26.1457 126.578 26.3771Z" fill="#5F6368"/>
<path d="M138.169 29.3614V5.95015H134.671V29.3614H138.169Z" fill="#5F6368"/>
<path fill-rule="evenodd" clip-rule="evenodd" d="M144.705 29.2868C145.676 29.6809 146.718 29.8704 147.765 29.8435C149.191 29.8709 150.594 29.4797 151.8 28.7185C152.813 28.0882 153.689 27.2589 154.373 26.2809L151.692 24.4729C151.285 25.1489 150.709 25.7078 150.02 26.0951C149.332 26.4824 148.555 26.6849 147.765 26.6827C146.954 26.7177 146.15 26.5061 145.461 26.0757C144.772 25.6454 144.23 25.0165 143.905 24.272L154.628 19.8656L154.266 18.9549C154.051 18.4095 153.786 17.8849 153.475 17.3879C153.09 16.7992 152.641 16.2556 152.135 15.7673C151.545 15.1914 150.849 14.7364 150.084 14.428C149.235 14.0737 148.323 13.896 147.404 13.9057C146.403 13.8849 145.41 14.0731 144.487 14.4583C143.563 14.8435 142.731 15.417 142.042 16.1423C141.312 16.9023 140.742 17.8015 140.367 18.7864C139.991 19.7712 139.818 20.8215 139.858 21.8746C139.831 22.9251 140.017 23.9702 140.407 24.9464C140.796 25.9226 141.38 26.8095 142.123 27.5533C142.855 28.3026 143.734 28.8927 144.705 29.2868ZM150.419 18.6736L143.289 21.6335C143.244 21.01 143.337 20.3842 143.561 19.8007C143.786 19.2173 144.137 18.6907 144.589 18.2584C145.344 17.4716 146.38 17.0143 147.471 16.9861C148.113 16.9772 148.747 17.139 149.307 17.4549C149.807 17.7214 150.199 18.1517 150.419 18.6736Z" fill="#5F6368"/>
<path d="M168.605 29.0344C169.984 29.5936 171.461 29.8686 172.949 29.8429C174.65 29.8681 176.336 29.5111 177.881 28.7983C179.314 28.1455 180.583 27.1798 181.594 25.9723L179.664 24.0437C178.854 25.0357 177.831 25.8326 176.671 26.3752C175.511 26.9177 174.243 27.1921 172.962 27.1777C171.859 27.2026 170.761 27.0042 169.736 26.5945C168.712 26.1848 167.78 25.5723 166.998 24.7937C166.185 23.9767 165.55 23.0006 165.132 21.9265C164.715 20.8525 164.524 19.7037 164.572 18.5525C164.524 17.4013 164.715 16.2526 165.132 15.1786C165.55 14.1045 166.185 13.1283 166.998 12.3113C167.78 11.5328 168.712 10.9202 169.736 10.5106C170.761 10.1009 171.859 9.9025 172.962 9.92734C174.109 9.88059 175.25 10.1049 176.293 10.582C177.337 11.059 178.253 11.7755 178.967 12.6729L180.897 10.7979C179.924 9.64829 178.704 8.73316 177.328 8.1209C175.951 7.50864 174.455 7.21506 172.949 7.26211C171.461 7.23644 169.984 7.51145 168.605 8.07062C167.226 8.62979 165.975 9.46158 164.926 10.5161C163.877 11.5705 163.052 12.826 162.501 14.207C161.949 15.588 161.683 17.0661 161.717 18.5525C161.683 20.039 161.949 21.5171 162.501 22.8981C163.052 24.2791 163.877 25.5345 164.926 26.589C165.975 27.6435 167.226 28.4753 168.605 29.0344Z" fill="#5F6368"/>
<path d="M186.78 29.361H184.006V7.73112H186.78V29.361Z" fill="#5F6368"/>
<path fill-rule="evenodd" clip-rule="evenodd" d="M196.779 14.0901C194.73 14.0901 192.764 14.8997 191.31 16.3424C190.599 17.0925 190.044 17.9756 189.676 18.941C189.308 19.9064 189.134 20.935 189.166 21.9676C189.134 23.0002 189.308 24.0287 189.676 24.9941C190.044 25.9595 190.599 26.8426 191.31 27.5927C192.764 29.0354 194.73 29.8451 196.779 29.8451C198.827 29.8451 200.793 29.0354 202.247 27.5927C202.958 26.8426 203.513 25.9595 203.881 24.9941C204.249 24.0287 204.423 23.0002 204.391 21.9676C204.423 20.935 204.249 19.9064 203.881 18.941C203.513 17.9756 202.958 17.0925 202.247 16.3424C200.793 14.8997 198.827 14.0901 196.779 14.0901ZM194.922 26.9322C194.338 26.6809 193.811 26.3132 193.374 25.8516L193.388 25.8382C192.902 25.3209 192.524 24.7124 192.275 24.0479C192.027 23.3835 191.913 22.6764 191.94 21.9676C191.909 21.2575 192.02 20.5484 192.267 19.8815C192.513 19.2147 192.889 18.6035 193.374 18.0836C193.811 17.6219 194.338 17.2542 194.922 17.0029C195.506 16.7516 196.136 16.622 196.772 16.622C197.408 16.622 198.037 16.7516 198.621 17.0029C199.205 17.2542 199.732 17.6219 200.169 18.0836C200.654 18.6035 201.031 19.2147 201.277 19.8815C201.523 20.5484 201.634 21.2575 201.603 21.9676C201.634 22.6777 201.523 23.3868 201.277 24.0536C201.031 24.7204 200.654 25.3316 200.169 25.8516C199.732 26.3132 199.205 26.6809 198.621 26.9322C198.037 27.1835 197.408 27.3131 196.772 27.3131C196.136 27.3131 195.506 27.1835 194.922 26.9322Z" fill="#5F6368"/>
<path d="M219.764 29.361H217.084V27.3118H217.003C216.526 28.0901 215.851 28.7279 215.047 29.1601C214.212 29.6436 213.264 29.8977 212.299 29.8967C211.516 29.9503 210.73 29.8263 210.002 29.5341C209.273 29.2419 208.62 28.789 208.091 28.2092C207.075 26.9259 206.565 25.3157 206.656 23.6823V14.575H209.431V23.1734C209.431 25.9324 210.65 27.3118 213.09 27.3118C213.632 27.3287 214.17 27.216 214.659 26.983C215.149 26.7501 215.576 26.4036 215.904 25.9725C216.623 25.0618 217.007 23.9315 216.99 22.7716V14.575H219.764V29.361Z" fill="#5F6368"/>
<path fill-rule="evenodd" clip-rule="evenodd" d="M226.458 29.2549C227.314 29.6456 228.245 29.8463 229.186 29.8432C230.232 29.8554 231.263 29.6068 232.188 29.12C233.008 28.7077 233.703 28.0834 234.199 27.3119H234.319V29.3611H237V7.73112H234.226V14.575L234.346 16.6242H234.226C233.729 15.8527 233.035 15.2284 232.215 14.8161C231.282 14.3249 230.241 14.0762 229.186 14.0929C228.245 14.0897 227.314 14.2905 226.458 14.6812C225.602 15.0719 224.841 15.6434 224.227 16.3563C222.838 17.8899 222.094 19.9 222.15 21.968C222.094 24.0361 222.838 26.0461 224.227 27.5798C224.841 28.2926 225.602 28.8641 226.458 29.2549ZM231.466 26.9474C230.891 27.1968 230.269 27.321 229.642 27.3119C229.008 27.3215 228.38 27.1949 227.8 26.9407C227.219 26.6866 226.7 26.3107 226.278 25.8387C225.81 25.3112 225.45 24.6966 225.22 24.0301C224.99 23.3636 224.894 22.6583 224.938 21.9546C224.894 21.251 224.99 20.5456 225.22 19.8791C225.45 19.2126 225.81 18.5981 226.278 18.0706C226.702 17.6043 227.22 17.2318 227.797 16.9769C228.374 16.722 228.998 16.5903 229.629 16.5903C230.259 16.5903 230.883 16.722 231.46 16.9769C232.037 17.2318 232.555 17.6043 232.979 18.0706C233.922 19.143 234.403 20.5433 234.319 21.968C234.403 23.3928 233.922 24.7931 232.979 25.8654C232.557 26.3292 232.042 26.698 231.466 26.9474Z" fill="#5F6368"/>
</g>
</g>
<defs>
<clipPath id="clip0_3381_22468">
<rect width="45" height="37" fill="white"/>
</clipPath>
<clipPath id="clip1_3381_22468">
<rect width="237" height="37" fill="white"/>
</clipPath>
</defs>
</svg>
