<svg width="58" height="35" viewBox="0 0 58 35" fill="none" xmlns="http://www.w3.org/2000/svg">
<g clip-path="url(#clip0_3370_22139)">
<path d="M16.3453 12.7114C16.3453 13.4316 16.4224 14.0156 16.5574 14.4438C16.7118 14.8721 16.9047 15.3393 17.1747 15.8454C17.2712 16.0011 17.3098 16.1569 17.3098 16.2931C17.3098 16.4878 17.194 16.6824 16.9433 16.8771L15.728 17.6947C15.5544 17.8115 15.3807 17.8699 15.2264 17.8699C15.0335 17.8699 14.8406 17.7725 14.6477 17.5973C14.3777 17.3054 14.1462 16.9939 13.9533 16.6824C13.7604 16.3515 13.5675 15.9817 13.3553 15.5339C11.8506 17.3248 9.9602 18.2203 7.68395 18.2203C6.06358 18.2203 4.77113 17.7531 3.82591 16.8187C2.88069 15.8843 2.39844 14.6385 2.39844 13.0812C2.39844 11.4266 2.97714 10.0834 4.15385 9.0712C5.33055 8.05896 6.89305 7.55284 8.87995 7.55284C9.53581 7.55284 10.211 7.61124 10.9247 7.70857C11.6384 7.8059 12.3715 7.96163 13.1431 8.13683V6.7158C13.1431 5.23638 12.8344 4.20468 12.2364 3.60123C11.6192 2.99778 10.5775 2.70579 9.09214 2.70579C8.41698 2.70579 7.72253 2.78365 7.0088 2.95885C6.29506 3.13404 5.60061 3.34817 4.92545 3.62069C4.61681 3.75696 4.38533 3.83482 4.2503 3.87375C4.11527 3.91268 4.01881 3.93215 3.94165 3.93215C3.67159 3.93215 3.53656 3.73749 3.53656 3.3287V2.37486C3.53656 2.06341 3.57514 1.82981 3.67159 1.69355C3.76804 1.55729 3.94165 1.42102 4.21172 1.28476C4.88687 0.934372 5.69706 0.642381 6.64228 0.408788C7.5875 0.155729 8.59059 0.0389322 9.65155 0.0389322C11.9471 0.0389322 13.6253 0.564516 14.7056 1.61569C15.7666 2.66685 16.3067 4.26307 16.3067 6.40434V12.7114H16.3453ZM8.51343 15.6702C9.15001 15.6702 9.80588 15.5534 10.5003 15.3198C11.1948 15.0862 11.8121 14.658 12.3329 14.074C12.6415 13.7041 12.873 13.2953 12.9888 12.8282C13.1045 12.361 13.1817 11.7965 13.1817 11.1346V10.317C12.6222 10.1808 12.0242 10.064 11.407 9.98611C10.7897 9.90824 10.1917 9.86931 9.59368 9.86931C8.30124 9.86931 7.35602 10.1224 6.71944 10.648C6.08287 11.1735 5.77422 11.9132 5.77422 12.8866C5.77422 13.8015 6.00571 14.4828 6.48796 14.95C6.95093 15.4366 7.62608 15.6702 8.51343 15.6702ZM24.0035 17.7725C23.6562 17.7725 23.4248 17.7141 23.2704 17.5779C23.1161 17.4611 22.9811 17.1886 22.8653 16.8187L18.3321 1.77141C18.2164 1.38209 18.1585 1.12903 18.1585 0.992771C18.1585 0.681313 18.3129 0.506118 18.6215 0.506118H20.5119C20.8785 0.506118 21.1292 0.564517 21.2643 0.700779C21.4186 0.817576 21.5343 1.0901 21.6501 1.45996L24.8908 14.3465L27.9001 1.45996C27.9965 1.07064 28.1123 0.817576 28.2666 0.700779C28.4209 0.583983 28.691 0.506118 29.0382 0.506118H30.5814C30.9479 0.506118 31.1987 0.564517 31.353 0.700779C31.5074 0.817576 31.6424 1.0901 31.7195 1.45996L34.7674 14.5022L38.1046 1.45996C38.2203 1.07064 38.3554 0.817576 38.4904 0.700779C38.6447 0.583983 38.8955 0.506118 39.2427 0.506118H41.0367C41.3454 0.506118 41.519 0.661847 41.519 0.992771C41.519 1.0901 41.4997 1.18743 41.4804 1.30423C41.4611 1.42102 41.4225 1.57675 41.3454 1.79088L36.6964 16.8382C36.5807 17.2275 36.4456 17.4806 36.2913 17.5973C36.137 17.7141 35.8862 17.792 35.5583 17.792H33.8993C33.5328 17.792 33.2821 17.7336 33.1277 17.5973C32.9734 17.4611 32.8384 17.208 32.7612 16.8187L29.7712 4.26307L26.8005 16.7992C26.7041 17.1886 26.5884 17.4416 26.434 17.5779C26.2797 17.7141 26.0096 17.7725 25.6624 17.7725H24.0035ZM48.7914 18.2981C47.7883 18.2981 46.7852 18.1813 45.8207 17.9477C44.8562 17.7141 44.1039 17.4611 43.6023 17.1691C43.2937 16.9939 43.0815 16.7992 43.0043 16.624C42.9272 16.4488 42.8886 16.2542 42.8886 16.079V15.0862C42.8886 14.6774 43.0429 14.4828 43.3322 14.4828C43.448 14.4828 43.5637 14.5022 43.6795 14.5412C43.7952 14.5801 43.9688 14.658 44.1617 14.7358C44.8176 15.0278 45.5313 15.2614 46.2837 15.4171C47.0553 15.5729 47.8076 15.6507 48.5792 15.6507C49.7945 15.6507 50.7397 15.4366 51.3956 15.0084C52.0514 14.5801 52.3986 13.9572 52.3986 13.1591C52.3986 12.614 52.225 12.1663 51.8778 11.7965C51.5306 11.4266 50.8747 11.0957 49.9295 10.7842L47.1324 9.90824C45.7242 9.46052 44.6826 8.79867 44.046 7.9227C43.4094 7.06619 43.0815 6.11235 43.0815 5.10012C43.0815 4.28254 43.2551 3.56229 43.6023 2.93938C43.9495 2.31646 44.4125 1.77141 44.9912 1.34316C45.5699 0.89544 46.2258 0.564517 46.9974 0.330924C47.769 0.0973304 48.5792 0 49.428 0C49.8523 0 50.296 0.0194661 50.7204 0.0778644C51.1641 0.136263 51.5692 0.214127 51.9743 0.291991C52.3601 0.389322 52.7266 0.486652 53.0738 0.603449C53.421 0.720245 53.6911 0.837042 53.884 0.953839C54.1541 1.10957 54.347 1.2653 54.4627 1.44049C54.5784 1.59622 54.6363 1.81035 54.6363 2.08287V2.99778C54.6363 3.40657 54.482 3.62069 54.1926 3.62069C54.0383 3.62069 53.7875 3.54283 53.4596 3.3871C52.3601 2.88098 51.1255 2.62792 49.7559 2.62792C48.6563 2.62792 47.7883 2.80312 47.1903 3.17297C46.5923 3.54283 46.2837 4.10735 46.2837 4.90546C46.2837 5.45051 46.4766 5.91769 46.8624 6.28755C47.2482 6.6574 47.9619 7.02726 48.9843 7.35818L51.7235 8.23416C53.1124 8.68188 54.1155 9.30479 54.7135 10.1029C55.3115 10.901 55.6008 11.8159 55.6008 12.8282C55.6008 13.6652 55.4272 14.4244 55.0993 15.0862C54.752 15.7481 54.2891 16.3321 53.6911 16.7992C53.0931 17.2859 52.3794 17.6363 51.5499 17.8893C50.6818 18.1619 49.7752 18.2981 48.7914 18.2981Z" fill="white"/>
<path fill-rule="evenodd" clip-rule="evenodd" d="M52.4369 27.7586C46.0905 32.4889 36.8697 35 28.9415 35C17.8303 35 7.81871 30.8537 0.256949 23.9627C-0.341047 23.4177 0.199078 22.678 0.912816 23.1062C9.09186 27.8949 19.1806 30.7953 29.6166 30.7953C36.6576 30.7953 44.3929 29.3159 51.511 26.2792C52.572 25.7925 53.4786 26.98 52.4369 27.7586Z" fill="#FF9900"/>
<path fill-rule="evenodd" clip-rule="evenodd" d="M55.0797 24.7219C54.2695 23.6707 49.717 24.2158 47.6529 24.4688C47.0356 24.5467 46.9392 24.0017 47.4986 23.5929C51.1252 21.0233 57.0858 21.7631 57.7803 22.6196C58.4747 23.4955 57.5874 29.5106 54.1923 32.3915C53.6715 32.8393 53.1699 32.6057 53.4014 32.0217C54.173 30.0945 55.8898 25.7536 55.0797 24.7219Z" fill="#FF9900"/>
</g>
<defs>
<clipPath id="clip0_3370_22139">
<rect width="58" height="35" fill="white"/>
</clipPath>
</defs>
</svg>
