<svg width="40" height="40" viewBox="0 0 40 40" fill="none" xmlns="http://www.w3.org/2000/svg">
<path fill-rule="evenodd" clip-rule="evenodd" d="M0.25 20C0.25 26.9025 5.8425 32.5 12.7425 32.5H27.2575C30.5716 32.4987 33.7495 31.181 36.0922 28.8369C38.4349 26.4928 39.7507 23.3141 39.75 20C39.75 13.0975 34.1575 7.5 27.2575 7.5H12.7425C9.42839 7.50133 6.25051 8.81895 3.90778 11.1631C1.56506 13.5072 0.249337 16.6859 0.25 20ZM35.0275 20C35.0282 21.0623 34.8195 22.1143 34.4136 23.0959C34.0076 24.0775 33.4122 24.9696 32.6614 25.7211C31.9106 26.4726 31.0191 27.0688 30.0378 27.4757C29.0566 27.8826 28.0048 28.0922 26.9425 28.0925H13.0675C12.0048 28.0928 10.9525 27.8837 9.97062 27.4771C8.98879 27.0705 8.09671 26.4744 7.34539 25.7228C6.59407 24.9713 5.99822 24.079 5.59193 23.0971C5.18563 22.1151 4.97684 21.0627 4.9775 20C4.97717 18.9379 5.18604 17.8862 5.59217 16.9049C5.9983 15.9235 6.59374 15.0318 7.34451 14.2805C8.09527 13.5293 8.98664 12.9333 9.96774 12.5266C10.9488 12.1198 12.0004 11.9103 13.0625 11.91H26.94C28.0023 11.91 29.0541 12.1193 30.0355 12.5259C31.0169 12.9325 31.9086 13.5284 32.6596 14.2797C33.4106 15.0309 34.0063 15.9228 34.4126 16.9043C34.8189 17.8858 35.0278 18.9377 35.0275 20Z" fill="#EA1B22"/>
</svg>
