<svg width="46" height="35" viewBox="0 0 46 35" fill="none" xmlns="http://www.w3.org/2000/svg">
<g clip-path="url(#clip0_3379_22394)">
<g clip-path="url(#clip1_3379_22394)">
<path d="M20.5858 32.9614C26.3028 31.9411 31.0247 31.0968 31.0789 31.0851L31.1775 31.064L25.7801 24.5779C22.8116 21.0106 20.3828 18.078 20.3828 18.0611C20.3828 18.0291 25.956 2.52367 25.9873 2.46851C25.9978 2.45007 29.7906 9.06555 35.1812 18.5049C40.2281 27.3422 44.3889 34.6285 44.4276 34.6968L44.4979 34.8209L27.3447 34.8187L10.1914 34.8165L20.5858 32.9614V32.9614ZM86.3666 31.3927C83.7555 31.2236 82.2369 29.7215 81.8345 26.9099C81.7275 26.162 81.7271 26.1426 81.7161 21.287L81.7055 16.5877H82.8611H84.0167L84.0258 21.1332C84.034 25.2299 84.0391 25.7102 84.0779 25.9984C84.2352 27.168 84.5485 27.9546 85.0817 28.5191C85.5085 28.9709 86.0082 29.2355 86.6998 29.3759C87.0261 29.4421 87.9543 29.4422 88.2518 29.3762C88.9529 29.2203 89.5149 28.912 90.0107 28.4113C90.5757 27.8407 90.9937 27.031 91.196 26.1155L91.2642 25.8069L91.2718 21.223L91.2794 16.639H92.4591H93.6389V23.8451V31.0512H92.4713H91.3037V29.9079C91.3037 29.1311 91.2952 28.7674 91.2774 28.7735C91.2629 28.7783 91.203 28.871 91.1441 28.9794C90.7417 29.7208 90.0714 30.3988 89.3368 30.8073C88.4562 31.2969 87.5731 31.471 86.3666 31.3928L86.3666 31.3927ZM112.869 31.3811C111.947 31.3111 110.977 30.991 110.184 30.4952C108.512 29.4504 107.523 27.7282 107.233 25.3581C107.133 24.538 107.121 23.4363 107.204 22.7394C107.391 21.1823 107.997 19.6536 108.859 18.5623C109.08 18.2825 109.582 17.7758 109.859 17.5524C110.607 16.9493 111.481 16.5275 112.41 16.3223C112.951 16.2027 113.904 16.1465 114.479 16.2004C115.923 16.3356 117.246 17.0225 118.146 18.1036C119.06 19.2021 119.562 20.737 119.626 22.627C119.636 22.9232 119.639 23.4425 119.632 23.781L119.619 24.3964L114.561 24.4029L109.503 24.4094V24.6374C109.503 25.3315 109.671 26.1221 109.959 26.7948C110.208 27.3749 110.637 28.0083 110.988 28.3148C111.708 28.9433 112.588 29.3195 113.552 29.4101C113.909 29.4436 114.82 29.4083 115.227 29.3451C116.389 29.1647 117.494 28.7043 118.386 28.0286C118.491 27.9491 118.591 27.8749 118.609 27.8636C118.635 27.8471 118.641 28.0548 118.641 28.9278L118.64 30.0126L118.401 30.1619C117.392 30.7925 116.236 31.1973 115.012 31.3489C114.646 31.3941 113.306 31.4143 112.869 31.3811L112.869 31.3811ZM117.271 22.2322C117.271 21.0695 116.786 19.7778 116.099 19.1127C115.61 18.638 115.018 18.348 114.314 18.2378C113.981 18.1857 113.279 18.2058 112.928 18.2774C112.185 18.429 111.571 18.7586 111.036 19.2932C110.472 19.8558 110.05 20.5391 109.784 21.3176C109.689 21.5975 109.577 22.0572 109.542 22.3128L109.526 22.4346H113.398H117.271V22.2322ZM48.6651 31.0191C48.671 31.0015 50.3885 26.4432 52.4816 20.8896L56.2874 10.7922L57.5102 10.7921L58.7331 10.792L58.8345 11.0549C59.1446 11.8581 66.4534 31.0293 66.4534 31.0393C66.4534 31.0458 65.868 31.0511 65.1525 31.051L63.8516 31.0507L62.7982 28.2173L61.7448 25.3838L57.5033 25.3837L53.2618 25.3837L53.225 25.4798C53.2047 25.5327 52.7546 26.8077 52.2248 28.3131L51.2615 31.0502L49.9579 31.0507C48.9261 31.051 48.6566 31.0444 48.6651 31.0191V31.0191ZM60.9706 23.2214C60.9706 23.217 60.2617 21.2753 59.3953 18.9067C57.7743 14.4755 57.6837 14.2089 57.5556 13.4975C57.4955 13.1639 57.4652 13.1546 57.4295 13.459C57.404 13.6766 57.2936 14.1635 57.2084 14.4335C57.1661 14.5675 56.4362 16.5916 55.5863 18.9314C54.7364 21.2713 54.041 23.1956 54.041 23.2077C54.041 23.2197 55.6002 23.2296 57.5058 23.2296C59.4115 23.2296 60.9706 23.2259 60.9706 23.2214V23.2214ZM67.2403 30.6822V30.3131L71.4661 24.4441L75.692 18.5751L71.8659 18.5623L68.0399 18.5495L68.0332 17.5686L68.0266 16.5877H73.5604H79.0943V16.919V17.2503L74.868 23.1513C72.5435 26.3968 70.6417 29.0578 70.6417 29.0644C70.6417 29.0711 72.5207 29.0766 74.8172 29.0766H78.9928V30.0639V31.0512H73.1165H67.2403V30.6822ZM98.2502 31.0341C98.2409 31.0247 98.2333 27.7704 98.2333 23.8023V16.5877H99.3882H100.543V18.0751C100.543 18.8931 100.553 19.5624 100.565 19.5624C100.577 19.5624 100.633 19.4285 100.69 19.2649C100.95 18.5149 101.4 17.8141 101.98 17.2572C102.503 16.7554 103.1 16.4554 103.805 16.3406C104.003 16.3083 104.17 16.3022 104.566 16.3126C105.064 16.3257 105.324 16.3624 105.626 16.4623L105.721 16.4937V17.7049V18.916L105.448 18.778C104.966 18.5342 104.491 18.4378 103.919 18.4678C103.547 18.4874 103.303 18.5356 103.005 18.6484C102.393 18.8805 101.897 19.2901 101.55 19.8493C101.048 20.6587 100.69 21.6992 100.584 22.6555C100.565 22.8271 100.554 24.2248 100.549 26.9801L100.543 31.0512H99.4049C98.7791 31.0512 98.2595 31.0435 98.2502 31.0341ZM0 30.9834C0 30.9743 2.54321 26.514 5.65158 21.0717L11.3032 11.1767L17.8894 5.59257C21.5119 2.52131 24.4854 0.00471582 24.4974 0.000126156C24.5093 -0.0044626 24.4616 0.116707 24.3915 0.269394C24.3213 0.42208 21.103 7.39602 17.2397 15.767L10.2155 30.9871L5.10777 30.9936C2.2985 30.9971 0 30.9926 0 30.9834V30.9834Z" fill="#0089D6"/>
</g>
</g>
<defs>
<clipPath id="clip0_3379_22394">
<rect width="46" height="35" fill="white"/>
</clipPath>
<clipPath id="clip1_3379_22394">
<rect width="119.636" height="34.8209" fill="white"/>
</clipPath>
</defs>
</svg>
