<svg width="46" height="37" viewBox="0 0 46 37" fill="none" xmlns="http://www.w3.org/2000/svg">
<path d="M11.6062 29.5278H7.77531C3.52031 29.5278 0.0703125 26.0662 0.0703125 21.7881C0.0703125 18.4133 2.21937 15.5444 5.21656 14.4821C5.20937 14.3375 5.20937 14.193 5.20937 14.0485C5.20937 9.29338 9.04031 5.44885 13.7625 5.44885C15.8612 5.44885 17.7875 6.20764 19.2753 7.47229C19.1244 7.58791 18.9734 7.70354 18.8225 7.82639C17.0687 9.2717 15.7678 11.2012 15.085 13.3547C13.5541 14.1858 12.2459 15.3781 11.2612 16.8379C10.0466 18.6518 9.40687 20.7619 9.40687 22.9516C9.40687 24.4258 9.69438 25.8567 10.2622 27.2008C10.6144 28.0319 11.0672 28.8123 11.6062 29.5278ZM45.9266 23.8115C45.9266 28.0824 42.4766 31.5512 38.2288 31.5512H20.26C15.5306 31.5512 11.7069 27.6994 11.7069 22.9516C11.7069 19.425 13.8416 16.2887 17.04 14.9879C17.9384 10.6809 21.7262 7.47229 26.2544 7.47229C29.2516 7.47229 31.9037 8.8887 33.6144 11.035C34.0025 10.9555 34.405 10.9121 34.8147 10.9121C37.9916 10.9121 40.5719 13.3908 40.7875 16.5055C43.8278 17.5895 45.9266 20.4873 45.9266 23.8115ZM43.3606 23.8115C43.3606 20.9643 41.0606 18.6518 38.2288 18.6518C38.0706 18.6518 37.9125 18.659 37.7616 18.6735C38.0634 18.1604 38.2288 17.5678 38.2288 16.9319C38.2288 15.0313 36.6978 13.492 34.8075 13.492C33.9594 13.492 33.1831 13.8028 32.5866 14.3231C31.5659 11.8155 29.115 10.0522 26.2544 10.0522C22.4737 10.0522 19.4119 13.1307 19.4119 16.9319V16.9897C16.5081 17.4088 14.28 19.9164 14.28 22.9516C14.28 26.2758 16.9609 28.9713 20.2672 28.9713H38.2288C41.0606 28.9713 43.3606 26.6588 43.3606 23.8115Z" fill="white"/>
</svg>
